<svg xmlns="http://www.w3.org/2000/svg" width="48" height="48" viewBox="0 0 48 48"><linearGradient id="JSrRJiS08S_zfrvGR3JZMa" x1="4.314" x2="45.867" y1="4.495" y2="45.665" gradientUnits="userSpaceOnUse"><stop offset=".002" stop-color="#9c55d4"/><stop offset=".003" stop-color="#5340ff"/><stop offset=".386" stop-color="#4a31ff"/><stop offset="1" stop-color="#3811ff"/></linearGradient><path fill="url(#JSrRJiS08S_zfrvGR3JZMa)" d="M40,6H8C6.895,6,6,6.895,6,8v32c0,1.105,0.895,2,2,2h32c1.105,0,2-0.895,2-2V8	C42,6.895,41.105,6,40,6z"/><g opacity=".07"><path d="M32.5,28.491V25c0-1.378-1.122-2.5-2.5-2.5H19c-1.378,0-2.5,1.122-2.5,2.5v3c0,1.378,1.122,2.5,2.5,2.5h6.849 c-0.28,0.483-0.639,0.836-1.072,1.053l0.361,0.928l5.549-1.586C31.754,30.59,32.5,29.602,32.5,28.491z"/><path d="M37.795,26.406c-0.154-1.341-1.274-2.571-1.854-3.126C34.375,17.514,29.689,13.5,24.5,13.5 c-5.321,0-10.037,4.15-11.517,10.112c-0.431,0.396-1.812,1.77-1.982,3.248c-0.174,1.517-0.003,2.163,0.017,2.232 c0.013,0.079,0.606,2.998,3.341,3.741l0.786,0.214l-0.166-0.798C14.974,32.226,14.5,29.916,14.5,27.5c0-6.617,4.486-12,10-12 c4.276,0,8.078,3.275,9.462,8.149c0.492,1.735,0.701,3.38,0.621,4.894c-1.163,1.766-3.033,2.905-4.188,3.48 c-0.182-0.075-0.374-0.114-0.567-0.114c-0.163,0-0.323,0.028-0.478,0.082l-1.885,0.667c-0.378,0.134-0.681,0.406-0.853,0.768 c-0.173,0.362-0.194,0.769-0.06,1.146l0.092,0.261c0.212,0.598,0.78,1,1.414,1c0.17,0,0.339-0.029,0.501-0.086l1.885-0.667 c0.573-0.203,0.949-0.735,0.981-1.326c0.562-0.284,1.223-0.661,1.901-1.143l-0.046,0.081l1.157-0.313 c2.735-0.743,3.328-3.663,3.352-3.787C37.798,28.569,37.969,27.922,37.795,26.406z"/></g><path d="M38.291,26.349c-0.163-1.421-1.26-2.696-1.905-3.333C34.726,17.104,29.875,13,24.5,13	c-5.508,0-10.389,4.238-11.965,10.345c-0.568,0.539-1.853,1.913-2.031,3.458c-0.164,1.424-0.041,2.137,0.02,2.379	c0.086,0.4,0.817,3.349,3.703,4.134l1.572,0.427l-0.331-1.596C15.464,32.125,15,29.861,15,27.5c0-6.341,4.262-11.5,9.5-11.5	c4.05,0,7.659,3.129,8.981,7.785c0.462,1.629,0.667,3.173,0.609,4.595c-0.426,0.619-0.951,1.135-1.49,1.591	c0.253-0.442,0.4-0.948,0.4-1.48V25c0-1.654-1.346-3-3-3H19c-1.654,0-3,1.346-3,3v3c0,1.654,1.346,3,3,3h5.735	c-0.059,0.039-0.12,0.074-0.183,0.106l0.722,1.856l1.375-0.393c-0.203,0.177-0.37,0.393-0.49,0.643	c-0.23,0.482-0.259,1.025-0.08,1.529l0.092,0.261c0.282,0.797,1.04,1.333,1.885,1.333c0.227,0,0.452-0.039,0.667-0.115l1.885-0.667	c0.668-0.237,1.137-0.808,1.275-1.472c0.459-0.242,0.971-0.54,1.499-0.9l1.184-0.318c2.886-0.784,3.617-3.733,3.703-4.134	C38.332,28.486,38.455,27.773,38.291,26.349z" opacity=".05"/><path fill="#fff" d="M30,23H19c-1.105,0-2,0.895-2,2v3c0,1.105,0.895,2,2,2h7.627c-0.28,0.771-0.768,1.57-1.627,2	l5.549-1.586C31.408,30.169,32,29.384,32,28.491V25C32,23.895,31.105,23,30,23z"/><path fill="#fff" d="M37.298,26.463c-0.149-1.296-1.399-2.543-1.804-2.917C34.051,18.026,29.669,14,24.5,14	c-5.272,0-9.716,4.192-11.068,9.881c-0.024,0.02-1.758,1.501-1.935,3.036c-0.168,1.46,0,2.035,0,2.035s0.527,2.729,2.992,3.399	c0,0-0.489-2.351-0.489-4.851C14,20.607,18.71,15,24.5,15c4.617,0,8.54,3.571,9.943,8.512c0.604,2.128,0.716,3.86,0.631,5.191	c-1.282,2.025-3.414,3.274-4.686,3.879c-0.252-0.164-0.566-0.227-0.871-0.119l-1.885,0.667c-0.521,0.184-0.793,0.756-0.609,1.276	l0.092,0.26c0.184,0.521,0.756,0.793,1.276,0.609l1.885-0.667c0.481-0.17,0.733-0.67,0.626-1.156	c1.046-0.499,2.561-1.377,3.843-2.714c-0.212,0.763-0.439,1.156-0.439,1.156c2.465-0.67,2.992-3.399,2.992-3.399	S37.465,27.923,37.298,26.463z"/><ellipse cx="21" cy="26.5" fill="#252525" rx="1" ry="1.5"/><ellipse cx="28" cy="26.5" fill="#252525" rx="1" ry="1.5"/></svg>