<svg xmlns="http://www.w3.org/2000/svg"  viewBox="0 0 48 48" width="48px" height="48px" baseProfile="basic"><linearGradient id="9Hmr2kZ81uvRAMF-RoLgqa" x1="24.406" x2="43.438" y1="-2.012" y2="30.953" gradientUnits="userSpaceOnUse"><stop offset="0" stop-color="#262626" stop-opacity="0"/><stop offset="1" stop-color="#262626" stop-opacity=".8"/></linearGradient><path fill="url(#9Hmr2kZ81uvRAMF-RoLgqa)" d="M37,18c-4.971,0-9-4.029-9-9c0-1.975,0.643-3.795,1.721-5.279C27.47,5.357,26,8.004,26,11	c0,4.971,4.029,9,9,9c2.996,0,5.643-1.47,7.279-3.721C40.795,17.357,38.974,18,37,18z"/><linearGradient id="9Hmr2kZ81uvRAMF-RoLgqb" x1="3.592" x2="45.192" y1="-6.061" y2="65.993" gradientUnits="userSpaceOnUse"><stop offset="0" stop-color="#262626" stop-opacity="0"/><stop offset="1" stop-color="#262626" stop-opacity=".8"/></linearGradient><path fill="url(#9Hmr2kZ81uvRAMF-RoLgqb)" d="M29,37C17.954,37,9,28.046,9,17c0-2.797,0.578-5.458,1.615-7.875C7.145,12.722,5,17.607,5,23	c0,11.046,8.954,20,20,20c8.249,0,15.327-4.996,18.385-12.125C39.747,34.645,34.653,37,29,37z"/><linearGradient id="9Hmr2kZ81uvRAMF-RoLgqc" x1="14.52" x2="44.861" y1="-4.589" y2="47.963" gradientUnits="userSpaceOnUse"><stop offset="0" stop-color="#262626" stop-opacity="0"/><stop offset="1" stop-color="#262626" stop-opacity=".8"/></linearGradient><path fill="url(#9Hmr2kZ81uvRAMF-RoLgqc)" d="M33.5,27C25.492,27,19,20.508,19,12.5c0-2.361,0.576-4.584,1.578-6.554	C17.766,8.591,16,12.335,16,16.5C16,24.508,22.492,31,30.5,31c5.647,0,10.528-3.235,12.922-7.946C40.828,25.494,37.343,27,33.5,27z"/></svg>