<svg xmlns="http://www.w3.org/2000/svg"  viewBox="0 0 64 64" width="64px" height="64px" baseProfile="basic"><linearGradient id="jyMxm2BOkw4hCE1B6aNKca" x1="19.926" x2="19.926" y1="30.337" y2="35.677" gradientUnits="userSpaceOnUse"><stop offset="0" stop-color="#6dc7ff"/><stop offset=".699" stop-color="#e6abff"/></linearGradient><path fill="url(#jyMxm2BOkw4hCE1B6aNKca)" d="M20.92,36.28h-4.3l1.04-5.69h3.69c0.8,0,1.27,0.46,1.48,0.73c0.2,0.27,0.53,0.84,0.35,1.62 l-0.43,1.87C22.55,35.67,21.8,36.28,20.92,36.28z"/><linearGradient id="jyMxm2BOkw4hCE1B6aNKcb" x1="32" x2="32" y1="19.842" y2="44.243" gradientUnits="userSpaceOnUse"><stop offset="0" stop-color="#6dc7ff"/><stop offset=".699" stop-color="#e6abff"/></linearGradient><path fill="url(#jyMxm2BOkw4hCE1B6aNKcb)" d="M48.56,31.33 c-0.35-0.47-0.88-0.74-1.45-0.74h-3.59l-1.01,5.69h4.18c0.86,0,1.59-0.61,1.79-1.47l0.42-1.88C49.07,32.16,48.76,31.59,48.56,31.33 z M48.56,31.33c-0.35-0.47-0.88-0.74-1.45-0.74h-3.59l-1.01,5.69h4.18c0.86,0,1.59-0.61,1.79-1.47l0.42-1.88 C49.07,32.16,48.76,31.59,48.56,31.33z M57.65,26.23c0.5,0.41,0.97,0.84,1.39,1.27C58.62,27.06,58.16,26.64,57.65,26.23z M59.04,40.5c-0.42,0.43-0.89,0.86-1.39,1.27C58.16,41.36,58.62,40.94,59.04,40.5z M54.2,23.92c0.64,0.36,1.26,0.73,1.83,1.11 C55.45,24.64,54.85,24.27,54.2,23.92z M56.03,42.97c-0.57,0.38-1.19,0.75-1.83,1.11C54.85,43.73,55.45,43.36,56.03,42.97z M32,21 C16.82,21,4,26.95,4,34s12.82,13,28,13s28-5.95,28-13S47.18,21,32,21z M25.77,33.57l-0.43,1.88c-0.49,2.1-2.3,3.58-4.42,3.58h-4.81 l-0.45,2.45c-0.04,0.21-0.21,0.36-0.41,0.36h-1.79c-0.17,0-0.27-0.1-0.31-0.15c-0.09-0.11-0.12-0.24-0.1-0.38l2.51-13.11 c0.04-0.2,0.21-0.35,0.41-0.35h5.23c1.23,0,2.36,0.41,3.17,1.17C25.64,30.19,26.16,31.89,25.77,33.57z M38.96,30.97l-1.35,6.76 c-0.04,0.21-0.24,0.36-0.47,0.36h-1.93c-0.15,0-0.29-0.06-0.38-0.17c-0.05-0.06-0.12-0.18-0.09-0.34l1.14-5.99 c0.08-0.41-0.03-0.84-0.3-1.16c-0.28-0.34-0.7-0.54-1.15-0.54h-3.22l-1.44,7.83c-0.04,0.22-0.23,0.37-0.47,0.37h-1.93 c-0.15,0-0.29-0.06-0.38-0.17c-0.04-0.06-0.12-0.18-0.09-0.34l2.59-14.05c0.04-0.21,0.24-0.37,0.47-0.37h1.93 c0.15,0,0.29,0.07,0.38,0.18c0.05,0.05,0.12,0.17,0.09,0.33l-0.64,3.47h3.76c0.67,0,1.28,0.14,1.76,0.4 C38.53,28.23,39.22,29.61,38.96,30.97z M51.38,33.57l-0.42,1.88c-0.47,2.1-2.23,3.58-4.27,3.58h-4.67l-0.44,2.46 c-0.03,0.2-0.19,0.35-0.38,0.35h-1.74c-0.14,0-0.24-0.09-0.28-0.14c-0.09-0.11-0.12-0.25-0.1-0.39l2.43-13.11 c0.04-0.21,0.2-0.35,0.38-0.35h5.08c1.18,0,2.26,0.41,3.05,1.17C51.25,30.19,51.76,31.89,51.38,33.57z M47.11,30.59h-3.59 l-1.01,5.69h4.18c0.86,0,1.59-0.61,1.79-1.47l0.42-1.88c0.17-0.77-0.14-1.34-0.34-1.6C48.21,30.86,47.68,30.59,47.11,30.59z M7.97,25.03c0.57-0.38,1.19-0.75,1.83-1.11C9.15,24.27,8.55,24.64,7.97,25.03z M9.8,44.08c-0.64-0.36-1.26-0.73-1.83-1.11 C8.55,43.36,9.15,43.73,9.8,44.08z M4.96,27.5c0.42-0.43,0.89-0.86,1.39-1.27C5.84,26.64,5.38,27.06,4.96,27.5z M6.35,41.77 c-0.5-0.41-0.97-0.84-1.39-1.27C5.38,40.94,5.84,41.36,6.35,41.77z"/><path fill="#fff" d="M57.65,26.23c0.5,0.41,0.97,0.84,1.39,1.27C58.62,27.06,58.16,26.64,57.65,26.23z M59.04,40.5 c-0.42,0.43-0.89,0.86-1.39,1.27C58.16,41.36,58.62,40.94,59.04,40.5z M56.03,25.03c-0.58-0.39-1.18-0.76-1.83-1.11 C54.84,24.28,55.46,24.65,56.03,25.03z M56.03,42.97c-0.57,0.38-1.19,0.75-1.83,1.11C54.85,43.73,55.45,43.36,56.03,42.97z M9.8,23.92c-0.65,0.35-1.25,0.72-1.83,1.11C8.54,24.65,9.16,24.28,9.8,23.92z M9.8,44.08c-0.64-0.36-1.26-0.73-1.83-1.11 C8.55,43.36,9.15,43.73,9.8,44.08z M6.35,26.23c-0.51,0.41-0.97,0.83-1.39,1.27C5.38,27.07,5.85,26.64,6.35,26.23z M6.35,41.77 c-0.5-0.41-0.97-0.84-1.39-1.27C5.38,40.94,5.84,41.36,6.35,41.77z"/><linearGradient id="jyMxm2BOkw4hCE1B6aNKcc" x1="32" x2="32" y1="13" y2="60.627" gradientUnits="userSpaceOnUse"><stop offset="0" stop-color="#1a6dff"/><stop offset="1" stop-color="#c822ff"/></linearGradient><path fill="url(#jyMxm2BOkw4hCE1B6aNKcc)" d="M32,17C14.06,17,0,24.47,0,34 s14.06,17,32,17s32-7.47,32-17S49.94,17,32,17z M61.65,36.28c-0.45,1.49-1.35,2.91-2.61,4.22c-0.42,0.43-0.89,0.86-1.39,1.27 c-0.5,0.41-1.04,0.81-1.62,1.2c-0.57,0.38-1.19,0.75-1.83,1.11C48.7,47.1,40.79,49,32,49s-16.7-1.9-22.2-4.92 c-0.64-0.36-1.26-0.73-1.83-1.11c-0.58-0.39-1.12-0.79-1.62-1.2c-0.5-0.41-0.97-0.84-1.39-1.27c-1.26-1.31-2.16-2.73-2.61-4.22 c-0.16-0.49-0.26-1-0.31-1.51C2.01,34.52,2,34.26,2,34s0.01-0.52,0.04-0.77c0.05-0.51,0.15-1.02,0.31-1.51 c0.45-1.49,1.35-2.91,2.61-4.22c0.42-0.43,0.89-0.86,1.39-1.27c0.5-0.41,1.04-0.81,1.62-1.2c0.57-0.38,1.19-0.75,1.83-1.11 C15.3,20.9,23.21,19,32,19s16.7,1.9,22.2,4.92c0.64,0.36,1.26,0.73,1.83,1.11c0.58,0.39,1.12,0.79,1.62,1.2 c0.5,0.41,0.97,0.84,1.39,1.27c1.26,1.31,2.16,2.73,2.61,4.22c0.16,0.49,0.26,1,0.31,1.51C61.99,33.48,62,33.74,62,34 s-0.01,0.52-0.04,0.77C61.91,35.28,61.81,35.79,61.65,36.28z"/></svg>