<svg xmlns="http://www.w3.org/2000/svg" xmlns:xlink="http://www.w3.org/1999/xlink" width="776.82" height="511.893" viewBox="0 0 776.82 511.893"><path fill="#3f3d56" d="M643.96482,85.21997l-36.60999-27.26001-20.17999-8.67999-2.38-11.57001c5.98999-3.69995,9.67999-10.27997,9.67999-17.33997,0-11.22998-9.13-20.37-20.37-20.37-11.22998,0-20.37,9.14001-20.37,20.37,0,7.58997,4.28998,14.60999,11,18.09998l-1.92999,11.72003-15.67999,7.57001h-.97003l-1.79999,1.33997-2.56,1.22998,.08997,.61005-78.26996,16.85999,9.08997,11.57001,72.07001-7.31,1.07001,58.94,6.09998,138.71997-.75995,22.52002,19.35999,.81-2.25-23.29999,10.14001-115.66003,15.12,116.42004,.75,21.06h17.97998l-3.81-163.21002-.35999-8.65002-.10004-2.31995-1.94995,1.27997,.09998,2.33002,.31,7.35999-3.59003,73.90002v.06995l7.23004,87.24005h-13.88l-.67999-19.17004-17.89001-130.37-11.37,129.64001-.01001,.09003,2.04999,21.19-15.08002-.63,.68005-20.56-6.09003-138.86005-1.13-62.50995-73.57001,8.29999-6.69-8.51001,77.58002-16.35004-.03998-.33997,1.32001-.63,1.5-1.09998h.76996l17.02002-8.22003,2.16998-13.15997,.78003-.78003-1.28003-.60999c-6.39996-3.02002-10.53998-9.53998-10.53998-16.62,0-10.13,8.23999-18.37,18.37-18.37s18.37,8.23999,18.37,18.37c0,6.58997-3.56,12.70996-9.28998,15.97998l-.63,.35999,2.88,14,20.81995,8.92004,36.40002,27.10999,1.81,1.34998,1.14001-.54999,.15997-.97998-1.79999-1.34003Zm-40.08002-8.57001l1.40002,33.40002,.09998,2.40997,1.95001-1.44995-.09998-2.41003-1.17999-28.13,20.64996,13.63,2.25,1.47998,2.09003-1.00995-1.94-1.28003-25.22003-16.64001Zm0,0l1.40002,33.40002,1.95001-1.45001-1.17999-28.13,20.64996,13.63,.45001-.33997h.97003l.97998-.47003-25.22003-16.64001Z"/><path fill="#0bef62" d="M754.46482,198.46997l-119.83997-91.04999-1.02002-1.73999-2.95001-98.29999c-1.88,.03998,5.41998-3.37,12.78998,2.09998l97.20001,72.06c4.72003,3.5,7.75,8.85999,8.32001,14.70001l9.02002,92.62c.72998,7.53003-4.90002,12.73999-3.52002,9.60999Z"/><g><path fill="#3f3d56" d="M722.14786,102.40879l41.14105-36.13513,11.5943-10.18354c1.45338-1.27654-.67531-3.39138-2.12132-2.12132l-41.14105,36.13513-11.5943,10.18354c-1.45338,1.27654,.67531,3.39138,2.12132,2.12132h0Z"/><path fill="#3f3d56" d="M745.70202,59.64192l15.06797-2.88502,7.77702-1.48905c1.4397-.27565,4.92794-1.66133,5.31206,.54791,.34132,1.96305-.47899,4.34613-.80712,6.26924l-1.2922,7.57318-2.62609,15.39066c-.32475,1.90327,2.66527,2.15784,2.9883,.26466,1.50062-8.79463,3.01487-17.58706,4.50187-26.384,.52212-3.0888,.22825-6.98897-3.72672-7.30114-2.00386-.15817-4.15269,.54652-6.10446,.92022l-6.56186,1.25638-15.06797,2.88502c-1.89297,.36244-1.36355,3.31623,.5392,2.95192h0Z"/></g><rect width="2" height="56.216" x="717.66" y="71.199" fill="#3f3d56" transform="translate(100.87422 479.66872) rotate(-39.48749)"/><g><path fill="#f2f2f2" d="M166.43659,392.21001c-.8443-1.42365-4.49683,.10068-5.16833-1.19135-.66913-1.28735,2.72449-3.24887,4.66333-7.7298,.34967-.80807,2.55298-5.90033,.92188-7.47162-3.09174-2.97836-17.23962,9.31259-22.19073,5.29041-1.08661-.88269-1.8457-2.64484-5.13428-5.50583-1.30829-1.13815-2.09937-1.65204-2.86499-1.46085-1.08636,.27127-1.17242,1.72522-2.33734,4.58398-1.74701,4.28729-2.78027,4.02841-3.79816,7.44897-.75562,2.53925-.58301,4.01553-1.47217,4.30313-1.25824,.40701-2.41638-2.28632-4.01099-2.04517-1.6272,.24612-2.61096,3.38205-2.92169,5.72998-.58313,4.40607,1.03497,7.31348,1.93182,10.37064,.97461,3.32236,1.55304,8.37494-.69769,15.52759l-22.27719,62.76614c4.91812-12.87943,19.15842-48.18536,25.14218-61.3053,1.72742-3.78745,3.6347-7.62909,7.55096-9.14526,3.77045-1.45978,8.94867-.58823,15.55029-2.17862,.771-.1857,2.91052-.73007,3.17981-1.98849,.22266-1.04037-1.03583-1.62109-.84247-2.59549,.25934-1.30701,2.73413-1.32306,5.77533-2.83096,2.14447-1.06332,3.48047-2.32785,4.62933-3.41531,.34637-.32785,5.49512-5.26166,4.37115-7.1568h-.00006Z"/><path fill="#f2f2f2" d="M78.79148,425.25274c-.94235,.0036-1.24805,2.23611-2.07593,2.1929-.82492-.04303-.80847-2.2746-2.4483-4.5191-.29572-.40475-2.1593-2.95547-3.40115-2.60825-2.35385,.65808-.4035,11.14828-3.80618,12.41782-.74673,.27863-1.83066,.14276-4.18369,.93134-.9361,.31372-1.41656,.55371-1.54364,.98465-.1803,.61145,.50845,1.07324,1.57544,2.46979,1.60016,2.09445,1.17496,2.52692,2.56009,4.01343,1.02826,1.10352,1.80264,1.44476,1.68723,1.96414-.16327,.73499-1.81934,.52631-2.16107,1.37851-.34869,.86966,.90659,2.25729,1.9693,3.08725,1.99429,1.5575,3.88812,1.6022,5.64737,2.04413,1.91183,.48026,4.55859,1.65421,7.41974,4.82266l24.37836,29.04382c-4.90228-6.12997-18.12189-23.30609-22.83472-30.0285-1.3605-1.94061-2.69568-3.98517-2.30984-6.34479,.37143-2.27176,2.29327-4.56177,3.41748-8.26077,.13132-.43201,.48145-1.63916-.05847-2.13443-.44638-.40945-1.09451,.04068-1.51697-.33539-.56665-.50443,.13953-1.72369,.27689-3.6514,.09686-1.35931-.13831-2.37988-.34055-3.25754-.06097-.26459-.99695-4.21518-2.25137-4.21036v.00009Z"/><path fill="#f2f2f2" d="M97.59111,429.47283l-.56775-5.06818,.2594-.38422c1.20035-1.77667,1.81216-3.51175,1.81949-5.15872,.00122-.26184-.01102-.52371-.02325-.79044-.04895-1.05719-.11011-2.37134,.5751-3.90329,.38422-.85406,1.46344-2.83142,3.08594-2.5867,.43683,.06119,.76721,.26184,1.01804,.49677,.03671-.05872,.07465-.11746,.11502-.18109,.50534-.77087,.90546-1.10123,1.29089-1.41937,.29611-.24472,.60202-.49677,1.08167-1.0939,.21045-.26184,.37442-.49188,.5127-.68521,.41971-.58487,.96786-1.28235,1.93451-1.27011,1.03271,.04895,1.57355,.90302,1.93207,1.46832,.63995,1.00824,.92993,1.73508,1.12204,2.21716,.06976,.17621,.14929,.37442,.18967,.43561,.33282,.48944,3.03824,.0318,4.05746-.13461,2.28937-.38177,4.27039-.71213,5.08655,.73172,.5849,1.03271,.15051,2.39825-1.33008,4.1676-.4613,.55063-.95197,.96909-1.38757,1.29703,.36096,.21536,.68396,.54572,.81494,1.06454h0c.30835,1.22849-.74762,2.45944-3.13733,3.66348-.59344,.30099-1.39246,.70236-2.51205,.89569-.52737,.09055-1.00214,.11258-1.40836,.12482-.00858,.23492-.06363,.48944-.20679,.75128-.41971,.77087-1.29333,1.13794-2.60995,1.04984-1.44876-.07587-2.64175-.35239-3.69406-.59467-.91891-.21045-1.7106-.3891-2.33218-.3475-1.15262,.09299-2.04099,1.01559-3.08347,2.21228l-2.6026,3.04187h-.00003Z"/><path fill="#f2f2f2" d="M100.2248,399.2969l-4.75842,1.83472-.43744-.15347c-2.02304-.71045-3.85654-.86215-5.45151-.45148-.2536,.06525-.50378,.14349-.7587,.22299-1.01019,.31549-2.26587,.70801-3.92151,.43378-.92361-.155-3.11002-.69739-3.28485-2.32889-.05161-.43805,.05869-.80853,.22232-1.11075-.06613-.0206-.13257-.04239-.20435-.06531-.87384-.2933-1.29489-.59653-1.70041-.88867-.31183-.22437-.63324-.45633-1.33249-.76883-.30667-.13715-.57077-.2374-.79285-.32211-.67221-.2576-1.4859-.61096-1.71924-1.5491-.2146-1.01135,.47437-1.75113,.93024-2.24133,.81296-.87476,1.44244-1.33963,1.86005-1.64774,.15274-.11215,.32431-.23938,.37326-.29395,.38901-.44608-.73987-2.94693-1.15936-3.89062-.94998-2.11765-1.77203-3.95007-.5824-5.10577,.85059-.8277,2.28165-.75391,4.36868,.22946,.64963,.30655,1.17886,.67502,1.60657,1.01321,.11676-.40378,.35437-.80005,.82303-1.05829h0c1.11011-.60986,2.56863,.09933,4.33945,2.10547,.44168,.49768,1.03259,1.16876,1.50357,2.2027,.22134,.48715,.36307,.9408,.47797,1.33066,.22943-.0513,.48956-.06259,.77917,.00946,.85211,.21045,1.4288,.9624,1.67752,2.2583,.2941,1.42062,.32922,2.64474,.36179,3.72409,.02951,.94226,.0575,1.75336,.25543,2.34406,.38232,1.09134,1.50006,1.71661,2.92206,2.42148l3.60254,1.74591-.00012,.00003Z"/><path fill="#f2f2f2" d="M97.59111,384.3659l-.56775-5.06818,.2594-.38422c1.20035-1.77667,1.81216-3.51175,1.81949-5.15872,.00122-.26184-.01102-.52371-.02325-.79044-.04895-1.05719-.11011-2.37134,.5751-3.90329,.38422-.85406,1.46344-2.83142,3.08594-2.5867,.43683,.06119,.76721,.26184,1.01804,.49677,.03671-.05872,.07465-.11746,.11502-.18109,.50534-.77087,.90546-1.10123,1.29089-1.41937,.29611-.24472,.60202-.49677,1.08167-1.0939,.21045-.26184,.37442-.49188,.5127-.68521,.41971-.58487,.96786-1.28235,1.93451-1.27011,1.03271,.04895,1.57355,.90302,1.93207,1.46832,.63995,1.00824,.92993,1.73508,1.12204,2.21716,.06976,.17621,.14929,.37442,.18967,.43561,.33282,.48944,3.03824,.0318,4.05746-.13461,2.28937-.38177,4.27039-.71213,5.08655,.73172,.5849,1.03271,.15051,2.39825-1.33008,4.1676-.4613,.55063-.95197,.96909-1.38757,1.29703,.36096,.21536,.68396,.54572,.81494,1.06454h0c.30835,1.22849-.74762,2.45944-3.13733,3.66348-.59344,.30099-1.39246,.70236-2.51205,.89569-.52737,.09055-1.00214,.11258-1.40836,.12482-.00858,.23492-.06363,.48944-.20679,.75128-.41971,.77087-1.29333,1.13794-2.60995,1.04984-1.44876-.07587-2.64175-.35239-3.69406-.59467-.91891-.21045-1.7106-.3891-2.33218-.3475-1.15262,.09299-2.04099,1.01559-3.08347,2.21228l-2.6026,3.04187h-.00003Z"/><path fill="#f2f2f2" d="M102.77674,482.74364l-1.0621-.66565-.25696-1.22604,.25696,1.22604-1.23828,.14194c-.01959-.11502-.08688-.37933-.18842-.79291-.55429-2.26611-2.24408-9.16235-3.65369-20.02304-.9838-7.58145-1.54053-15.37579-1.65555-23.17017-.11502-7.80658,.25452-13.71661,.55063-18.46661,.22391-3.5827,.49557-6.99411,.7623-10.31744,.70969-8.87848,1.379-17.26505,.88098-26.54974-.11011-2.07278-.3414-6.38721-2.862-10.97818-1.46222-2.66257-3.47626-5.02655-5.98709-7.02347l1.56131-1.96265c2.77145,2.20737,4.99963,4.8259,6.62338,7.78214,2.79471,5.09018,3.04678,9.79129,3.16791,12.05005,.50656,9.44867-.17007,17.91602-.88712,26.88013-.26431,3.31107-.53595,6.70779-.75864,10.27582-.29367,4.70599-.65952,10.56458-.54572,18.27084,.11258,7.70135,.66318,15.40027,1.63351,22.88629,1.39246,10.72366,3.0578,17.51712,3.60474,19.74896,.29123,1.1918,.35239,1.44141,.05383,1.91373v-.00003Z"/><path fill="#f2f2f2" d="M83.72767,368.88c-.10278,0-.20679-.00244-.31201-.0098-2.13397-.11502-4.11008-1.39246-5.87451-3.79562-.82715-1.13062-1.25052-2.42029-2.09482-4.99231-.13092-.39645-.76721-2.40805-1.15387-5.17584-.2533-1.8085-.22147-2.56467,.13705-3.23276,.39767-.74396,1.04129-1.26276,1.76566-1.6127-.0318-.23984-.00613-.487,.0979-.73907,.42703-1.04495,1.56253-.9079,2.17679-.84183,.31079,.03915,.69867,.09055,1.11716,.06851,.65829-.0318,1.01193-.2276,1.54785-.52127,.5127-.28143,1.15018-.63138,2.09604-.82471,1.86478-.3891,3.42731,.1395,3.94244,.31323,2.71027,.90302,4.04645,3.01007,5.59308,5.44992,.30835,.48944,1.36676,2.271,2.06543,4.71332,.50412,1.76199,.43317,2.5451,.28143,3.12753-.30835,1.19669-1.03638,1.8819-2.88525,3.39429-1.93085,1.58334-2.89993,2.37625-3.73199,2.85834-1.93695,1.11838-3.15323,1.82071-4.76837,1.82071v.00006Z"/></g><path fill="#e6e6e6" d="M583.04004,481.83333h0c0,.46393-.3761,.84003-.84003,.84003H0v-1.68005H582.20001c.46393,0,.84003,.3761,.84003,.84003Z"/><g><path fill="#2f2e41" d="M264.59117,261.98799h.00005c28.5682,0,51.76195,23.19375,51.76195,51.76195v17.04364h-51.762v-68.80558h0Z"/><circle cx="284.791" cy="284.082" r="25.881" fill="#ffb6b6"/><path fill="#2f2e41" d="M302.15018,416.32711l-23.98727-13.88737s-32.82468-32.87936-33.77155-17.35921-20.83105,69.93138,24.4607,78.36371c45.29175,8.43232,73.69772-7.98002,73.69772-7.98002l-13.25612-25.24975-27.14349-13.88737Z"/><g><polygon fill="#ffb6b6" points="215.966 365.129 202.539 388.794 217.113 447.325 228.222 443.711 229.329 390.66 236.127 376.989 215.966 365.129"/><path fill="#0bef62" d="M281.63803,334.08118s-20.16026-11.86008-29.60296-6.76176c-9.4427,5.09832-40.0844,42.72064-40.0844,42.72064l26.47745,18.32377,43.20991-54.28265Z"/></g><polygon fill="#ffb6b6" points="270.558 464.298 231.556 461.171 229.863 482.923 274.298 482.262 270.558 464.298"/><path fill="#0bef62" d="M298.99396,310.90939l-26.51224,3.15622-3.78746,13.25612-18.93732,6.31244,10.73115,68.17434s30.29971,4.41871,41.6621,20.1998c11.36239,15.7811,31.56219,18.30607,31.56219,18.30607v-50.1143l-1.26249-66.66581-26.51224-4.41871-6.94368-8.20617Z"/><path fill="#2f2e41" d="M325.50621,440.94562s44.18707-3.78746,53.02448,5.04995,11.99363,25.24975,1.26249,32.82468-39.76836,5.68119-39.76836,5.68119l-5.68119-31.56219-8.83741-11.99363Z"/><polygon fill="#2f2e41" points="346.337 449.783 265.538 461.777 264.725 484.712 340.025 484.501 346.337 449.783"/><polygon fill="#ffb6b6" points="355.175 383.502 351.072 405.912 308.778 451.361 301.519 442.208 329.925 397.39 331.819 382.24 355.175 383.502"/><path fill="#2f2e41" d="M258.41623,466.22688s-15.70701,1.52735-17.22529,5.48032,.53251,11.99842,.53251,11.99842l-49.36949-5.85677c-3.56985-.4235-5.72734-4.21486-4.20198-7.47009,3.20396-6.8375,10.59571-16.21931,26.7643-14.50903,24.99169,2.64357,36.56245-2.2869,36.56245-2.2869l13.1722,9.90789-6.2347,2.73615Z"/><path fill="#0bef62" d="M317.61566,321.32491s23.35602,1.26249,28.40597,10.73115c5.04995,9.46866,9.78428,57.75881,9.78428,57.75881l-32.19344,.63124-5.99682-69.1212Z"/><polygon fill="#ffb6b6" points="263.329 430.53 270.272 469.036 291.735 465.114 279.741 422.324 263.329 430.53"/><path fill="#2f2e41" d="M294.57526,459.88294l-29.03722,.63124,1.89373,32.82468s-.63124,18.29116,15.14985,18.29862,22.09354,1.26994,22.09354-1.88628-3.15622-21.73318-3.15622-21.73318l-6.94368-19.92892v-8.20617Z"/><path fill="#2f2e41" d="M282.58162,433.3707l-23.98727,5.04995c-15.70493-34.50377-25.27753-67.69613-26.51224-99.10529,0,0-2.52498-19.56856,17.04358-20.1998s22.09354,28.40597,22.09354,28.40597l11.36239,85.84917Z"/><ellipse cx="299.296" cy="453.447" fill="#ffb6b6" rx="15.069" ry="9.308" transform="translate(-227.85701 321.90882) rotate(-42.56271)"/><ellipse cx="224.177" cy="451.553" fill="#ffb6b6" rx="9.308" ry="15.069" transform="translate(-59.52229 34.81552) rotate(-7.8431)"/><path fill="#2f2e41" d="M334.33965,305.01952c-1.31647-4.00284-3.91522-7.50723-5.07796-11.55742-1.54386-5.37763-4.83076,6.55243-5.15143,.96678-.60951-10.61668-16.81288-37.92626-26.06316-43.17205-9.25028-5.24583-14.56315-3.66417-23.98727,1.26249,0,0-4.57463,.29093-10.26981,3.10267s-10.82161,7.31486-13.03674,13.26749c-1.7558,4.7183-1.56147,9.89986-2.14813,14.89992-1.63436,13.92994-9.44292,27.17801-7.76691,41.10298,.52286,4.3445,2.17418,8.83707,5.72639,11.39244,3.55221,2.55534,9.29104,2.27736,11.62924-1.42142,.79788-1.26218,1.13531-2.75965,1.81906-4.08713,.6838-1.32748,1.91931-2.56501,3.41201-2.5237,2.2436,.06211,3.38562,3.07261,2.5009,5.13537s-2.96377,3.30817-4.91583,4.41597c4.6491,2.0915,10.41629,1.44022,14.48185-1.63548,4.06552-3.0757,6.26097-8.44832,5.51283-13.49099-1.05424-7.10612-11.4065-5.63531-12.62603-12.71492-.88773-5.15371-4.00542-13.77714-3.15622-18.93732,.8492-5.16022,4.92762,1.08784,.63124-1.89373,4.72678,2.27867,14.83731-13.30983,19.78567-15.05584,4.94831-1.74601,9.14394-5.5267,11.39402-10.26715,5.24845,7.60821,9.86523,5.54211,11.7449,14.59185,1.87967,9.04974,.14171,29.60975-7.598,34.66228,3.09743,2.11334,5.56661,5.13552,7.01993,8.59211,.82334,1.95819,1.35711,4.10081,2.72366,5.72716,2.60993,3.10617,7.4291,3.29511,11.27027,1.98909,4.76288-1.61941,8.83514-5.17625,11.08048-9.67806s2.63675-9.89451,1.06507-14.67338Z"/></g><path fill="#3f3d56" d="M643.96482,85.21997l-.15997,.97003-1.15002,.54999,1.81,1.34998,1.14001-.54999,.15997-.97998-1.79999-1.34003Zm-15.83997,8.54004h-.97003l-.45001,.33997-1.34998,1-2.56,1.22998,.08997,.61005-15.64996,11.65997-1.95001,1.45001-46.66998,34.75,9.08997,11.57001,9.85004-6.5,28.60999-18.87-.09998-2.33002-37.92004,25.02002-6.69-8.51001,43.92999-32.72003,1.95001-1.44995,17.70001-13.18005-.03998-.33997,1.32001-.63,1.5-1.09998h.76996l.37-.18005,2.09003-1.00995-1.94-1.28003-.97998,.47003Zm105,74.53998l-44.77002-74.34003-20.17999-8.67999-2.38-11.57001c5.98999-3.69995,9.67999-10.27997,9.67999-17.33997,0-11.22998-9.13-20.37-20.37-20.37-11.22998,0-20.37,9.14001-20.37,20.37,0,7.58997,4.28998,14.60999,11,18.09998l-1.77002,10.75-.15997,.97003-1.15002,.54999-13.54999,6.54999-.97998,.47003h-.97003l-.45001,.33997-1.34998,1-2.56,1.22998,.08997,.61005-15.64996,11.65997-1.95001,1.45001-46.66998,34.75,9.08997,11.57001,9.85004-6.5,28.60999-18.87,1.95001-1.29004,17.65997-11.64996,1.07001,58.94,6.09998,138.71997-.75995,22.52002,19.35999,.81-2.25-23.29999,10.14001-115.66003,15.12,116.42004,.75,21.06h17.97998l-3.81-163.21002-2.41998-57.89001,36.96997,63.40002,9.10004-11.57001Zm-48.24005-55.65002l2.59003,61.71002-3.59003,73.90002v.06995l7.23004,87.24005h-13.88l-.67999-19.17004-5.02002-66.00995-12.87-64.36005-11.37,129.64001-.01001,.09003,2.04999,21.19-15.08002-.63,.68005-20.56v-68.25l-6.09003-70.61005-1.13-62.50995-19.70001,13-1.94995,1.27997-37.92004,25.02002-6.69-8.51001,43.92999-32.72003,1.95001-1.44995,17.70001-13.18005-.03998-.33997,1.32001-.63,1.5-1.09998h.76996l.37-.18005,2.09003-1.00995,13.41998-6.48004,1.14001-.54999,.15997-.97998,2.01001-12.17999,.78003-.78003-1.28003-.60999c-6.39996-3.02002-10.53998-9.53998-10.53998-16.62,0-10.13,8.23999-18.37,18.37-18.37s18.37,8.23999,18.37,18.37c0,6.58997-3.56,12.70996-9.28998,15.97998l-.63,.35999,2.88,14,20.81995,8.92004,43.03003,73.04999-6.69,8.51001-38.71002-64.54004Zm-55.77997-19.35999l-.97998,.47003h-.97003l-.45001,.33997-1.34998,1-2.56,1.22998,.08997,.61005-15.64996,11.65997-1.95001,1.45001,.09998,2.40997,1.95001-1.44995,17.70001-13.18005-.03998-.33997,1.32001-.63,1.5-1.09998h.76996l.37-.18005,2.09003-1.00995-1.94-1.28003Z"/></svg>