<svg xmlns="http://www.w3.org/2000/svg" xmlns:xlink="http://www.w3.org/1999/xlink" width="890" height="641" data-name="Layer 1" viewBox="0 0 890 641"><path id="e17a72e2-051a-4020-aba1-9f6eb9c0d39e-260" fill="#f1f1f1" d="M633.92226,746.82993a76.67275,76.67275,0,0,1-3.58207,21.19472c-.04841.15925-.10214.3161-.15442.47535H616.81932c.014-.14279.02855-.30207.0426-.47535.89116-10.2457-4.20022-71.86071-10.344-82.52465C607.05623,686.36505,634.95863,714.2747,633.92226,746.82993Z" data-name="Path 133" transform="translate(-155 -129.5)"/><path id="eeb1bfad-c599-4325-99ca-33d947eaa4a4-261" fill="#f1f1f1" d="M632.91925,768.02465c-.11181.15925-.228.31853-.34708.47535H622.54431c.076-.13555.16409-.2948.26622-.47535,1.65647-2.98959,6.55955-11.92831,11.11072-21.19472,4.889-9.95816,9.37825-20.29389,9.00019-24.03472C643.0386,723.63843,646.42316,749.35868,632.91925,768.02465Z" data-name="Path 134" transform="translate(-155 -129.5)"/><path id="ae98919c-3cd0-4dbe-b2ac-5e07dd542ed3-262" fill="#f1f1f1" d="M991.11346,754.14032A50.80739,50.80739,0,0,1,988.7398,768.185c-.03208.10553-.06768.20946-.10233.315h-8.85729c.0093-.09462.01893-.20016.02824-.315.59052-6.78932-2.78328-47.61854-6.85443-54.685C973.31067,714.07322,991.80021,732.56757,991.11346,754.14032Z" data-name="Path 133" transform="translate(-155 -129.5)"/><path id="a16e0e44-34bc-470c-a8b9-bb95dad5f0bc-263" fill="#f1f1f1" d="M990.44882,768.185c-.0741.10553-.15109.21107-.23.315h-6.645c.05037-.08982.10874-.19535.17642-.315,1.09766-1.981,4.34669-7.9043,7.36252-14.04469,3.23973-6.59879,6.2145-13.44776,5.964-15.92662C997.15441,738.77245,999.39719,755.816,990.44882,768.185Z" data-name="Path 134" transform="translate(-155 -129.5)"/><path id="a04afbcd-fd0f-46da-9369-89d0f07bdf03-264" fill="#f1f1f1" d="M564.11346,754.14032A50.80739,50.80739,0,0,1,561.7398,768.185c-.03208.10553-.06768.20946-.10233.315h-8.85729c.0093-.09462.01893-.20016.02824-.315.59052-6.78932-2.78328-47.61854-6.85443-54.685C546.31067,714.07322,564.80021,732.56757,564.11346,754.14032Z" data-name="Path 133" transform="translate(-155 -129.5)"/><path id="a6089e43-5613-4c9c-8352-b83c87f66fb2-265" fill="#f1f1f1" d="M563.44882,768.185c-.0741.10553-.15109.21107-.23.315h-6.645c.05037-.08982.10874-.19535.17642-.315,1.09766-1.981,4.34669-7.9043,7.36252-14.04469,3.23973-6.59879,6.2145-13.44776,5.964-15.92662C570.15441,738.77245,572.39719,755.816,563.44882,768.185Z" data-name="Path 134" transform="translate(-155 -129.5)"/><path fill="#fff" d="M373.47345,129.5l-99.2507,163.458L561.116,467.15784l99.2507-163.458Z" transform="translate(-155 -129.5)"/><path fill="#e5e5e5" d="M373.47345,129.5l-99.2507,163.458L561.116,467.15784l99.2507-163.458ZM559.25332,459.53647,281.84413,291.09529l93.492-153.97392L652.74535,305.56255Z" transform="translate(-155 -129.5)"/><rect width="5.548" height="329.166" x="479.582" y="108.051" fill="#e5e5e5" transform="matrix(0.51901, -0.85477, 0.85477, 0.51901, -156.03068, 413.93648)"/><rect width="5.548" height="329.166" x="440.102" y="173.07" fill="#e5e5e5" transform="translate(-230.59629 411.46444) rotate(-58.73413)"/><rect width="191.231" height="5.548" x="308.847" y="257.404" fill="#e5e5e5" transform="translate(-182.8491 341.36473) rotate(-58.73413)"/><polygon fill="#e5e5e5" points="455.575 143.967 356.325 307.425 351.386 304.87 450.833 141.087 455.575 143.967"/><polygon fill="#e5e5e5" points="358.537 308.768 356.325 307.425 351.386 304.87 351.203 304.315 348.503 296.185 328.53 236.083 325.83 227.953 291.49 124.599 288.789 116.469 279.082 87.242 276.787 80.332 260.786 32.182 258.085 24.052 265.42 28.505 268.12 36.635 280.569 74.104 282.863 81.014 296.124 120.923 298.824 129.053 333.164 232.407 335.865 240.537 355.172 298.634 355.837 300.639 357.467 305.544 358.537 308.768"/><path fill="#3f3d56" d="M502.45261,384.40067h-2.76478V308.66049a43.83635,43.83635,0,0,0-43.83631-43.83639H295.38562a43.83634,43.83634,0,0,0-43.83643,43.83626V724.177a43.83635,43.83635,0,0,0,43.83631,43.83639H455.85131a43.83636,43.83636,0,0,0,43.83648-43.83622V438.31383h2.76482Z" transform="translate(-155 -129.5)"/><path fill="#fff" d="M457.62017,276.22881h-20.9461a15.55305,15.55305,0,0,1-14.4,21.427H330.34525a15.553,15.553,0,0,1-14.4-21.427H296.38154A32.73651,32.73651,0,0,0,263.645,308.96524v414.907a32.7365,32.7365,0,0,0,32.73648,32.73652H457.62017a32.7365,32.7365,0,0,0,32.73652-32.73648h0v-414.907A32.73647,32.73647,0,0,0,457.62017,276.22881Z" transform="translate(-155 -129.5)"/><rect width="69.09" height="16.672" x="187.456" y="262.965" fill="#0bef62" style="isolation:isolate"/><rect width="75.669" height="16.672" x="184.167" y="334.604" fill="#e5e5e5"/><rect width="168.885" height="16.672" x="137.558" y="370.418" fill="#e5e5e5"/><rect width="168.885" height="16.672" x="137.558" y="406.232" fill="#e5e5e5"/><rect width="69.09" height="25.262" x="187.456" y="485.61" fill="#0bef62"/><circle cx="373.696" cy="129.409" r="7.645" fill="#0bef62"/><path fill="#ffb7b7" d="M720.56886,577.68284a9.27637,9.27637,0,0,0,3.04837-13.89368l10.53039-18.39752-9.61935-9.12609-14.50605,26.18971a9.32662,9.32662,0,0,0,10.54664,15.22758Z" transform="translate(-155 -129.5)"/><polygon fill="#ffb7b7" points="624.771 626.538 611.408 626.538 605.05 574.995 624.773 574.996 624.771 626.538"/><path fill="#2f2e41" d="M783.17844,768.99177l-43.08791-.0016v-.545a16.77191,16.77191,0,0,1,16.771-16.77075h.00106l26.31663.00107Z" transform="translate(-155 -129.5)"/><polygon fill="#ffb7b7" points="737.616 609.36 725.831 615.661 695.921 573.205 713.314 563.906 737.616 609.36"/><path fill="#2f2e41" d="M901.72879,748.67625l-37.998,20.31552-.257-.4806a16.77193,16.77193,0,0,1,6.88179-22.69727l.00094-.0005,23.20792-12.408Z" transform="translate(-155 -129.5)"/><path fill="#2f2e41" d="M829.58223,552.9255l2.992,61.76308s6.90331,2.59168,4.488,12.60907c0,0-3.38756,11.5405,4.27426,11.5405s37.64761,71.30934,37.64761,71.30934l-19.596,9.92864L807.91588,645.35,793.2842,595.44554l-7.8384,56.69777-.52256,87.52882-25.60545-2.87408L752.002,635.68267l-3.39664-77.07762Z" transform="translate(-155 -129.5)"/><polygon fill="#3f3d56" points="585.464 443.301 591.774 397.518 613.633 290.496 655.176 292.847 675.01 331.101 671.564 405.72 679.498 435.18 585.464 443.301"/><path fill="#3f3d56" d="M756.48286,507.74024l-24.95122,47.4975-3.908,9.31913L716.20017,551.0291,731.85992,495.698s14.16834-68.6046,36.6928-75.58768L774,421Z" transform="translate(-155 -129.5)"/><path fill="#ffb7b7" d="M815.96008,564.06676a9.27639,9.27639,0,0,0,5.11982-13.27082l13.19824-16.58806-8.12433-10.47916-18.30946,23.68735a9.32662,9.32662,0,0,0,8.11573,16.65069Z" transform="translate(-155 -129.5)"/><path fill="#3f3d56" d="M802.43209,429.12887l7.36512-7.06451s8.65176,3.21934,14.88055,19.84073,26.49948,61.62651,26.49948,61.62651l-19.84072,40.28269-13.37747-8.86821,7.21481-35.47281Z" transform="translate(-155 -129.5)"/><circle cx="630.464" cy="263.824" r="22.013" fill="#ffb7b7"/><path fill="#2f2e41" d="M806.16775,375.72575l1.06717-2.14791-5.36978-2.66794s-5.92372-9.63854-16.64292-6.9299-15.54193,4.3297-15.54193,4.3297l-5.35619,2.69506,2.68825,2.67472-4.82262,1.62112,3.22185,1.60076-3.74871,2.15468,2.018,11.04564s3.35177-8.37769,9.79546-5.17618,18.23018-1.655,18.23018-1.655l10.23986,19.81736s2.11248-6.947,5.87892-5.09459C807.82536,397.99332,817.44762,382.66917,806.16775,375.72575Z" transform="translate(-155 -129.5)"/><path fill="#cbcbcb" d="M1044,770.5H156a1,1,0,0,1,0-2h888a1,1,0,0,1,0,2Z" transform="translate(-155 -129.5)"/></svg>