<svg xmlns="http://www.w3.org/2000/svg" xmlns:xlink="http://www.w3.org/1999/xlink" width="692.831" height="707.664" data-name="Layer 1" viewBox="0 0 692.831 707.664"><path fill="#ffb6b6" d="M687.4405,265.95906a12.139,12.139,0,0,0-17.1969,7.12272l-77.146,44.80071,11.526,15.87307,74.35989-45.08034a12.20472,12.20472,0,0,0,8.457-22.71616Z" transform="translate(-253.58457 -96.16811)"/><path fill="#2f2e41" d="M602.73946,301.94626l-11.20752,7.61185-5.98942,4.07116-3.90908,2.65117a13.9879,13.9879,0,0,0-4.49121,3.41545,14.12123,14.12123,0,0,0,16.67993,22.05873l24.45457-7.61895a5.08492,5.08492,0,0,0,3.13582-2.8273c.59541-1.36444,7.61971-6.47123,6.97816-7.81011l3.0139-2.14349,4.50652-2.41441,16.4161-11.70581h0l-4.63777-9.54361h0l.16386-12.83114c-.642-1.32121-39.50745,16.75128-40.93,16.38431A5.05886,5.05886,0,0,0,602.73946,301.94626Z" transform="translate(-253.58457 -96.16811)"/><path fill="#e6e7e8" d="M559.22405,301.985c-5.67258-9.382-12.39436-19.39912-22.9212-22.46262-12.19082-3.5477-24.71384,3.5-35.33625,10.45451a1029.70009,1029.70009,0,0,0-91.63688,67.51692l.032.36419q34.19041-2.35784,68.38075-4.71563c16.46839-1.13569,33.50255-2.428,48.056-10.21861,5.52256-2.95623,10.90586-6.90515,17.16383-7.18032,7.77494-.34184,14.5542,5.08818,19.88175,10.76129,31.51421,33.55834,40.63379,84.87708,75.98957,114.3606A1122.034,1122.034,0,0,0,559.22405,301.985Z" transform="translate(-253.58457 -96.16811)"/><path fill="#e6e7e8" d="M752.93726,586.62064c-3.485-4.40057-4.90894-5.43118-8.34655-9.87247Q702.60532,522.44625,665.66494,464.476q-25.09131-39.37125-47.69422-80.25452-10.76081-19.43641-20.93161-39.178-7.89231-15.30706-15.43236-30.79721c-1.43755-2.94956-2.83438-5.91265-4.22426-8.88253-3.275-6.98395-6.48919-14.0018-9.94038-20.89085-3.93258-7.85184-8.71968-16.08342-15.94122-21.35871a21.74927,21.74927,0,0,0-11.33026-4.35988c-5.87868-.37971-11.30311,2.04774-16.40209,4.69891A527.99339,527.99339,0,0,0,419.94514,335.049a540.515,540.515,0,0,0-84.3502,93.63247c-.7456,1.06455-2.5086.04747-1.75606-1.02383q4.44477-6.28562,9.06567-12.43553a543.50224,543.50224,0,0,1,138.75676-129.427q13.49718-8.74687,27.50191-16.67337c4.70566-2.66474,9.43184-5.2956,14.23914-7.76368,4.71261-2.42066,9.71657-4.59723,15.10028-4.67859,18.321-.28477,27.80717,20.46367,34.32318,34.42482q3.07161,6.59067,6.2177,13.14069,11.88963,24.86759,24.69468,49.281,7.90275,15.07316,16.15147,29.97,25.67087,46.38906,54.56978,90.89994c25.52205,39.30678,50.84049,74.02995,79.91537,110.78724C755.175,586.20025,753.74444,587.65129,752.93726,586.62064Z" transform="translate(-253.58457 -96.16811)"/><path fill="#e6e7e8" d="M418.13446,324.80363c-1.06443-1.1866-2.12223-2.37319-3.19361-3.55979-8.44853-9.3436-17.51386-18.5787-29.11561-23.93534a42.24116,42.24116,0,0,0-17.69728-4.10222,50.50447,50.50447,0,0,0-18.375,4.00732c-2.76651,1.10524-5.47211,2.35962-8.13665,3.69537-3.04462,1.53241-6.03495,3.16654-9.01137,4.81421q-8.381,4.63788-16.54445,9.68259-16.243,10.03858-31.4686,21.60958-7.89281,6.00081-15.45983,12.39485-7.03814,5.93972-13.79152,12.19819c-.96278.88825-2.40034-.54923-1.43755-1.43748,1.18659-1.10523,2.38676-2.20367,3.58693-3.28854q5.08541-4.59723,10.3337-9.01815,9.5704-8.07564,19.63643-15.52742,15.653-11.59474,32.3837-21.61637,8.36063-5.004,16.95136-9.58769c1.72923-.92215,3.47867-1.824,5.24829-2.67833a83.66555,83.66555,0,0,1,12.47613-5.07862,44.38341,44.38341,0,0,1,18.84316-1.85107,49.05834,49.05834,0,0,1,17.3854,6.01434c11.39117,6.36694,20.22607,16.21225,28.82392,25.82031C420.4401,324.33577,419.00917,325.78,418.13446,324.80363Z" transform="translate(-253.58457 -96.16811)"/><path fill="#e6e7e8" d="M651.53657,421.62806l27.29624-9.98373,13.55268-4.957a138.59726,138.59726,0,0,1,13.38006-4.60824,21.10847,21.10847,0,0,1,12.11058.1543,27.91224,27.91224,0,0,1,9.446,5.85551,76.65829,76.65829,0,0,1,7.74767,8.274c2.95067,3.546,5.85775,7.12925,8.77787,10.70046Q761.92552,449.172,779.767,471.47252q17.84106,22.30017,35.44355,44.78981,17.64552,22.54462,35.04834,45.27779,2.13187,2.7849,4.2601,5.57259c.78387,1.02669,2.55139.01451,1.75644-1.02668q-17.5312-22.96178-35.30679-45.73557-17.81931-22.82821-35.88487-45.46279-18.0652-22.63413-36.37456-45.072-4.56143-5.58994-9.13788-11.16757c-2.57362-3.13662-5.11821-6.30707-7.941-9.2265-5.18149-5.35883-11.65509-10.0946-19.40407-10.2231-4.556-.07555-8.96522,1.37018-13.19822,2.90153-4.56336,1.65086-9.11577,3.33262-13.67328,4.99955l-27.48713,10.05354-6.87178,2.51339c-1.21949.446-.69268,2.41263.54076,1.9615Z" transform="translate(-253.58457 -96.16811)"/><path fill="#e6e7e8" d="M382.23313,309.0656c-13.87135-7.12917-31.63555-5.73287-44.38234,3.17395a633.02133,633.02133,0,0,1,72.01946,16.809C400.04587,323.29121,392.36086,314.27078,382.23313,309.0656Z" transform="translate(-253.58457 -96.16811)"/><path fill="#e6e7e8" d="M337.71426,312.215l-2.67042,2.17057c.90328-.75971,1.84231-1.472,2.807-2.146C337.80523,312.23169,337.75983,312.22288,337.71426,312.215Z" transform="translate(-253.58457 -96.16811)"/><path fill="#e6e7e8" d="M726.29429,421.72779c-2.687-3.27075-5.592-6.69541-9.61108-8.02391l-3.75227.148A425.61737,425.61737,0,0,0,826.294,543.45254Q776.29416,482.59019,726.29429,421.72779Z" transform="translate(-253.58457 -96.16811)"/><path fill="#e6e7e8" d="M457.33025,533.43934a50.73369,50.73369,0,0,0,52.75659.70959q.95122-4.55575,1.90252-9.11151c3.73291,3.87726,11.07343,3.14551,13.96741-1.39245a237.31462,237.31462,0,0,0-65.01916-83.26716c7.98822,4.96961,19.52282,3.1,25.53222-4.13848A100.64888,100.64888,0,0,0,511.88408,423.406c-26.81958-43.09009-77.9607-77.32239-90.11646-126.6-36.56976,39.27167-40.675,53.10278-77.24477,92.37445,0,0-34.6274,31.24629-42.10146,48.03858,1.83643,1.929,18.27757,6.55817,18.90965,10.351a43.914,43.914,0,0,0,34.26068-12.738c-23.50555,24.9812-47.41241,50.54687-61.80737,81.68139-1.29627,2.80371-2.52741,6.00513-1.44147,8.89679.867,2.30866,3.97723,3.63977,5.98041,2.72248a25.645,25.645,0,0,0-5.657,8.10046,22.0286,22.0286,0,0,0,27.17536-2.73694q-3.00752,5.61887-6.015,11.23767a55.35751,55.35751,0,0,0,42.3451-1.83142c-15.88227,9.96381-55.59517,44.50795-64.246,61.14192-3.91895,7.53546,36.31984,16.619,45.37056,16.24645,9.05066-.3725,17.51056-4.34937,25.68494-8.25238a19.00227,19.00227,0,0,0,2.04913,10.81219A34.57656,34.57656,0,0,0,391.512,618.5694c-.4878,10.08057,16.88617,14.07038,20.84515,4.78693-1.48535,5.4574,5.73639,8.83624,11.30524,9.82483,15.88977,2.82062,35.06476,4.53552,45.40429-7.85535,11.90033,11.99958,33.70807,11.77179,45.53962-.18585-1.16443,2.063.61779,5.53467,3.25421,6.08167,3.107.64459,6.1297-1.20154,8.76758-2.96509q17.91247-11.97546,35.825-23.95093Q509.8917,568.87251,457.33025,533.43934Z" transform="translate(-253.58457 -96.16811)"/><rect width="15.836" height="130.644" x="147.683" y="506.793" fill="#e6e7e8"/><path fill="#e6e7e8" d="M879.069,593.97184c-52.39,123.35-174.65,209.86005-317.12,209.86005-115.4,0-217.55-56.76-280.04-143.9,12.68-3.59,25.47-5.21,38.6-2.65,31.49,6.15,54.46,35.11,85.67,42.56,26.98,6.44,55.12-4.42005,78.99-18.54,23.88-14.13,45.98-31.86,72.08-41.27,17.31-6.24,42.6-4.51,46.84,13.4,1.93,8.17-.58,19.17,6.82,23.15q87.97494-31.725,175.94995-63.46c19.01-6.85,38.09-13.73,57.86005-17.94C855.959,592.79185,868.089,591.42185,879.069,593.97184Z" transform="translate(-253.58457 -96.16811)"/><path fill="#3f3d56" d="M851.0152,390.36978c18.11284,11.72064,42.95519,12.0548,61.37671.82554q1.10665-5.30014,2.21339-10.60028c4.34285,4.51078,12.88276,3.65946,16.2496-1.62A276.09026,276.09026,0,0,0,855.212,282.10254c9.29345,5.78161,22.71274,3.60649,29.704-4.8147a117.09448,117.09448,0,0,0,29.56679-14.93027c-31.20174-50.13076-90.699-89.95643-104.841-147.28569-42.545,45.68843-47.321,61.77947-89.86612,107.4679,0,0-40.28531,36.35175-48.98059,55.88782,2.13649,2.2442,21.264,7.62972,21.99937,12.04223a51.08926,51.08926,0,0,0,39.85868-14.81929c-27.34623,29.063-55.15933,58.806-71.90634,95.02767-1.50807,3.26182-2.94037,6.98633-1.677,10.35047,1.00867,2.68588,4.62709,4.23449,6.95757,3.16731a29.83509,29.83509,0,0,0-6.58137,9.424c9.52316,6.43679,23.56726,5.02232,31.61565-3.18414q-3.49892,6.537-6.99783,13.07384a64.40265,64.40265,0,0,0,49.264-2.13067c-18.47734,11.59184-64.6791,51.78029-74.74341,71.13216-4.55928,8.76671,42.25429,19.33439,52.78384,18.901,10.52949-.43336,20.37169-5.06,29.88171-9.60077a22.10727,22.10727,0,0,0,2.384,12.57885,40.22624,40.22624,0,0,0,30.80858-4.98071c-.5675,11.72767,19.64527,16.36939,24.25113,5.56908-1.72805,6.3491,6.67368,10.28,13.15244,11.43015,18.48607,3.28149,40.79414,5.2766,52.8231-9.13887,13.84478,13.96024,39.21578,13.69524,52.98053-.21622-1.35469,2.40007.71874,6.439,3.78593,7.07538,3.61466.74991,7.13125-1.39786,10.20015-3.44957,13.89284-9.28812-10.84044-25.38563,3.05241-34.67376C893.92189,438.524,891.78164,417.85163,851.0152,390.36978Z" transform="translate(-253.58457 -96.16811)"/><polygon fill="#3f3d56" points="549.415 510.832 532.415 517.832 532.207 375.083 550.63 375.083 549.415 510.832"/><circle cx="43.72" cy="194.991" r="5.647" fill="#e6e7e8"/><circle cx="22.677" cy="325.657" r="5.647" fill="#e6e7e8"/><circle cx="34.553" cy="420.345" r="5.647" fill="#e6e7e8"/><circle cx="484.586" cy="133.658" r="5.647" fill="#e6e7e8"/><circle cx="103.975" cy="352.763" r="5.647" fill="#fff"/><circle cx="192.069" cy="380.73" r="5.647" fill="#fff"/><circle cx="514" cy="270.316" r="5.647" fill="#fff"/><circle cx="541.419" cy="167.54" r="5.647" fill="#e6e7e8"/><circle cx="439.41" cy="264.669" r="5.647" fill="#fff"/><circle cx="186.422" cy="308.716" r="5.647" fill="#fff"/><circle cx="197.716" cy="167.54" r="5.647" fill="#e6e7e8"/><circle cx="374.628" cy="68.152" r="5.647" fill="#e6e7e8"/><circle cx="344.529" cy="287.257" r="5.647" fill="#fff"/><path fill="#e6e7e8" d="M642.161,238.119a5.647,5.647,0,0,1-11.29409,0c0-3.11878,72.95781-141.95091,76.07659-141.95091S642.161,235.00024,642.161,238.119Z" transform="translate(-253.58457 -96.16811)"/><circle cx="92.681" cy="156.246" r="5.647" fill="#e6e7e8"/><circle cx="368.981" cy="451.078" r="5.647" fill="#fff"/><circle cx="450.704" cy="456.725" r="5.647" fill="#e6e7e8"/><circle cx="308.364" cy="352.763" r="5.647" fill="#fff"/><circle cx="541.419" cy="337.474" r="5.647" fill="#e6e7e8"/><circle cx="676.802" cy="406.949" r="16.029" fill="#0bef62"/><circle cx="578.027" cy="418.243" r="16.029" fill="#ff6584"/><circle cx="401.424" cy="386.377" r="16.029" fill="#ff6584"/><circle cx="391.969" cy="281.61" r="16.029" fill="#0bef62"/><circle cx="676.802" cy="275.963" r="16.029" fill="#0bef62"/><circle cx="660.898" cy="166.189" r="16.029" fill="#ff6584"/><circle cx="297.07" cy="412.596" r="5.647" fill="#fff"/><circle cx="98.328" cy="485.413" r="5.647" fill="#fff"/><circle cx="173.471" cy="490.789" r="5.647" fill="#fff"/><circle cx="285.776" cy="506.793" r="5.647" fill="#fff"/><circle cx="262.093" cy="234.175" r="5.647" fill="#fff"/><circle cx="308.364" cy="99.775" r="5.647" fill="#e6e7e8"/><circle cx="136.728" cy="275.963" r="5.647" fill="#fff"/><polygon fill="#ffb6b6" points="350.577 600.147 363.897 600.147 370.236 548.769 350.577 548.769 350.577 600.147"/><polygon fill="#ffb6b6" points="221.032 573.719 232.49 580.513 264.149 539.555 247.24 529.527 221.032 573.719"/><polygon fill="#ffb6b6" points="356.522 271.638 362.995 312.903 301.501 313.713 309.593 274.065 356.522 271.638"/><path fill="#0bef62" d="M616.81671,408.54989l17.56393,42.59632,1.27943,113.913L620.6719,673.82245H604.08477l-6.7959-106.99016-16.71526-73.20684-16.48567,76.56677L512.82835,645.136H487.64l46.30865-82.58555,5.35946-89.96234s-3.34046-38.16434,13.75518-60.68463l4.16122-12.02211Z" transform="translate(-253.58457 -96.16811)"/><path fill="#3f3d56" d="M617.6674,329.80145c-.03525-.37086-.08827-.75939-.15887-1.13015a34.03691,34.03691,0,0,0-38.5479-28.65924A34.75009,34.75009,0,0,0,557.52354,312.002v.01767c-.28249.33551-.5474.68859-.81221,1.04178-.47681.60043-.91826,1.23609-1.342,1.87176a34.06455,34.06455,0,0,0-5.65065,19.53v.01768a33.65235,33.65235,0,0,0,1.11248,7.911,126.72581,126.72581,0,0,1,2.77235,13.72035c.45913,2.93133.81231,5.80962,1.07712,8.61722.159,1.41263.28259,2.8077.38854,4.16731v.01767c.52972,6.72778.70626,12.767.86523,17.44632.0706,2.54279.1413,4.6618.26481,6.28632a1.94444,1.94444,0,0,0,.03535.31784,5.35584,5.35584,0,0,0,1.342,2.93132,2.55437,2.55437,0,0,0,.30016.31784,6.324,6.324,0,0,0,2.75468,1.448,5.438,5.438,0,0,0,1.07713.106h.106l10.29466-4.80309,8.12284-3.77878,27.56444-12.85523a5.54749,5.54749,0,0,0,5.12081-3.70818v-.01767c.03535-.1413.08838-.28259.12362-.44146,1.48334-5.84486,4.1144-12.1135,5.05033-22.19638.12352-1.448.22957-2.94889.28249-4.55585v-.01767A104.1185,104.1185,0,0,0,617.6674,329.80145Z" transform="translate(-253.58457 -96.16811)"/><path fill="#2f2e41" d="M598.75017,304.15748c1.67914-4.41841-1.5736-9.47643-5.85652-11.476s-9.23084-1.74635-13.9484-1.45227l-11.9193.743a10.714,10.714,0,0,1-1.6059,9.66294c-7.03889-1.94211-14.468,3.22035-17.61509,9.80926s-3.06978,14.19685-2.9295,21.4974c.16237,8.45068-6.09628,67.77785,1.47651,71.53193-3.90563.98806-1.84048.43216-4.74664,3.22223s-4.55552,7.19652-3.14641,10.97073.47073,8.018,3.80595,5.75826c-4.236,2.97246-9.20317,71.32787-12.83731,75.01193-1.69955,1.7229-3.4465,3.76877-2.366,6.54532a5.33159,5.33159,0,0,0,2.28192,2.61216c2.77749,1.639,5.95661,1.216,8.98157.78157-5.35243,1.23991-3.0071,2.648-6.33419,7.43494-1.6171,2.32666-3.17726,5.30825-2.13787,7.94416,1.6872,4.27879,6.25469,5.1189,10.33359,5.39444,16.05076,1.08425,57.17284-.13758,73.17246-1.81531a121.78375,121.78375,0,0,1,19.4518-.64111c9.14415.516,9.668-62.22074,6.1892-70.693-2.74687-6.68979-15.406-41.62894-14.26739-48.82415,1.2947-8.18166-.66692-51.11324-2.54583-59.18079-1.7225-7.396-2.09689-18.36387-6.83433-24.29887-6.21839-7.79033-15.70637-11.94694-15.27216-21.90531" transform="translate(-253.58457 -96.16811)"/><circle cx="325.801" cy="172.26" r="26.001" fill="#ffb6b6"/><path fill="#2f2e41" d="M456.79738,686.15142l8.21623,4.87263,6.06689-6.88742-.84424,9.9847,21.584,12.80041a5.87489,5.87489,0,0,0,7.15767-.76329,5.70006,5.70006,0,0,0,1.129-6.39248l-10.27452-22.33874L565.6771,575.94814a6.09081,6.09081,0,0,0-5.88087-9.65415l-37.22462,6.20917Z" transform="translate(-253.58457 -96.16811)"/><path fill="#2f2e41" d="M597.13114,719.39445h9.55243l1.705-9.01869,4.367,9.01869,25.09425,0a5.87489,5.87489,0,0,0,5.76711-4.3076,5.70008,5.70008,0,0,0-2.28965-6.07421l-20.23215-13.973,18.00543-128.36236a5.86468,5.86468,0,0,0-9.28136-5.54l-33.72549,24.791Z" transform="translate(-253.58457 -96.16811)"/><path fill="#2f2e41" d="M630.38044,582.86708c1.34291-3.45965,4.72883-6.23823,7.84155-8.08989,1.3534-.8051,3.1151-1.67658,4.746-1.43212,1.85716.27837,2.32119,2.17454,2.24777,3.78605-.35228,7.73275-8.289,13.19079-13.66965,17.62606l-6.23307,5.13793-3.0221,2.49112-1.69993,1.40125c-1.00532.82869-.08833.09417.01025,1.48278l-.43934,1.06066-.38444.27064c1.888-.39808,1.089-3.2906-.79752-2.89284a1.65263,1.65263,0,0,0-1.167,2.41607,2.72672,2.72672,0,0,0,2.44423,1.18069c1.22-.0615,2.13938-1.13641,3.02177-1.86377l3.9665-3.26959c4.5395-3.74191,9.31531-7.32036,13.54967-11.41189,3.51721-3.39856,6.63691-7.525,7.30513-12.49941.3233-2.4067-.02748-5.0794-2.02369-6.70351a6.64748,6.64748,0,0,0-6.35108-.76169,21.79919,21.79919,0,0,0-7.01423,4.3352,17.27906,17.27906,0,0,0-5.22367,6.93875c-.699,1.80085,2.20057,2.581,2.89284.79751Z" transform="translate(-253.58457 -96.16811)"/><path fill="#2f2e41" d="M636.14614,594.172c3.43871,1.38769,6.1687,4.82874,7.97563,7.96032a7.84436,7.84436,0,0,1,1.36709,4.68363c-.267,1.90131-2.20186,2.36165-3.84374,2.26078-7.7239-.47453-13.07188-8.47585-17.43675-13.917l-5.05457-6.30085-2.4507-3.055-1.37852-1.71841c-.1-.12462-.31605-.51031-.4595-.57281q-.07923.20844-.02851.09951.272-.53325-.9608.47816l-1.06066-.43934-.27435-.38294c.3728,1.8925,3.26493,1.09136,2.89284-.79752a1.64879,1.64879,0,0,0-2.41245-1.16978,2.73846,2.73846,0,0,0-1.19594,2.43831c.05583,1.21538,1.12392,2.15094,1.83756,3.04054l3.21654,4.00963c3.68121,4.58887,7.19582,9.41185,11.23067,13.70026,3.34408,3.55424,7.44538,6.7459,12.40633,7.462,2.40016.34644,5.084.02854,6.72483-1.9538a6.67609,6.67609,0,0,0,.82672-6.34564,21.80345,21.80345,0,0,0-4.25036-7.0662,17.2481,17.2481,0,0,0-6.87384-5.30673c-1.78983-.72229-2.568,2.17835-.79752,2.89284Z" transform="translate(-253.58457 -96.16811)"/><path fill="#2f2e41" d="M558.87863,579.07991c2.3127-2.90242,6.37269-4.546,9.89574-5.38618,1.5318-.3653,3.47314-.67232,4.95713.04694,1.68987.81906,1.56789,2.76736,1.01767,4.28381-2.64018,7.27661-11.84263,10.1221-18.30035,12.75283l-7.48079,3.04751-3.627,1.47757-2.04022.83114c-1.20657.49153-.11238.06358-.432,1.41849l-.7354.8816-.44763.1438c1.92087.18252,2.02-2.81669.1006-2.99907a1.65264,1.65264,0,0,0-1.83383,1.95866,2.72677,2.72677,0,0,0,1.98146,1.8553c1.18289.30477,2.38079-.4474,3.43982-.87882l4.7605-1.93932c5.4482-2.21948,11.07328-4.2125,16.33437-6.85663,4.37-2.19629,8.57748-5.20584,10.69744-9.75525,1.02566-2.20108,1.48712-4.85691.06546-7.002a6.64751,6.64751,0,0,0-5.83571-2.61934,21.79931,21.79931,0,0,0-7.9873,2.0485,17.27915,17.27915,0,0,0-7.05377,5.06728c-1.20383,1.5108,1.33166,3.11938,2.52384,1.62319Z" transform="translate(-253.58457 -96.16811)"/><path fill="#2f2e41" d="M561.0143,591.58924c2.86909,2.3492,4.44987,6.44734,5.24172,9.97506a7.84445,7.84445,0,0,1-.09044,4.87823c-.82138,1.7354-2.80549,1.59838-4.34276,1.0129-7.23173-2.75424-9.95291-11.98555-12.49843-18.48l-2.94773-7.52066-1.42921-3.64638-.80393-2.05109a2.48178,2.48178,0,0,0-.268-.6837q-.13774.17537-.05687.0865.41851-.428-1.05962.17018l-.8816-.7354-.14779-.44729c-.208,1.91762,2.79149,2.01455,2.99907.10059a1.6488,1.6488,0,0,0-1.95436-1.83542,2.73844,2.73844,0,0,0-1.86809,1.97126c-.30883,1.17682.432,2.38811.8482,3.44993l1.87584,4.78587c2.14681,5.47724,4.06484,11.12833,6.63876,16.42413,2.13326,4.38915,5.09738,8.6578,9.61967,10.81941,2.18794,1.04582,4.84464,1.542,7.00154.13854a6.67614,6.67614,0,0,0,2.6798-5.81115,21.80335,21.80335,0,0,0-1.952-8.01163,17.24814,17.24814,0,0,0-4.98057-7.11372c-1.49334-1.22274-3.10041,1.3143-1.62319,2.52385Z" transform="translate(-253.58457 -96.16811)"/><circle cx="433.763" cy="177.922" r="16.029" fill="#0bef62"/><path fill="#ffb6b6" d="M675.06256,252.35673a12.13891,12.13891,0,0,0-15.48976,10.32152l-66.99691,58.9069,14.3846,13.3374,64.20944-58.64108a12.20473,12.20473,0,0,0,3.89263-23.92474Z" transform="translate(-253.58457 -96.16811)"/><path fill="#2f2e41" d="M598.94528,304.082l-9.51918,9.64022-5.08652,5.15508-3.32094,3.35872a13.98765,13.98765,0,0,0-3.74385,4.22135,14.12123,14.12123,0,0,0,20.64,18.40651l22.51353-12.21538a5.08492,5.08492,0,0,0,2.52821-3.38159c.31959-1.454,6.22058-7.82567,5.33162-9.01478l2.54118-2.68712,3.95293-3.24228,13.83527-14.66628h0l-6.4-8.46343h0l-2.3268-12.61946c-.88591-1.1717-35.51036,24.09271-36.97705,24.00849A5.05886,5.05886,0,0,0,598.94528,304.082Z" transform="translate(-253.58457 -96.16811)"/><circle cx="314.011" cy="308.716" r="5.647" fill="#fff"/><circle cx="543.569" cy="68.152" r="5.647" fill="#fff"/><circle cx="297.07" cy="399.018" r="5.647" fill="#fff"/><circle cx="364.228" cy="509.957" r="5.647" fill="#fff"/><circle cx="450.704" cy="572.115" r="5.647" fill="#fff"/><circle cx="313.323" cy="574.458" r="5.647" fill="#fff"/><circle cx="155.6" cy="623.226" r="5.647" fill="#fff"/><circle cx="344.529" cy="352.763" r="5.647" fill="#fff"/><circle cx="305.442" cy="120.468" r="5.647" fill="#0bef62"/><path fill="#0bef62" d="M753.4433,182.93653c20.087,18.47044,50.573,23.63947,76.08763,14.56854a70.09393,70.09393,0,0,0,20.0567-11.07567l-2.35587-1.81774A83.92646,83.92646,0,0,1,810.952,222.40081a81.83778,81.83778,0,0,1-54.648,7.686,83.15755,83.15755,0,0,1-30.04128-12.61936c-1.01652-.69-2.706.48118-2.20349,1.694,9.26069,22.352,19.80861,45.00472,37.50278,62.02534,15.51387,14.92333,36.41824,24.95136,58.32224,22.16178,11.58682-1.47564,22.69186-6.29279,30.92549-14.70625l-2.35586-.30358c5.69336,11.93656,4.30231,26.00951-1.36126,37.686-6.17548,12.73188-17.03347,22.059-29.98664,27.50529-13.7301,5.77294-28.99064,7.28761-43.75031,6.31156a142.46106,142.46106,0,0,1-86.75447-37.61319,1.50692,1.50692,0,0,0-2.35586,1.81774c8.9,18.31675,17.82537,36.67293,28.46967,54.05813,9.9582,16.2646,21.46411,31.698,35.40237,44.782,13.03252,12.23382,28.11,22.44451,44.89414,28.75857a98.37782,98.37782,0,0,0,49.95626,5.32631c16.11507-2.5378,31.72964-9.45657,43.55911-20.83048,1.50124-1.44343,2.92926-2.95828,4.29577-4.52952L888.262,430.5505c-1.25824,14.20784-9.356,26.91178-20.1286,35.93069-12.08111,10.11443-27.63568,15.207-43.08114,17.17554a165.63457,165.63457,0,0,1-47.77-1.332,187.68317,187.68317,0,0,1-44.50033-13.18431,185.01011,185.01011,0,0,1-44.62319-27.60213c-1.47005-1.23276-3.603.87879-2.12132,2.12132a189.73446,189.73446,0,0,0,86.43083,40.8466,174.1105,174.1105,0,0,0,48.85541,2.56754c16.16609-1.57241,32.55826-6.10541,45.7288-15.94364,13.019-9.72505,22.75345-24.13761,24.20955-40.57958a1.51361,1.51361,0,0,0-2.56066-1.06066c-10.62954,12.222-25.29561,20.05894-41.01159,23.54446a93.6744,93.6744,0,0,1-48.63244-2.458c-16.7953-5.35909-32.04617-14.88883-45.20581-26.51981-13.92641-12.3087-25.50579-26.952-35.48962-42.57822-10.67674-16.71072-19.5898-34.461-28.27455-52.2636q-1.62921-3.33966-3.25158-6.68267l-2.35587,1.81774a146.10437,146.10437,0,0,0,84.89275,38.16736c29.11759,2.80138,63.17348-4.49,78.671-31.8573,7.52708-13.29222,9.70948-29.76975,3.00069-43.83523a1.51143,1.51143,0,0,0-2.35587-.30358c-14.35143,14.66487-37.12873,17.45-55.96,10.941-20.83419-7.20127-36.741-24.03541-47.95629-42.468-7.07135-11.62191-12.62163-24.083-17.82-36.63012l-2.20349,1.694a86.65207,86.65207,0,0,0,56.98114,14.28984,85.95349,85.95349,0,0,0,68.09247-48.2219,1.50739,1.50739,0,0,0-2.35586-1.81774c-20.41933,16.15183-50.05994,18.79254-73.65708,8.372a66.72831,66.72831,0,0,1-18.24461-11.86492c-1.4192-1.305-3.5462.81112-2.12132,2.12133Z" transform="translate(-253.58457 -96.16811)"/><g opacity=".35"><path fill="#fff" d="M886.53071,365.35385c9.64171-4.20394-9.91163-6.6512-32.09585-7.45582s-49.02061-.76011-63.19756-3.04875c-13.71114-2.21343-12.70091-6.14907-13.85427-9.71489s-6.42446-7.22205-27.81929-8.0147c-26.66069-.98774-70.62581,2.81434-90.7517.53173-18.78121-2.13011-7.61723-8.81182-35.00344-9.06755-15.63837-.146-35.7849,2.05682-53.18577,2.58843-16.33647.4991-28.42216-.5344-36.90357-1.924s-14.38875-3.15126-23.93413-4.37864c-25.06068-3.2224-74.09133-2.13925-117.853,1.99071s-81.27344,10.89816-102.42889,17.60175-27.00029,13.30375-22.07239,18.90071c3.14674,3.574,11.19915,6.91584,30.73235,8.352,36.53555,2.68621,101.58387-1.9375,139.33712.50645,21.04151,1.36212,30.37641,4.73924,48.83813,6.58716,19.83407,1.98528,48.86934,2.09051,77.39655,2.04341,59.39722-.09807,120.31371-.70829,182.42995-1.82747,25.94486-.46746,53.13-1.0752,80.73761-3.30289s55.76623-6.52591,61.59076-10.5553" transform="translate(-253.58457 -96.16811)"/></g><path fill="#0bef62" d="M601.35309,296.12067c-2.2099-3.15064-6.67462-3.46656-10.52307-3.47846l-22.96253-.07123.00818-.1383c-2.77344-2.59772-7.92377-.2796-8.77191,3.4245-.84814,3.70416,1.62067,7.52728,4.88611,9.4707,3.26544,1.94348,7.166,2.4292,10.94,2.87341-1.33057,5.69947-4.8305,10.653-8.71637,15.02954s-8.23791,8.34907-11.78558,13.004-6.30573,10.19263-6.3335,16.04523c-.02777,5.85266,3.21216,11.96234,8.69495,14.01019,5.48272,2.04779,12.71612-1.36517,13.52453-7.16174.37537-2.69183-.55395-5.38019-.75067-8.09088-.38531-5.30988,2.03052-10.37592,4.38556-15.15052,4.035-8.18066,8.34039-16.68969,15.72028-22.05084,3.21887-2.33838,6.95733-4.01947,9.71332-6.88891C602.13831,304.07788,603.63776,299.37787,601.35309,296.12067Z" transform="translate(-253.58457 -96.16811)"/><path fill="#2f2e41" d="M557.35686,278.25857c-.14207,3.15315-2.11849,5.87194-3.644,8.63241a34.44442,34.44442,0,0,0-.31974,32.13131c2.12232,4.02567,5.06081,7.61831,6.74475,11.84609,1.45892,3.62983,1.78011,8.04465-.10546,11.35187-4.55735-4.385-6.78115-2.06964-11.95638-5.8972,2.03516,5.70355.30024,5.8893,2.34325,11.58674q-13.17507,3.76169-26.35986,7.54354c10.96406-8.47886,14.94024-24.83664,9.08863-37.39127-3.21313-6.89017-8.95644-12.56955-11.0473-19.89044a21.58149,21.58149,0,0,1,29.66451-25.60926C554.72028,271.71793,557.4999,275.15542,557.35686,278.25857Z" transform="translate(-253.58457 -96.16811)"/><path fill="#2f2e41" d="M590.01469,239.28545c-3.49657-7.64008-12.72223-6.08557-21.06377-5.07778s-15.69217,6.886-19.42391,14.414-4.07006,16.4685-1.92084,24.59117c1.446,5.46513,4.10116,10.79758,8.50653,14.34038s25.11474,11.92163,26.8387,4.70686c-2.15511,9.41249-7.76254,14.77166-1.34465,21.98624,3.32414-9.98558,17.38081-19.47,20.70495-29.4556.50037-1.50311-1.55447-19.169-1.05409-20.67212,1.05474-3.16839,2.111-6.34211,2.87314-9.59331.95742-4.08416,1.32587-8.76744-1.21105-12.10826s-8.92786-3.47076-10.2101.52335" transform="translate(-253.58457 -96.16811)"/><path fill="#ff6584" d="M585.82862,271.0823l-1.1114-7.07535c.75531-8.79979-.47766-22.797,5.29747-24.7215l3.53164,3.53165C591.31232,243.56205,587.06332,256.72121,585.82862,271.0823Z" transform="translate(-253.58457 -96.16811)"/><path fill="#0bef62" d="M602.44191,237.91941c3.73654-1.78594,8.64145,1.06275,9.52762,5.10824a2.26872,2.26872,0,0,1,.02076,1.15646,2.66246,2.66246,0,0,1-1.47353,1.35529,249.72193,249.72193,0,0,1-59.98922,22.11818,11.15831,11.15831,0,0,1-5.80786.25546,5.66217,5.66217,0,0,1,.91988-11.0042c-3.70607-1.71584-5.74544-5.85362-6.339-9.89425-1.06759-7.267,1.76573-14.83232,6.79721-20.18332a33.76443,33.76443,0,0,1,19.32457-9.73552,30.96636,30.96636,0,0,1,12.13448.28775c10.407,2.52479,17.918,11.3159,24.68113,19.61894l-2.37111-1.22" transform="translate(-253.58457 -96.16811)"/></svg>