<svg xmlns="http://www.w3.org/2000/svg" xmlns:xlink="http://www.w3.org/1999/xlink" width="710.232" height="530" data-name="Layer 1" viewBox="0 0 710.232 530"><path fill="#f2f2f2" d="M941.46434,547.018H411.24785a13.6672,13.6672,0,0,1-13.65176-13.65176V206.42419a10.01282,10.01282,0,0,1,10.00127-10.00167H944.94172A10.186,10.186,0,0,1,955.1161,206.5971V533.36626A13.66721,13.66721,0,0,1,941.46434,547.018Z" transform="translate(-244.8839 -185)"/><path fill="#fff" d="M922.12246,527.68479H427.97453c-7.24371,0-13.13676-5.51856-13.13676-12.30161V230.67785c0-5.03053,4.36687-9.12339,9.73463-9.12339H925.36329c5.45675,0,9.896,4.16033,9.896,9.27368v284.555C935.25932,522.16623,929.36606,527.68479,922.12246,527.68479Z" transform="translate(-244.8839 -185)"/><path fill="#e6e6e6" d="M954.926,205.64327H397.4045V198.693A13.71279,13.71279,0,0,1,411.106,185H941.22457A13.71273,13.71273,0,0,1,954.926,198.693Z" transform="translate(-244.8839 -185)"/><circle cx="177.421" cy="10.342" r="3.544" fill="#fff"/><circle cx="190.873" cy="10.342" r="3.544" fill="#fff"/><circle cx="204.325" cy="10.342" r="3.544" fill="#fff"/><path fill="#f2f2f2" d="M635.8865,447.65564H900.51425a13.23808,13.23808,0,0,0,13.23807-13.23807V314.82168a13.23807,13.23807,0,0,0-13.23807-13.23807H635.8865a13.23807,13.23807,0,0,0-13.23807,13.23807V434.41757A13.23808,13.23808,0,0,0,635.8865,447.65564Z" transform="translate(-244.8839 -185)"/><path fill="#fff" d="M871.62283,381.23866H660.64112a6.619,6.619,0,1,1,0-13.23807H871.62283a6.619,6.619,0,1,1,0,13.23807Z" transform="translate(-244.8839 -185)"/><path fill="#fff" d="M871.62283,409.36955H660.64112a6.619,6.619,0,1,1,0-13.23807H871.62283a6.619,6.619,0,1,1,0,13.23807Z" transform="translate(-244.8839 -185)"/><path fill="#fff" d="M834.39077,353.10776H660.64112a6.619,6.619,0,1,1,0-13.23807H834.39077a6.619,6.619,0,0,1,0,13.23807Z" transform="translate(-244.8839 -185)"/><path fill="#ffb8b8" d="M505.9326,501.20649a10.05574,10.05574,0,0,1,13.594-7.27737l23.4593-26.95627,4.98283,17.88869-23.04128,22.8556a10.11027,10.11027,0,0,1-18.99481-6.51065Z" transform="translate(-244.8839 -185)"/><circle cx="389.803" cy="165.148" r="24.561" fill="#ffb8b8"/><polygon fill="#ffb8b8" points="360.949 503.221 348.689 503.22 342.857 455.932 360.951 455.933 360.949 503.221"/><path fill="#2f2e41" d="M608.9592,700.10483l-39.53052-.00146v-.5a15.38605,15.38605,0,0,1,15.38648-15.38623h.001l24.1438.001Z" transform="translate(-244.8839 -185)"/><polygon fill="#ffb8b8" points="397.949 516.221 385.689 516.22 383.992 470.062 397.951 468.933 397.949 516.221"/><path fill="#2f2e41" d="M645.9592,713.10483l-39.53052-.00146v-.5a15.38605,15.38605,0,0,1,15.38648-15.38623h.001l24.1438.001Z" transform="translate(-244.8839 -185)"/><path fill="#2f2e41" d="M639.34562,692.59112l-9.54687-1.124a4.51224,4.51224,0,0,1-3.97388-4.4043l-1.78906-124.33887a1.49985,1.49985,0,0,0-2.91357-.47851l-13.24561,37.39941.94727,70.10156a4.49833,4.49833,0,0,1-4.22876,4.55274l-12.46387.52929a4.52692,4.52692,0,0,1-4.74439-3.9248l-6.50976-79.30078-.00415-.04981,9.8772-82.81933,74.1831,5.36719L644.3405,688.64971a4.50657,4.50657,0,0,1-4.46631,3.97266A4.40053,4.40053,0,0,1,639.34562,692.59112Z" transform="translate(-244.8839 -185)"/><path fill="#0bef62" d="M591.06682,516.07549a4.47309,4.47309,0,0,1-2.35474-3.61816s6.6709-41.48437,9.11548-42.26269l-5.34864-44.36329a40.90929,40.90929,0,0,1,8.78052-30.49023,39.01332,39.01332,0,0,1,27.03174-14.48242q1.12134-.10109,2.23047-.1543a39.36853,39.36853,0,0,1,33.134,15.082,40.11988,40.11988,0,0,1,7.21949,36.40625l-2.99976,10.43946v72.95605a4.55528,4.55528,0,0,1-1.86182,3.65332c-9.34106,6.85547-19.897,9.2793-30.15551,9.2793C616.44719,528.52081,598.101,519.84112,591.06682,516.07549Z" transform="translate(-244.8839 -185)"/><path fill="#0bef62" d="M533.47755,502.72488l-12.90242-9.64814a4.49946,4.49946,0,0,1-.59686-6.67226l76.863-82.47429a15.05276,15.05276,0,0,1,19.52127-2.07541l.00021.00012a14.97782,14.97782,0,0,1,1.92527,22.97632l-78.96383,77.50169a4.47169,4.47169,0,0,1-5.36242.70857A4.62136,4.62136,0,0,1,533.47755,502.72488Z" transform="translate(-244.8839 -185)"/><path fill="#ffb8b8" d="M632.22613,491.80493a10.05578,10.05578,0,0,1,14.71505-4.60685l28.08641-22.09373,1.54966,18.50493-26.90892,18.14357a10.11027,10.11027,0,0,1-17.4422-9.94792Z" transform="translate(-244.8839 -185)"/><path fill="#0bef62" d="M657.36516,500.43a4.46445,4.46445,0,0,1-3.02295-3.249l-2.83716-11.916a4.43718,4.43718,0,0,1,1.65039-4.61231l19.08887-20.64453-28.07862-43.2959a15.24849,15.24849,0,0,1-.46191-18.626,15.242,15.242,0,0,1,26.29468,2.99414l26.104,50.81054a23.11846,23.11846,0,0,1-7.72095,29.79493l-26.67675,17.82031a4.46126,4.46126,0,0,1-2.97046,1.13672A4.54941,4.54941,0,0,1,657.36516,500.43Z" transform="translate(-244.8839 -185)"/><path fill="#2f2e41" d="M652.88575,372.10551a4.39849,4.39849,0,0,1-6.49318-2.5649l-.01539-.06128c-.50024-2.04355-.10536-4.18241.02383-6.28233s-.08861-4.40488-1.52657-5.94066c-2.68052-2.86288-7.4138-1.31231-11.27146-2.01917a9.51063,9.51063,0,0,1-7.45268-10.117c.05255-.43662.13628-.87389.23045-1.311a7.32469,7.32469,0,0,0-7.65072-8.82988c-3.89344.24353-8.091,1.446-11.32878-1.42141a8.35087,8.35087,0,0,1-2.05309-8.99159c1.81153-5.32069,6.99681-8.12883,12.13466-9.68478a44.5881,44.5881,0,0,1,37.8262,5.99911c3.26265,2.2737,6.31357,5.13619,7.71889,8.85636s.76213,8.42656-2.34866,10.904a20.12271,20.12271,0,0,1,4.76546,19.52057C663.92834,365.14164,656.58987,369.94774,652.88575,372.10551Z" transform="translate(-244.8839 -185)"/><path fill="#ccc" d="M679.78205,715h-147a1,1,0,0,1,0-2h147c.55225,0,.44776,1,1,1C681.03008,714,680.3343,715,679.78205,715Z" transform="translate(-244.8839 -185)"/><path fill="#fff" d="M518.19515,302.83393a12.13174,12.13174,0,0,0-11.39215-8.01014H256.98809a12.09951,12.09951,0,0,0-12.10419,12.09482V498.63269a12.12137,12.12137,0,0,0,12.10419,12.10419H506.803a12.12137,12.12137,0,0,0,12.10419-12.10419V306.928A12.01155,12.01155,0,0,0,518.19515,302.83393Z" transform="translate(-244.8839 -185)"/><path fill="#3f3d56" d="M518.19515,302.83393a12.13174,12.13174,0,0,0-11.39215-8.01014H256.98809a12.09951,12.09951,0,0,0-12.10419,12.09482V498.63269a12.12137,12.12137,0,0,0,12.10419,12.10419H506.803a12.12137,12.12137,0,0,0,12.10419-12.10419V306.928A12.01155,12.01155,0,0,0,518.19515,302.83393Zm-.712,195.79876A10.69318,10.69318,0,0,1,506.803,509.31287H256.98809A10.6932,10.6932,0,0,1,246.308,498.63269V306.928a10.69315,10.69315,0,0,1,10.68014-10.68014H506.803A10.69321,10.69321,0,0,1,517.48318,306.928Z" transform="translate(-244.8839 -185)"/><path fill="#e6e6e6" d="M499.64034,320.61951V454.481a3.369,3.369,0,0,1-3.3678,3.37018H269.03194a2.83844,2.83844,0,0,1-.483-.03754,3.367,3.367,0,0,1-2.88717-3.33258V320.61951a3.369,3.369,0,0,1,3.36789-3.37012h227.2405a3.369,3.369,0,0,1,3.37018,3.36783v.00229Z" transform="translate(-244.8839 -185)"/><circle cx="78.059" cy="182.274" r="29.567" fill="#0bef62"/><path fill="#3f3d56" d="M415.66027,458.38782H270.615a2.95326,2.95326,0,0,1-.542-.043l68.59973-118.82458a4.80315,4.80315,0,0,1,8.361,0l46.039,79.74054,2.20562,3.81561Z" transform="translate(-244.8839 -185)"/><polygon points="170.776 273.388 121.254 273.388 145.564 238.076 147.314 235.533 148.189 234.261 150.394 238.076 170.776 273.388" opacity=".2" style="isolation:isolate"/><path fill="#3f3d56" d="M496.42043,458.38782H370.96819l24.31018-35.31146,1.74945-2.54376,31.67835-46.01752c2.07681-3.016,7.073-3.20377,9.51477-.56885a5.71879,5.71879,0,0,1,.45618.56885Z" transform="translate(-244.8839 -185)"/></svg>