<svg xmlns="http://www.w3.org/2000/svg" xmlns:xlink="http://www.w3.org/1999/xlink" width="718.886" height="747.503" data-name="Layer 1" viewBox="0 0 718.886 747.503"><path fill="#0bef62" d="M941.416,687.81827h-275v-13.5a4.50508,4.50508,0,0,1,4.5-4.5h266a4.50508,4.50508,0,0,1,4.5,4.5Z" transform="translate(-240.5572 -76.24863)"/><path fill="#e6e6e6" d="M592.78835,139.197c2.14,2.23008,4.24773,4.527,6.26558,6.82761l-1.72888,1.51592c-3.021-3.44486-6.22914-6.861-9.49394-10.11081l1.62325-1.62926Q591.135,137.474,592.78835,139.197ZM579.18661,126.247l-1.508,1.73646c-3.48228-3.02556-7.10606-5.962-10.77142-8.73089l1.38607-1.83423C571.99939,120.21823,575.66455,123.18805,579.18661,126.247Zm28.75376,30.62386c2.83059,3.70693,5.56382,7.5524,8.12411,11.43l-1.91909,1.26585c-2.531-3.83257-5.23341-7.63451-8.033-11.29955Zm-51.12069-47.51424-1.25775,1.92582c-3.85481-2.51554-7.84755-4.92832-11.86678-7.17093l1.1197-2.00809c4.06635,2.269,8.10538,4.70892,12.00482,7.25319Zm66.56373,70.90717c2.29068,4.05076,4.4698,8.23656,6.47708,12.43947l-2.07381.9911c-1.986-4.15643-4.14069-8.29409-6.40532-12.29982ZM532.3392,95.6973l-.97829,2.08086c-4.164-1.95894-8.4473-3.79729-12.7286-5.46326l.835-2.14257C523.79669,91.85755,528.12718,93.71591,532.3392,95.6973ZM635.47265,205.5791c1.71495,4.341,3.29866,8.79165,4.70642,13.22915l-2.19235.6957c-1.39164-4.38677-2.9573-8.78781-4.65309-13.07959ZM506.242,85.54368l-.6852,2.19487c-4.39455-1.369-8.89117-2.60424-13.36344-3.66833l.53206-2.23775C497.249,82.90952,501.79612,84.15855,506.242,85.54368ZM643.96351,232.32536c1.10239,4.53284,2.06084,9.1556,2.8477,13.7423l-2.26626.38843c-.77842-4.53412-1.72516-9.10585-2.81513-13.58841ZM478.98549,79.05448l-.3787,2.26793c-4.54135-.75821-9.16514-1.36883-13.74472-1.815l.22186-2.28857C469.71662,77.67,474.39348,78.28725,478.98549,79.05448Zm169.726,180.91626c.47229,4.63025.79133,9.3391.94785,13.997l-2.29792.07651c-.15522-4.60464-.47057-9.261-.93755-13.84032ZM451.08743,76.33481,451.021,78.633c-4.60265-.133-9.26889-.11-13.87008.06988l-.08923-2.29818C441.71455,76.22343,446.43319,76.2,451.08743,76.33481ZM649.65051,287.99415c-.16146,4.65568-.486,9.3636-.9633,13.99175l-2.28674-.23614c.47231-4.57662.79212-9.231.95214-13.83473ZM423.06865,77.43279l.2451,2.28551c-4.57348.49252-9.19483,1.15085-13.73422,1.95617l-.40119-2.26334C413.76882,78.59572,418.4427,77.93057,423.06865,77.43279ZM646.774,315.8762c-.79212,4.58869-1.754,9.20644-2.85675,13.72442l-2.23429-.5447c1.09056-4.4674,2.04144-9.03337,2.8258-13.5718ZM395.451,82.33769l.5559,2.23c-4.47274,1.11475-8.96166,2.39908-13.34465,3.81823l-.70761-2.1871C386.38713,84.76328,390.92722,83.4641,395.451,82.33769Zm244.67885,260.757c-1.41027,4.43421-2.993,8.87519-4.70355,13.19921l-2.13758-.846c1.69049-4.27519,3.2559-8.66613,4.65043-13.05025ZM368.75289,90.98l.85806,2.133c-4.278,1.71986-8.55073,3.61053-12.69973,5.62049l-1.00229-2.06927C360.10527,94.63064,364.42689,92.718,368.75289,90.98ZM629.8294,369.1328c-2.007,4.20317-4.18674,8.38847-6.47725,12.44048l-2.00149-1.13225c2.265-4.00569,4.4191-8.14309,6.4045-12.29907ZM343.50526,103.21431l1.14355,1.996c-3.996,2.28944-7.96116,4.747-11.78634,7.30362l-1.27712-1.91137C335.454,108.01666,339.46433,105.53139,343.50526,103.21431ZM616.03078,393.53463c-2.56539,3.884-5.29983,7.72949-8.12744,11.4286l-1.827-1.39622c2.79574-3.65767,5.49918-7.45938,8.03508-11.29949Zm-295.82872-274.744,1.40526,1.81951c-3.63746,2.81056-7.22908,5.78724-10.6767,8.84667l-1.52565-1.71956C312.89024,124.64328,316.52306,121.63331,320.20206,118.79067ZM599.01129,415.80678c-3.06905,3.49125-6.30212,6.92751-9.60948,10.21335l-1.62032-1.63178c3.27127-3.24887,6.46781-6.647,9.50236-10.09967ZM300.8754,139.00951c-3.23428,3.28417-6.39344,6.7172-9.38934,10.20361l-1.74382-1.49776c3.02966-3.5266,6.22417-6.9982,9.49418-10.3198ZM282.81449,160.0334c-2.75683,3.6958-5.41724,7.52779-7.90638,11.39149l-1.93245-1.24517c2.517-3.90759,5.20731-7.78381,7.99639-11.52144ZM267.80656,183.334c-2.21739,4.02927-4.3231,8.18635-6.25715,12.35606l-2.08579-.96728c1.95648-4.2177,4.08581-8.42232,6.32912-12.49672Zm-11.64838,25.1183c-1.645,4.30154-3.15956,8.71138-4.50271,13.1061l-2.19911-.67182c1.35849-4.44522,2.8908-8.90472,4.5542-13.25508Zm-8.0973,26.4937c-1.04181,4.48985-1.94012,9.06763-2.67159,13.60356l-2.269-.36518c.73848-4.58781,1.64705-9.21738,2.70023-13.75862Zm-4.40779,27.3614c-.42123,4.58364-.6895,9.24146-.79749,13.84508l-2.2984-.05373c.109-4.656.38042-9.36655.80549-14.00212Zm-.6486,27.714c.20719,4.60612.57464,9.25919,1.093,13.82965l-2.28422.25941c-.52452-4.62216-.89678-9.32817-1.1057-13.98551Zm3.12557,27.55271c.83353,4.53722,1.83252,9.09773,2.97026,13.55463l-2.22788.56943c-1.15058-4.50841-2.16122-9.12-3.00358-13.7094ZM252.99483,344.45c1.44466,4.37871,3.06032,8.75975,4.8019,13.02308l-2.12847.86926c-1.76123-4.31138-3.39536-8.74324-4.85761-13.17193Zm10.4923,25.68533c2.03135,4.13155,4.233,8.24437,6.54423,12.22566l-1.98825,1.15482c-2.338-4.02711-4.56493-8.1873-6.6191-12.36539Zm13.91652,23.97094c2.57835,3.80889,5.32388,7.58039,8.16154,11.21046l-1.81256,1.41574c-2.86941-3.67121-5.64619-7.4858-8.2534-11.337Z" transform="translate(-240.5572 -76.24863)"/><path fill="#3f3d56" d="M552.65285,541.35049a39.27072,39.27072,0,0,1-37.39063-27.59814,119.14084,119.14084,0,1,1,56.90088-45.686,39.241,39.241,0,0,1-19.51025,73.28418Zm-36.07471-30.25878.29859,1.06591a37.21546,37.21546,0,0,0,71.67114-20.08007,37.39315,37.39315,0,0,0-18.29053-22.78028l-.97607-.522.61767-.918a117.14092,117.14092,0,1,0-54.35083,43.63916Z" transform="translate(-240.5572 -76.24863)"/><path fill="#0bef62" d="M537.30226,390.43887H407.862a6.04736,6.04736,0,1,1,0-12.09472h129.4403a6.04736,6.04736,0,1,1,0,12.09472Z" transform="translate(-240.5572 -76.24863)"/><path fill="#0bef62" d="M537.30226,408.93057H407.862a6.04736,6.04736,0,1,1,0-12.09472h129.4403a6.04736,6.04736,0,1,1,0,12.09472Z" transform="translate(-240.5572 -76.24863)"/><path fill="#0bef62" d="M537.30226,427.42227H407.862a6.04761,6.04761,0,0,1,0-12.09521h129.4403a6.0476,6.0476,0,1,1,0,12.09521Z" transform="translate(-240.5572 -76.24863)"/><path fill="#3f3d56" d="M936.916,823.75137h-266a5.00573,5.00573,0,0,1-5-5V674.15323a5.00573,5.00573,0,0,1,5-5h266a5.00573,5.00573,0,0,1,5,5V818.75137A5.00573,5.00573,0,0,1,936.916,823.75137Zm-266-152.59814a3.00328,3.00328,0,0,0-3,3V818.75137a3.00328,3.00328,0,0,0,3,3h266a3.00328,3.00328,0,0,0,3-3V674.15323a3.00328,3.00328,0,0,0-3-3Z" transform="translate(-240.5572 -76.24863)"/><circle cx="437.551" cy="603.07" r="6.192" fill="#fff"/><circle cx="454.359" cy="603.07" r="6.192" fill="#fff"/><circle cx="471.167" cy="603.07" r="6.192" fill="#fff"/><path fill="#0bef62" d="M725.69826,471.746H692.98732a4.515,4.515,0,0,1-3.54907-1.71142,4.41322,4.41322,0,0,1-.86255-3.75342,88.62812,88.62812,0,0,0,0-39.3169,4.4132,4.4132,0,0,1,.86255-3.75341,4.515,4.515,0,0,1,3.54907-1.71143h32.71094A4.49179,4.49179,0,0,1,730.158,425.371a144.857,144.857,0,0,1,0,42.50342A4.49179,4.49179,0,0,1,725.69826,471.746Z" transform="translate(-240.5572 -76.24863)"/><path fill="#ff6584" d="M895.86794,577.768H863.157a4.49178,4.49178,0,0,1-4.45972-3.87158,144.857,144.857,0,0,1,0-42.50342,4.49179,4.49179,0,0,1,4.45972-3.87158h32.71094a4.516,4.516,0,0,1,3.54907,1.71094,4.41474,4.41474,0,0,1,.86279,3.75391,88.63026,88.63026,0,0,0,0,39.31738,4.41486,4.41486,0,0,1-.86279,3.75342A4.51568,4.51568,0,0,1,895.86794,577.768Z" transform="translate(-240.5572 -76.24863)"/><path fill="#ffb8b8" d="M874.69487,537.0951a10.74267,10.74267,0,0,0,1.14845-16.43255l2.853-121.77131-18.853,2.772.19893,119.76477a10.80091,10.80091,0,0,0,14.65262,15.6671Z" transform="translate(-240.5572 -76.24863)"/><path fill="#ffb8b8" d="M723.89734,415.00615a10.52785,10.52785,0,0,1,.88579,1.401l49.3236,5.16437L789.2,396.83292l16.09638,8.7841-21.92921,38.63025-60.49734-15.38346a10.49579,10.49579,0,1,1,1.02747-13.85766Z" transform="translate(-240.5572 -76.24863)"/><polygon fill="#ffb8b8" points="514.808 583.563 502.775 581.219 512.144 492.313 531.904 495.772 514.808 583.563"/><path fill="#2f2e41" d="M733.90243,653.05537H757.5463a0,0,0,0,1,0,0v14.88687a0,0,0,0,1,0,0H719.01557a0,0,0,0,1,0,0v0A14.88686,14.88686,0,0,1,733.90243,653.05537Z" transform="translate(-100.67922 -205.19983) rotate(11.02066)"/><polygon fill="#ffb8b8" points="600.574 583.855 588.314 583.854 582.482 517.415 600.576 517.415 600.574 583.855"/><path fill="#2f2e41" d="M579.55723,580.35141H603.2011a0,0,0,0,1,0,0v14.88687a0,0,0,0,1,0,0H564.67037a0,0,0,0,1,0,0v0A14.88686,14.88686,0,0,1,579.55723,580.35141Z"/><path fill="#2f2e41" d="M791.31962,436.15747,746.998,576.03527s55.47568,36.09275,104.93613,28.07212c12.97657-55.24189,12.13086-106.84534-8.48046-153.24549Z" transform="translate(-240.5572 -76.24863)"/><circle cx="597.424" cy="256.237" r="31.553" fill="#2f2e41"/><circle cx="592.451" cy="265.342" r="24.561" fill="#ffb8b8"/><path fill="#3f3d56" d="M789.31423,387.36542c-.21192,1.31988,3.34217,14.70445,3.34217,14.70445l-8.81308,54.59336,59.61021-1.791,33.41929-66.17c1.19238-.52142-5.49023-8.24506-10.02588-11.36252C860.59011,373.03934,790.60134,379.34143,789.31423,387.36542Z" transform="translate(-240.5572 -76.24863)"/><path fill="#3f3d56" d="M792.65635,388.03384l-3.34194-1.33676s-12.03092,18.71473-8.02061,20.71989,14.036,6.68383,14.036,6.68383Z" transform="translate(-240.5572 -76.24863)"/><path fill="#3f3d56" d="M868.85212,383.35514l8.02061,5.34707s6.68383,26.067,0,25.39859-22.05664,3.34191-22.725,2.00515S868.85212,383.35514,868.85212,383.35514Z" transform="translate(-240.5572 -76.24863)"/><ellipse cx="593.619" cy="247.136" fill="#2f2e41" rx="22.98" ry="13.788"/><path fill="#2f2e41" d="M837.525,306.50746a9.10876,9.10876,0,0,1-2.8231-11.15691c1.413-2.82419,4.19591-4.65942,6.85589-6.3615l10.85146-6.94365c4.53309-2.90064,9.22231-5.86376,14.52351-6.791,8.68937-1.51989,17.66522,2.90213,23.38688,9.61613s8.62025,15.39911,10.26916,24.06493,2.17725,17.516,3.84964,26.17734c2.59336,13.431,8.15332,26.608,17.79283,36.31354s23.72842,15.501,37.21152,13.19388a35.19824,35.19824,0,0,1-21.61307,9.22161,45.80913,45.80913,0,0,1-23.20312-4.78645,54.49838,54.49838,0,0,1-27.92487-32.72943c-4.38992-14.45076-2.54658-30.11151-5.89667-44.83812-1.32492-5.82418-3.71647-11.80793-8.58888-15.26281s-12.73186-3.136-15.85453,1.95569c2.83976-.92557,5.6293,2.66226,4.7459,5.51542s-4.12545,4.41635-7.11209,4.38652-5.80474-1.27977-8.573-2.40123-5.72706-2.15224-8.68217-1.71839" transform="translate(-240.5572 -76.24863)"/><path fill="#ccc" d="M479.69838,553.746H446.98732a4.51484,4.51484,0,0,1-3.54907-1.71142,4.41373,4.41373,0,0,1-.86279-3.75342,88.62812,88.62812,0,0,0,0-39.3169,4.41371,4.41371,0,0,1,.86279-3.75341,4.51485,4.51485,0,0,1,3.54907-1.71143h32.71106a4.49185,4.49185,0,0,1,4.4596,3.87158,144.857,144.857,0,0,1,0,42.50342A4.49185,4.49185,0,0,1,479.69838,553.746Z" transform="translate(-240.5572 -76.24863)"/><path fill="#ccc" d="M860.91546,734.319H731.47516a6.04736,6.04736,0,1,1,0-12.09472h129.4403a6.04736,6.04736,0,1,1,0,12.09472Z" transform="translate(-240.5572 -76.24863)"/><path fill="#ccc" d="M860.91546,752.81068H731.47516a6.04736,6.04736,0,1,1,0-12.09472h129.4403a6.04736,6.04736,0,1,1,0,12.09472Z" transform="translate(-240.5572 -76.24863)"/><path fill="#ccc" d="M860.91546,771.30238H731.47516a6.04761,6.04761,0,0,1,0-12.09521h129.4403a6.04761,6.04761,0,1,1,0,12.09521Z" transform="translate(-240.5572 -76.24863)"/></svg>