<svg xmlns="http://www.w3.org/2000/svg" xmlns:xlink="http://www.w3.org/1999/xlink" width="899.866" height="731.191" data-name="Layer 1" viewBox="0 0 899.866 731.191"><path fill="#ffb6b6" d="M406.49731,547.15369a10.05574,10.05574,0,0,1-5.12556-14.5425l-23.07542-27.2856,18.43836-2.20463,19.086,26.24886a10.11028,10.11028,0,0,1-9.32339,17.78387Z" transform="translate(-150.06693 -84.40466)"/><polygon fill="#ffb6b6" points="161.428 718.482 173.687 718.481 179.52 671.193 161.425 671.194 161.428 718.482"/><path fill="#2f2e41" d="M308.36722,798.88372l3.4508-.00013,13.47243-5.47893,7.22081,5.47809h.001A15.38731,15.38731,0,0,1,347.89872,814.269v.5l-39.53077.00146Z" transform="translate(-150.06693 -84.40466)"/><polygon fill="#ffb6b6" points="208.937 710.756 220.896 713.456 237.001 668.614 219.351 664.629 208.937 710.756"/><path fill="#2f2e41" d="M356.835,790.56746l3.36606.76,14.3484-2.37667,5.83675,6.93412.00095.00021a15.3873,15.3873,0,0,1,11.61929,18.39761l-.11014.48771-38.56009-8.70633Z" transform="translate(-150.06693 -84.40466)"/><path fill="#2f2e41" d="M289.05029,559.64482l11.08632,124.20931s-4.15391,74.56955,9.25,100.81h19.4393l9.6247-107.62,1.20861-72.23521L381.335,665.75111,354.79045,782.90466l23.9252,2.13884,43.0748-127.13884L374.46727,538.55115Z" transform="translate(-150.06693 -84.40466)"/><circle cx="150.594" cy="248.849" r="28.591" fill="#ffb8b8"/><path fill="#3f3d56" d="M360.68185,389.0897,327.466,379.02561l-4.32255-13.29253-35.62041,5.78181-7.56821,12.9766-24.49947,22.78084L284.15933,537.0582l-.86888,28.34646s18.3713,8.27056,98.04459-10.77166c.95541-.22834-1.04459-1.22834-1.04459-1.22834Z" transform="translate(-150.06693 -84.40466)"/><path fill="#3f3d56" d="M392.22648,532.15466,353.29,480.015l-11.03833-92.40576.322-.15528a20.18152,20.18152,0,0,1,28.91992,17.373l2.29517,57.10108,38.67041,51.03125Z" transform="translate(-150.06693 -84.40466)"/><path fill="#2f2e41" d="M270.93107,349.47631q-.29881-.40778-.59179-.82245c-.07862.166-.14112.33753-.231.49964Z" transform="translate(-150.06693 -84.40466)"/><path fill="#2f2e41" d="M329.10148,312.34027a18.24293,18.24293,0,0,0-9.54541-9.2215,17.41677,17.41677,0,0,0-13.0581.01141c-3.77979-2.38806-7.97949-4.28125-12.40235-4.51574s-9.09912,1.40637-11.8247,5.01831a19.30233,19.30233,0,0,1-2.06592,2.6839c-2.19092,2.02893-5.52051,1.73626-8.43262,1.32141q1.95923,1.67916,3.91944,3.35833-2.37159.61955-4.74366,1.23914,2.76783,1.67862,5.53516,3.35724c-5.35645,3.215-7.791,10.2323-7.14795,16.60547.6084,6.03387,3.52149,11.55145,7.00391,16.45562,1.38916-2.93151,1.08984-6.43927,1.06689-9.741-.02392-3.48859.59326-7.45,3.38867-9.39972,1.88575-1.31519,4.31055-1.3739,6.58448-1.36145a302.50731,302.50731,0,0,1,34.3164,2.14233,9.66022,9.66022,0,0,1,4.39356,1.27429c2.51855,1.7182,3.00927,5.264,3.2622,8.37482a60.68186,60.68186,0,0,0,1.937-15.73083A28.995,28.995,0,0,0,329.10148,312.34027Z" transform="translate(-150.06693 -84.40466)"/><circle cx="176.224" cy="530" r="45" fill="#f0f0f0"/><path fill="#3f3d56" d="M326.29045,568.40466a46.24694,46.24694,0,0,0-6.91016.52c-1.16992.17-2.30957.38995-3.43994.66a45.97706,45.97706,0,0,0-19.48974,79.8c.77.65,1.5498,1.28,2.35986,1.88a45.99007,45.99007,0,1,0,27.48-82.86Zm0,90a43.74633,43.74633,0,0,1-26-8.53c-.81983-.6-1.60986-1.22-2.37988-1.88a43.974,43.974,0,0,1,19.62011-76.71c1.11963-.23,2.23975-.41,3.37989-.55a43.52969,43.52969,0,0,1,5.37988-.33,44,44,0,1,1,0,88Z" transform="translate(-150.06693 -84.40466)"/><rect width="50" height="6" x="301.29" y="599.405" fill="#0bef62" rx="3" transform="translate(502.51397 1120.40466) rotate(-180)"/><rect width="50" height="6" x="301.29" y="611.405" fill="#0bef62" rx="3" transform="translate(502.51397 1144.40466) rotate(-180)"/><rect width="50" height="6" x="301.29" y="623.405" fill="#0bef62" rx="3" transform="translate(502.51397 1168.40466) rotate(180)"/><path fill="#ffb6b6" d="M329.17019,582.17854a10.05577,10.05577,0,0,1-7.98-13.19378l-28.149-22.014,17.6029-5.91371,24.032,21.8115a10.11027,10.11027,0,0,1-5.506,19.31Z" transform="translate(-150.06693 -84.40466)"/><path fill="#3f3d56" d="M272.79045,406.90466l-17.33506.36767a33.07345,33.07345,0,0,0-10.66494,24.63233v81.90945l65.04814,54.38381,21.03376-20.36807-48.416-52.74862Z" transform="translate(-150.06693 -84.40466)"/><rect width="643.862" height="412.358" x="256.004" y="127.573" fill="#e6e6e6"/><rect width="607.039" height="336.243" x="274.416" y="179.293" fill="#fff"/><rect width="643.862" height="27.354" x="255.73" y="127.208" fill="#0bef62"/><circle cx="276.057" cy="141.192" r="5.07" fill="#fff"/><circle cx="295.3" cy="141.192" r="5.07" fill="#fff"/><circle cx="314.544" cy="141.192" r="5.07" fill="#fff"/><rect width="129.984" height="73.348" x="512.479" y="214.181" fill="#0bef62"/><rect width="129.984" height="78.919" x="512.479" y="307.955" fill="#e6e6e6"/><rect width="155.981" height="116.125" x="670.317" y="214.181" fill="#e6e6e6"/><rect width="155.981" height="116.125" x="670.317" y="364.523" fill="#0bef62"/><rect width="155.981" height="116.125" x="330.317" y="214.181" fill="#e6e6e6"/><polygon fill="#3f3d56" points="621.208 79.642 576.774 246.796 578.81 247.337 622.827 81.748 621.208 79.642"/><polygon fill="#3f3d56" points="749.464 421.592 705.447 587.182 707.066 589.288 751.5 422.133 749.464 421.592"/><path fill="#e6e6e6" d="M633.29045,485.052h-150a3.5,3.5,0,0,1,0-7h150a3.5,3.5,0,0,1,0,7Z" transform="translate(-150.06693 -84.40466)"/><path fill="#e6e6e6" d="M633.29045,465.052h-150a3.5,3.5,0,0,1,0-7h150a3.5,3.5,0,0,1,0,7Z" transform="translate(-150.06693 -84.40466)"/><path fill="#e6e6e6" d="M633.29045,505.052h-150a3.5,3.5,0,0,1,0-7h150a3.5,3.5,0,0,1,0,7Z" transform="translate(-150.06693 -84.40466)"/><path fill="#e6e6e6" d="M633.29045,525.052h-150a3.5,3.5,0,1,1,0-7h150a3.5,3.5,0,0,1,0,7Z" transform="translate(-150.06693 -84.40466)"/><path fill="#e6e6e6" d="M633.29045,545.052h-150a3.5,3.5,0,1,1,0-7h150a3.5,3.5,0,0,1,0,7Z" transform="translate(-150.06693 -84.40466)"/><path fill="#e6e6e6" d="M633.29045,565.052h-150a3.5,3.5,0,1,1,0-7h150a3.5,3.5,0,0,1,0,7Z" transform="translate(-150.06693 -84.40466)"/><path fill="#e6e6e6" d="M789.538,505.052h-124a3.5,3.5,0,0,1,0-7h124a3.5,3.5,0,0,1,0,7Z" transform="translate(-150.06693 -84.40466)"/><path fill="#e6e6e6" d="M789.538,525.052h-124a3.5,3.5,0,1,1,0-7h124a3.5,3.5,0,0,1,0,7Z" transform="translate(-150.06693 -84.40466)"/><path fill="#e6e6e6" d="M789.538,545.052h-124a3.5,3.5,0,1,1,0-7h124a3.5,3.5,0,0,1,0,7Z" transform="translate(-150.06693 -84.40466)"/><path fill="#e6e6e6" d="M789.538,565.052h-124a3.5,3.5,0,1,1,0-7h124a3.5,3.5,0,0,1,0,7Z" transform="translate(-150.06693 -84.40466)"/><circle cx="624.224" cy="46" r="45" fill="#f0f0f0"/><path fill="#3f3d56" d="M774.29045,84.40466a46.24694,46.24694,0,0,0-6.91016.52c-1.16992.17-2.30957.38995-3.43994.66a45.97706,45.97706,0,0,0-19.48974,79.8c.77.65,1.5498,1.28,2.35986,1.88a45.99007,45.99007,0,1,0,27.48-82.86Zm0,90a43.74633,43.74633,0,0,1-26-8.53c-.81983-.6-1.60986-1.22-2.37988-1.88a43.974,43.974,0,0,1,19.62011-76.71c1.11963-.23,2.23975-.41,3.37989-.55a43.52969,43.52969,0,0,1,5.37988-.33,44,44,0,0,1,0,88Z" transform="translate(-150.06693 -84.40466)"/><rect width="50" height="6" x="749.29" y="115.405" fill="#0bef62" rx="3" transform="translate(1398.51397 152.40466) rotate(-180)"/><rect width="50" height="6" x="749.29" y="127.405" fill="#0bef62" rx="3" transform="translate(1398.51397 176.40466) rotate(-180)"/><rect width="50" height="6" x="749.29" y="139.405" fill="#0bef62" rx="3" transform="translate(1398.51397 200.40466) rotate(180)"/><circle cx="700.224" cy="628" r="45" fill="#f0f0f0"/><path fill="#3f3d56" d="M850.29045,666.40466a46.24694,46.24694,0,0,0-6.91016.52c-1.16992.17-2.30957.38995-3.43994.66a45.97706,45.97706,0,0,0-19.48974,79.8c.77.65,1.5498,1.28,2.35986,1.88a45.99007,45.99007,0,1,0,27.48-82.86Zm0,90a43.74633,43.74633,0,0,1-26-8.53c-.81983-.6-1.60986-1.22-2.37988-1.88a43.974,43.974,0,0,1,19.62011-76.71c1.11963-.23,2.23975-.41,3.37989-.55a43.52969,43.52969,0,0,1,5.37988-.33,44,44,0,0,1,0,88Z" transform="translate(-150.06693 -84.40466)"/><rect width="50" height="6" x="825.29" y="697.405" fill="#0bef62" rx="3" transform="translate(1550.51397 1316.40466) rotate(-180)"/><rect width="50" height="6" x="825.29" y="709.405" fill="#0bef62" rx="3" transform="translate(1550.51397 1340.40466) rotate(-180)"/><rect width="50" height="6" x="825.29" y="721.405" fill="#0bef62" rx="3" transform="translate(1550.51397 1364.40466) rotate(180)"/><path fill="#cacaca" d="M497.55163,815.59534h-346.294a1.19069,1.19069,0,0,1,0-2.38137h346.294a1.19069,1.19069,0,0,1,0,2.38137Z" transform="translate(-150.06693 -84.40466)"/></svg>