<svg xmlns="http://www.w3.org/2000/svg" xmlns:xlink="http://www.w3.org/1999/xlink" width="655" height="413.68" data-name="Layer 1" viewBox="0 0 655 413.68"><path fill="#e6e6e6" d="M689.063,372.583a122.04116,122.04116,0,0,1,10.10051-38.51722q2.27961-5.09249,5.01812-9.96076a.7438.7438,0,0,0-1.28354-.75026,123.7286,123.7286,0,0,0-13.7678,37.98231q-1.03367,5.58355-1.55378,11.24593c-.08811.95214,1.39893.94613,1.48649,0Z" transform="translate(-272.5 -243.16024)"/><circle cx="435.282" cy="73.914" r="9.414" fill="#e6e6e6"/><path fill="#e6e6e6" d="M690.026,372.83307a79.17357,79.17357,0,0,1,6.55267-24.98791q1.47888-3.30374,3.25549-6.462a.48254.48254,0,0,0-.83269-.48673,80.26825,80.26825,0,0,0-8.93182,24.6409q-.67059,3.6223-1.008,7.29575c-.05716.6177.90755.6138.96436,0Z" transform="translate(-272.5 -243.16024)"/><circle cx="429.67" cy="93.662" r="6.108" fill="#e6e6e6"/><path fill="#e6e6e6" d="M688.80883,372.25653a79.17368,79.17368,0,0,1-10.2024-23.73277q-.86592-3.51453-1.40764-7.09749a.48253.48253,0,0,0-.95592.12838,80.26823,80.26823,0,0,0,8.11306,24.92247q1.69918,3.26856,3.69253,6.37254c.33485.5222,1.09311-.07422.76037-.59313Z" transform="translate(-272.5 -243.16024)"/><circle cx="403.735" cy="93.233" r="6.108" fill="#e6e6e6"/><path fill="#f2f2f2" d="M670.05906,377.66024v-12a4.50508,4.50508,0,0,1,4.5-4.5h28a4.50508,4.50508,0,0,1,4.5,4.5v12a4.50508,4.50508,0,0,1-4.5,4.5h-28A4.50508,4.50508,0,0,1,670.05906,377.66024Z" transform="translate(-272.5 -243.16024)" style="isolation:isolate"/><path fill="#f2f2f2" d="M701.55906,301.16024h-12a4.50507,4.50507,0,0,1-4.5-4.5v-49a4.50508,4.50508,0,0,1,4.5-4.5h12a4.50508,4.50508,0,0,1,4.5,4.5v49A4.50508,4.50508,0,0,1,701.55906,301.16024Z" transform="translate(-272.5 -243.16024)" style="isolation:isolate"/><rect width="20" height="4" x="413.059" y="9.5" fill="#ccc"/><rect width="20" height="4" x="413.059" y="40.5" fill="#ccc"/><path fill="#f2f2f2" d="M731.55906,301.16024h-12a4.50507,4.50507,0,0,1-4.5-4.5v-49a4.50508,4.50508,0,0,1,4.5-4.5h12a4.50508,4.50508,0,0,1,4.5,4.5v49A4.50508,4.50508,0,0,1,731.55906,301.16024Z" transform="translate(-272.5 -243.16024)" style="isolation:isolate"/><rect width="20" height="4" x="443.059" y="9.5" fill="#ccc"/><rect width="20" height="4" x="443.059" y="40.5" fill="#ccc"/><path fill="#f2f2f2" d="M761.55906,301.16024h-12a4.50507,4.50507,0,0,1-4.5-4.5v-49a4.50508,4.50508,0,0,1,4.5-4.5h12a4.50508,4.50508,0,0,1,4.5,4.5v49A4.50508,4.50508,0,0,1,761.55906,301.16024Z" transform="translate(-272.5 -243.16024)" style="isolation:isolate"/><rect width="20" height="4" x="473.059" y="9.5" fill="#ccc"/><rect width="20" height="4" x="473.059" y="40.5" fill="#ccc"/><path fill="#f2f2f2" d="M777.55906,382.16024h-12a4.50507,4.50507,0,0,1-4.5-4.5v-49a4.50508,4.50508,0,0,1,4.5-4.5h12a4.50508,4.50508,0,0,1,4.5,4.5v49A4.50508,4.50508,0,0,1,777.55906,382.16024Z" transform="translate(-272.5 -243.16024)" style="isolation:isolate"/><rect width="20" height="4" x="489.059" y="90.5" fill="#ccc"/><rect width="20" height="4" x="489.059" y="121.5" fill="#ccc"/><path fill="#f2f2f2" d="M807.55906,382.16024h-12a4.50507,4.50507,0,0,1-4.5-4.5v-49a4.50508,4.50508,0,0,1,4.5-4.5h12a4.50508,4.50508,0,0,1,4.5,4.5v49A4.50508,4.50508,0,0,1,807.55906,382.16024Z" transform="translate(-272.5 -243.16024)" style="isolation:isolate"/><rect width="20" height="4" x="519.059" y="90.5" fill="#ccc"/><rect width="20" height="4" x="519.059" y="121.5" fill="#ccc"/><path fill="#f2f2f2" d="M837.55906,382.16024h-12a4.50507,4.50507,0,0,1-4.5-4.5v-49a4.50508,4.50508,0,0,1,4.5-4.5h12a4.50508,4.50508,0,0,1,4.5,4.5v49A4.50508,4.50508,0,0,1,837.55906,382.16024Z" transform="translate(-272.5 -243.16024)" style="isolation:isolate"/><rect width="20" height="4" x="549.059" y="90.5" fill="#ccc"/><rect width="20" height="4" x="549.059" y="121.5" fill="#ccc"/><path fill="#f2f2f2" d="M698.55906,463.16024h-12a4.50507,4.50507,0,0,1-4.5-4.5v-49a4.50508,4.50508,0,0,1,4.5-4.5h12a4.50508,4.50508,0,0,1,4.5,4.5v49A4.50508,4.50508,0,0,1,698.55906,463.16024Z" transform="translate(-272.5 -243.16024)" style="isolation:isolate"/><rect width="20" height="4" x="410.059" y="171.5" fill="#ccc"/><rect width="20" height="4" x="410.059" y="202.5" fill="#ccc"/><path fill="#f2f2f2" d="M728.55906,463.16024h-12a4.50507,4.50507,0,0,1-4.5-4.5v-49a4.50508,4.50508,0,0,1,4.5-4.5h12a4.50508,4.50508,0,0,1,4.5,4.5v49A4.50508,4.50508,0,0,1,728.55906,463.16024Z" transform="translate(-272.5 -243.16024)" style="isolation:isolate"/><rect width="20" height="4" x="440.059" y="171.5" fill="#ccc"/><rect width="20" height="4" x="440.059" y="202.5" fill="#ccc"/><path fill="#f2f2f2" d="M758.55906,463.16024h-12a4.50507,4.50507,0,0,1-4.5-4.5v-49a4.50508,4.50508,0,0,1,4.5-4.5h12a4.50508,4.50508,0,0,1,4.5,4.5v49A4.50508,4.50508,0,0,1,758.55906,463.16024Z" transform="translate(-272.5 -243.16024)" style="isolation:isolate"/><rect width="20" height="4" x="470.059" y="171.5" fill="#ccc"/><rect width="20" height="4" x="470.059" y="202.5" fill="#ccc"/><path fill="#f2f2f2" d="M791.55906,301.16024h-12a4.50507,4.50507,0,0,1-4.5-4.5v-49a4.50508,4.50508,0,0,1,4.5-4.5h12a4.50508,4.50508,0,0,1,4.5,4.5v49A4.50508,4.50508,0,0,1,791.55906,301.16024Z" transform="translate(-272.5 -243.16024)" style="isolation:isolate"/><rect width="20" height="4" x="503.059" y="9.5" fill="#ccc"/><rect width="20" height="4" x="503.059" y="40.5" fill="#ccc"/><path fill="#f2f2f2" d="M821.55906,301.16024h-12a4.50507,4.50507,0,0,1-4.5-4.5v-49a4.50508,4.50508,0,0,1,4.5-4.5h12a4.50508,4.50508,0,0,1,4.5,4.5v49A4.50508,4.50508,0,0,1,821.55906,301.16024Z" transform="translate(-272.5 -243.16024)" style="isolation:isolate"/><rect width="20" height="4" x="533.059" y="9.5" fill="#ccc"/><rect width="20" height="4" x="533.059" y="40.5" fill="#ccc"/><path fill="#f2f2f2" d="M851.55906,301.16024h-12a4.50507,4.50507,0,0,1-4.5-4.5v-49a4.50508,4.50508,0,0,1,4.5-4.5h12a4.50508,4.50508,0,0,1,4.5,4.5v49A4.50508,4.50508,0,0,1,851.55906,301.16024Z" transform="translate(-272.5 -243.16024)" style="isolation:isolate"/><rect width="20" height="4" x="563.059" y="9.5" fill="#ccc"/><rect width="20" height="4" x="563.059" y="40.5" fill="#ccc"/><path fill="#f2f2f2" d="M881.55906,301.16024h-12a4.50507,4.50507,0,0,1-4.5-4.5v-49a4.50508,4.50508,0,0,1,4.5-4.5h12a4.50508,4.50508,0,0,1,4.5,4.5v49A4.50508,4.50508,0,0,1,881.55906,301.16024Z" transform="translate(-272.5 -243.16024)" style="isolation:isolate"/><rect width="20" height="4" x="593.059" y="9.5" fill="#ccc"/><rect width="20" height="4" x="593.059" y="40.5" fill="#ccc"/><path fill="#ccc" d="M926.5,302.66024h-285a1,1,0,0,1,0-2h285a1,1,0,0,1,0,2Z" transform="translate(-272.5 -243.16024)"/><path fill="#ccc" d="M926.5,383.66024h-285a1,1,0,0,1,0-2h285a1,1,0,0,1,0,2Z" transform="translate(-272.5 -243.16024)"/><path fill="#ccc" d="M926.5,464.66024h-285a1,1,0,0,1,0-2h285a1,1,0,0,1,0,2Z" transform="translate(-272.5 -243.16024)"/><path fill="#e6e6e6" d="M854.063,453.583a122.04116,122.04116,0,0,1,10.10051-38.51722q2.27961-5.09249,5.01812-9.96076a.7438.7438,0,0,0-1.28354-.75026,123.7286,123.7286,0,0,0-13.7678,37.98231q-1.03367,5.58355-1.55378,11.24593c-.08811.95214,1.39893.94613,1.48649,0Z" transform="translate(-272.5 -243.16024)"/><circle cx="600.282" cy="154.914" r="9.414" fill="#e6e6e6"/><path fill="#e6e6e6" d="M855.026,453.83307a79.17357,79.17357,0,0,1,6.55267-24.98791q1.47888-3.30374,3.25549-6.462a.48254.48254,0,0,0-.83269-.48673,80.26825,80.26825,0,0,0-8.93182,24.6409q-.67059,3.6223-1.008,7.29575c-.05716.6177.90755.6138.96436,0Z" transform="translate(-272.5 -243.16024)"/><circle cx="594.67" cy="174.662" r="6.108" fill="#e6e6e6"/><path fill="#e6e6e6" d="M853.80883,453.25653a79.17368,79.17368,0,0,1-10.2024-23.73277q-.86592-3.51453-1.40764-7.09749a.48253.48253,0,0,0-.95592.12838,80.26823,80.26823,0,0,0,8.11306,24.92247q1.69918,3.26856,3.69253,6.37254c.33485.5222,1.09311-.07422.76037-.59313Z" transform="translate(-272.5 -243.16024)"/><circle cx="568.735" cy="174.233" r="6.108" fill="#e6e6e6"/><path fill="#f2f2f2" d="M835.05906,458.66024v-12a4.50508,4.50508,0,0,1,4.5-4.5h28a4.50508,4.50508,0,0,1,4.5,4.5v12a4.50508,4.50508,0,0,1-4.5,4.5h-28A4.50508,4.50508,0,0,1,835.05906,458.66024Z" transform="translate(-272.5 -243.16024)" style="isolation:isolate"/><path fill="#3f3d56" d="M654.5,606.66024h-381a1,1,0,0,1,0-2h381a1,1,0,0,1,0,2Z" transform="translate(-272.5 -243.16024)"/><circle cx="199.059" cy="205.5" r="27" fill="#2f2e41"/><polygon fill="#ffb8b8" points="173.405 378.826 172.69 366.588 219.556 358.003 220.612 376.067 173.405 378.826"/><path fill="#2f2e41" d="M436.62166,598.16324h23.64387a0,0,0,0,1,0,0v14.88687a0,0,0,0,1,0,0H421.7348a0,0,0,0,1,0,0v0A14.88686,14.88686,0,0,1,436.62166,598.16324Z" transform="translate(747.34041 -113.14222) rotate(86.65462)"/><polygon fill="#ffb8b8" points="193.789 378.714 186.004 388.185 145.768 362.666 157.257 348.688 193.789 378.714"/><path fill="#2f2e41" d="M454.38952,629.78677h23.64386a0,0,0,0,1,0,0v14.88687a0,0,0,0,1,0,0H439.50266a0,0,0,0,1,0,0v0A14.88686,14.88686,0,0,1,454.38952,629.78677Z" transform="translate(-597.31958 343.86136) rotate(-50.58212)"/><path fill="#2f2e41" d="M443.88663,577.83023l-5.31975,25.07884a4,4,0,0,0,3.84843,4.8295l52.29785.84351a4,4,0,0,0,4.00364-4.69462l-4.57453-25.92236a4,4,0,0,0-3.93914-3.30486H447.79957A4,4,0,0,0,443.88663,577.83023Z" transform="translate(-272.5 -243.16024)"/><path fill="#2f2e41" d="M452.55906,586.66024s-51-32-61-15c-5,8.5-2.5,16.75,1.25,22.875a34.63053,34.63053,0,0,0,14.4025,12.89112l41.3475,20.23388,15-16-10-9Z" transform="translate(-272.5 -243.16024)"/><path fill="#2f2e41" d="M478.55906,581.66024s66-19,53,17-62,22-62,22l-5-15,17-12Z" transform="translate(-272.5 -243.16024)"/><circle cx="199.398" cy="211.665" r="24.561" fill="#ffb8b8"/><path fill="#ccc" d="M473.18454,585.629a131.99386,131.99386,0,0,1-30.25708-3.98633l-.29248-.08007-13.70556-63.04493a23.2247,23.2247,0,0,1,14.93286-26.94335,80.45969,80.45969,0,0,1,51.29956-1.02442h.00024a23.46956,23.46956,0,0,1,15.635,27.76465l-15.30835,63.19531-.21557.10254C488.91135,584.62606,480.956,585.629,473.18454,585.629Z" transform="translate(-272.5 -243.16024)"/><path fill="#ffb8b8" d="M454.77438,590.52651a10.05573,10.05573,0,0,1,14.47536-5.31221l26.98651-23.42452,2.44163,18.40848-26.00117,19.4221a10.11027,10.11027,0,0,1-17.90233-9.09385Z" transform="translate(-272.5 -243.16024)"/><path fill="#ccc" d="M480.51218,595.63583a4.53353,4.53353,0,0,1-1.29639-.19043,4.45263,4.45263,0,0,1-2.9624-2.81641l-3.25732-9.22851a4.472,4.472,0,0,1,1.30224-4.90235l36.7688-22.07422L496.573,491.76278l.36865-.08887c.14991-.0371,15.00025-3.417,21.0857,12.81055,4.26147,11.36524,20.03149,36.07715,18.91894,52.77637a14.88461,14.88461,0,0,1-12.322,13.72754l-41.38818,23.71289A4.456,4.456,0,0,1,480.51218,595.63583Z" transform="translate(-272.5 -243.16024)"/><path fill="#ffb8b8" d="M484.63609,588.33293a10.05575,10.05575,0,0,0-14.47536-5.31221l-26.9865-23.42452-2.44163,18.40848,26.00117,19.4221a10.11027,10.11027,0,0,0,17.90232-9.09385Z" transform="translate(-272.5 -243.16024)"/><path fill="#ccc" d="M461.60593,595.63583a4.456,4.456,0,0,1-2.72388-.93457l-44.38818-21.71289a14.88461,14.88461,0,0,1-12.322-13.72754c-1.11255-16.69922,17.65747-43.41113,21.91894-54.77637,6.085-16.22754,20.93555-12.84863,21.0857-12.81055l.36865.08887L428.051,558.42391l39.7688,20.07422a4.472,4.472,0,0,1,1.30224,4.90235l-3.25732,9.22851a4.45263,4.45263,0,0,1-2.9624,2.81641A4.5348,4.5348,0,0,1,461.60593,595.63583Z" transform="translate(-272.5 -243.16024)"/><path fill="#0bef62" d="M514.55908,605.66016h-89a7.00818,7.00818,0,0,1-7-7v-49a7.00818,7.00818,0,0,1,7-7h89a7.00817,7.00817,0,0,1,7,7v49A7.00818,7.00818,0,0,1,514.55908,605.66016Z" transform="translate(-272.5 -243.16024)"/><circle cx="197.559" cy="331" r="6" fill="#fff"/><path fill="#2f2e41" d="M447.09061,453.82593c-1.45566-3.6923.93266-8.09242,4.47568-9.881s7.81846-1.44843,11.60824-.26964c3.18484.99063,6.16976,2.52588,9.27688,3.73845a20.76152,20.76152,0,0,0,9.75287,1.73691c3.31428-.37431,6.61291-2.23278,7.96907-5.28,1.40574-3.15859.44963-7.01316-1.71516-9.7088a18.79922,18.79922,0,0,0-8.61171-5.5348c-7.3075-2.57443-15.74829-2.64969-22.53234,1.0925s-11.39446,11.7102-9.99219,19.33" transform="translate(-272.5 -243.16024)"/><path fill="#e6e6e6" d="M305.16247,594.9787A122.0417,122.0417,0,0,1,315.263,556.46148q2.27961-5.09249,5.01813-9.96076a.7438.7438,0,0,0-1.28354-.75026,123.72825,123.72825,0,0,0-13.7678,37.98231q-1.03366,5.58356-1.55378,11.24593c-.08811.95214,1.39893.94613,1.48648,0Z" transform="translate(-272.5 -243.16024)"/><circle cx="51.381" cy="296.31" r="9.414" fill="#0bef62"/><path fill="#e6e6e6" d="M306.1255,595.22874a79.1741,79.1741,0,0,1,6.55267-24.98791q1.47889-3.30373,3.25549-6.462a.48254.48254,0,0,0-.83269-.48673,80.26852,80.26852,0,0,0-8.93181,24.64089q-.67059,3.62232-1.008,7.29576c-.05716.6177.90755.6138.96435,0Z" transform="translate(-272.5 -243.16024)"/><circle cx="45.769" cy="316.058" r="6.108" fill="#0bef62"/><path fill="#e6e6e6" d="M304.90835,594.6522a79.174,79.174,0,0,1-10.20241-23.73277q-.86592-3.51453-1.40763-7.09749a.48253.48253,0,0,0-.95592.12838,80.26809,80.26809,0,0,0,8.11306,24.92246q1.69919,3.26857,3.69252,6.37255c.33485.5222,1.09311-.07422.76038-.59313Z" transform="translate(-272.5 -243.16024)"/><circle cx="19.835" cy="315.629" r="6.108" fill="#0bef62"/><path fill="#f2f2f2" d="M286.15857,600.05591v-12a4.50508,4.50508,0,0,1,4.5-4.5h28a4.50508,4.50508,0,0,1,4.5,4.5v12a4.50508,4.50508,0,0,1-4.5,4.5h-28A4.50508,4.50508,0,0,1,286.15857,600.05591Z" transform="translate(-272.5 -243.16024)" style="isolation:isolate"/><path fill="#ff6584" d="M586.90885,614.06085c0,6.57707-5.33178,9.56657-11.90885,9.56657s-11.90885-2.9895-11.90885-9.56657S565.73756,599.80972,575,602.45614C584.26244,598.48652,586.90885,607.48377,586.90885,614.06085Z" transform="translate(-272.5 -243.16024)"/><path fill="#3f3d56" d="M574.41992,605.53711a1.90366,1.90366,0,0,1-1.89111-1.65918c-.39429-3.28125-2.56763-9.708-3.48364-12.31836l-.00025-.001a1.703,1.703,0,0,1,.22022-1.5664,1.78652,1.78652,0,0,1,2.66333-.19239,1.70477,1.70477,0,0,1,.46826,1.27637c-.17944,3.35059,2.26294,8.76465,3.73486,11.69434a1.90795,1.90795,0,0,1-1.50976,2.75586A1.76339,1.76339,0,0,1,574.41992,605.53711Z" transform="translate(-272.5 -243.16024)"/><path fill="#3f3d56" d="M583.232,598.14572c4.13393-3.38342.89056-10.30763-4.28341-8.9784a4.17809,4.17809,0,0,0-1.8637.99416c-3.17381,2.99811-3.66567,10.66906-3.66567,10.66906S579.02377,601.58992,583.232,598.14572Z" transform="translate(-272.5 -243.16024)"/></svg>