<svg xmlns="http://www.w3.org/2000/svg" xmlns:xlink="http://www.w3.org/1999/xlink" width="748.756" height="544" data-name="Layer 1" viewBox="0 0 748.756 544"><path id="afc9d580-0597-47f8-8d6e-fc257147a8f0-1884" fill="#f1f1f1" d="M572.58075,582.36055H229.6083a3.99154,3.99154,0,0,1-3.98633-3.98633V259.86559a3.99156,3.99156,0,0,1,3.98633-3.98632H572.58075a3.99156,3.99156,0,0,1,3.98633,3.98632V578.37346a3.99081,3.99081,0,0,1-3.98633,3.98634Z" data-name="Path 141" transform="translate(-225.62197 -178)"/><path id="e34981b4-331f-4814-b9c1-049fb16dec76-1885" fill="#fff" d="M626.64518,629.99047H283.67273a3.99153,3.99153,0,0,1-3.98633-3.98633V307.49552a3.99156,3.99156,0,0,1,3.98633-3.98633H626.64518a3.99156,3.99156,0,0,1,3.98633,3.98633V626.00339a3.99081,3.99081,0,0,1-3.98633,3.98633Z" data-name="Path 141" transform="translate(-225.62197 -178)"/><path id="a2600800-a3f4-47d1-8737-15b465535924-1886" fill="#e6e6e6" d="M626.64518,629.99047H283.67273a3.99153,3.99153,0,0,1-3.98633-3.98633V307.49552a3.99156,3.99156,0,0,1,3.98633-3.98633H626.64518a3.99156,3.99156,0,0,1,3.98633,3.98633V626.00339a3.99081,3.99081,0,0,1-3.98633,3.98633ZM283.67273,305.10058a2.39492,2.39492,0,0,0-2.38971,2.38971v318.5131a2.39492,2.39492,0,0,0,2.38971,2.38971H626.64518a2.39419,2.39419,0,0,0,2.38971-2.38971V307.49552a2.39493,2.39493,0,0,0-2.38971-2.38971Z" data-name="Path 141" transform="translate(-225.62197 -178)"/><path id="a8fe7ae2-6f47-45df-be8d-b892880563c0-1887" fill="#30ad29" d="M562.79568,446.29452H347.52223a3.9908,3.9908,0,0,1-3.98633-3.98633V347.835a3.99081,3.99081,0,0,1,3.98633-3.98633H562.79568A3.99081,3.99081,0,0,1,566.782,347.835v94.47318A3.9908,3.9908,0,0,1,562.79568,446.29452Z" data-name="Path 154" transform="translate(-225.62197 -178)"/><path id="b7bf9426-ca73-4358-890f-d1376d5f4b12-1888" fill="#fff" d="M380.90788,384.2455a2.70634,2.70634,0,0,0,0,5.41267H529.41a2.70634,2.70634,0,0,0,0-5.41267Z" data-name="Path 142" transform="translate(-225.62197 -178)"/><path id="b3681a75-ff01-4122-a583-752cbc1ce68c-1889" fill="#fff" d="M380.90788,400.485a2.70634,2.70634,0,0,0,0,5.41267h75.81335a2.70634,2.70634,0,0,0,0-5.41267Z" data-name="Path 143" transform="translate(-225.62197 -178)"/><path id="a75e283e-50b0-4235-b5a4-12e675701b13-1890" fill="#e6e6e6" d="M315.93782,481.11605a2.70634,2.70634,0,0,0,0,5.41267H594.38009a2.70634,2.70634,0,0,0,0-5.41267Z" data-name="Path 142" transform="translate(-225.62197 -178)"/><path id="e687bd99-3e2f-4168-8720-c6d93eec3351-1891" fill="#e6e6e6" d="M315.93782,497.35558a2.70634,2.70634,0,0,0,0,5.41267H521.69129a2.70634,2.70634,0,0,0,0-5.41267Z" data-name="Path 143" transform="translate(-225.62197 -178)"/><path id="fc98a7a5-65df-4714-b48f-420e305e1e91-1892" fill="#e6e6e6" d="M315.93782,513.22769a2.70634,2.70634,0,0,0,0,5.41267H594.38009a2.70634,2.70634,0,0,0,0-5.41267Z" data-name="Path 142" transform="translate(-225.62197 -178)"/><path id="b3271b61-6b23-4d85-98aa-a8ac62b2a491-1893" fill="#e6e6e6" d="M315.93782,529.46722a2.70634,2.70634,0,0,0,0,5.41267H521.69129a2.70634,2.70634,0,0,0,0-5.41267Z" data-name="Path 143" transform="translate(-225.62197 -178)"/><path id="aa38f211-9440-40aa-9a64-89f0e0d5fce4-1894" fill="#30ad29" d="M592.65838,592.651H511.059a3.9908,3.9908,0,0,1-3.98633-3.98633V575.59074a3.9908,3.9908,0,0,1,3.98633-3.98632h81.59942a3.9908,3.9908,0,0,1,3.98633,3.98632v13.07391A3.9908,3.9908,0,0,1,592.65838,592.651Z" data-name="Path 154" transform="translate(-225.62197 -178)"/><rect width="154.855" height="2" x="622.142" y="343.24" fill="#e5e5e5" transform="translate(-305.63694 178.35103) rotate(-27.09063)"/><rect width="2" height="154.855" x="698.57" y="522.312" fill="#e5e5e5" transform="translate(-378.52345 771.56669) rotate(-62.9181)"/><path fill="#f1f1f1" d="M974.378,283a105.09225,105.09225,0,0,1-57.24024,93.54c-.88964.46-1.79.91-2.68994,1.33-.52978.26-1.06006.5-1.58984.74-1.30029.59-2.62012,1.16-3.9502,1.69a101.52212,101.52212,0,0,1-14.56982,4.71c-.7002.18-1.41992.34-2.12988.5q-2.68506.59994-5.41016,1.04a105.57928,105.57928,0,0,1-30,.7q-3.10473-.36-6.16016-.92c-.96972-.18006-1.93994-.37006-2.8999-.57-.12988-.03-.25976-.06-.39013-.08a99.33113,99.33113,0,0,1-10.19971-2.72c-1.80029-.58-3.59033-1.2-5.34033-1.87994q-1.36451-.52506-2.69971-1.08c-.43994-.18-.87988-.37-1.31006-.56A105.00942,105.00942,0,1,1,974.378,283Z" transform="translate(-225.62197 -178)"/><path fill="#f1f1f1" d="M974.378,617a105.3313,105.3313,0,0,1-44.97022,86.17c-.25976.18-.52.36-.77978.53-1.52,1.05-3.07031,2.06-4.66016,3.01-1.00976.62006-2.04,1.22-3.06982,1.81006-1.24024.69995-2.49024,1.37-3.76026,2.02-.29.15-.58007.3-.87988.44-1.06006.54-2.12988,1.06-3.21972,1.55-.06006.03-.12012.05-.18018.08-.35986.16-.73.33-1.10986.49-2.3501,1.04-4.75,2-7.2002,2.86-.16992.07-.3501.13-.53027.19a101.16971,101.16971,0,0,1-17.25,4.4c-1.10987.2-2.22949.36-3.34961.51-.18018.03-.37012.06-.55029.08-1.52979.2-3.06983.36-4.61963.49-.18018.02-.36036.03-.54.04-1.16016.1-2.33008.17-3.51026.22-1.60009.07-3.1997.11-4.81982.11q-3.405,0-6.77-.21c-1.9502-.13-3.89014-.3-5.81006-.54-1.16992-.14-2.33984-.3-3.49023-.48-1.26953-.19-2.54-.41-3.79-.65-.61963-.12-1.23975-.25-1.85987-.38-.10009-.02-.21-.04-.31005-.06-1-.21-1.98975-.43-2.96973-.68a100.54253,100.54253,0,0,1-11.46-3.5q-1.92042-.72-3.81006-1.5c-.39014-.16-.78027-.33-1.16016-.5-.68994-.29-1.37011-.6-2.0498-.91-.51026-.23-1.02-.47-1.53027-.71-1.07959-.5-2.13965-1.03-3.19971-1.58-.8501-.43-1.7002-.89-2.53028-1.35-.02-.01-.02978-.02-.0498-.03A105.00789,105.00789,0,1,1,974.378,617Z" transform="translate(-225.62197 -178)"/><path fill="#2f2e41" d="M868.73789,264.49a28.51395,28.51395,0,0,0-28.48,28.48v21.25a3.82833,3.82833,0,0,0,3.83008,3.82h49.2998a3.828,3.828,0,0,0,3.83008-3.82V292.97A28.51717,28.51717,0,0,0,868.73789,264.49Z" transform="translate(-225.62197 -178)"/><path fill="#2f2e41" d="M854.18809,353.9l-2.73-12.3a9.01243,9.01243,0,0,0-2.57032-4.58,10.85281,10.85281,0,0,0-3.9497-2.19c-.17041-.04-.34033-.08-.52-.11005a1.92116,1.92116,0,0,0-.23-.05,9.01476,9.01476,0,0,0-10.52,8.04l-2.32031,14.51L827.798,379.44c.43018.19.87012.38,1.31006.56q1.33521.555,2.69971,1.08c1.75.68,3.54,1.3,5.34033,1.87994a99.33113,99.33113,0,0,0,10.19971,2.72c.13037.02.26025.05.39013.08.96.2,1.93018.38995,2.8999.57l4.8501-26.57Z" transform="translate(-225.62197 -178)"/><circle cx="636.09" cy="118.843" r="20.879" fill="#ffb7b7"/><path fill="#30ad29" d="M884.27793,366.72l-4.46-35.16-.93994-7.45h-.01025l-.41993-.01c-1.41992-.05-2.7998-.06-4.15966-.01a46.849,46.849,0,0,0-23.71045,6.56,44.622,44.622,0,0,0-5.35987,3.84l-.08008.08-.1997.26-7.09033,9.12-.00977.18-.68994,38.83a99.33113,99.33113,0,0,0,10.19971,2.72c.13037.02.26025.05.39013.08.96.2,1.93018.38995,2.8999.57q3.06006.555,6.16016.92a105.57928,105.57928,0,0,0,30-.7Z" transform="translate(-225.62197 -178)"/><path fill="#2f2e41" d="M891.57774,331.79a23.33074,23.33074,0,0,0-12.69971-7.68h-.01025a22.45932,22.45932,0,0,0-4.02-.53l-.34961-.01-.21.52-16.8003,40.5-2.71-10.82L850.57774,330.65l-.02979-.17-.62988.37a37.14924,37.14924,0,0,0-5.5,3.87A37.59759,37.59759,0,0,0,831.588,357.26a38.3,38.3,0,0,0-.47021,7.88995l.68994,15.93006c1.75.68,3.54,1.3,5.34033,1.87994a99.33113,99.33113,0,0,0,10.19971,2.72c.13037.02.26025.05.39013.08.96.2,1.93018.38995,2.8999.57q3.06006.555,6.16016.92a105.57928,105.57928,0,0,0,30-.7q2.72974-.435,5.41016-1.04c.71-.16,1.42968-.32,2.12988-.5l-1.51025-4.45,4-30.89A23.1858,23.1858,0,0,0,891.57774,331.79Z" transform="translate(-225.62197 -178)"/><path fill="#2f2e41" d="M896.53819,332.65A8.99051,8.99051,0,0,0,885.59776,326.76a8.18857,8.18857,0,0,0-1.05957.35,8.9958,8.9958,0,0,0-5.6001,8.35l.04,18.69,5.2998,12.57,7.93018,18.79c.71-.16,1.42968-.32,2.12988-.5a101.52212,101.52212,0,0,0,14.56982-4.71c1.33008-.53,2.64991-1.1,3.9502-1.69.52978-.24,1.06006-.48,1.58984-.74Z" transform="translate(-225.62197 -178)"/><path fill="#2f2e41" d="M860.30772,272.14H856.048a22.52766,22.52766,0,0,0-22.52,22.53v.42h30.1499l.31006-4.33,1.54,4.33h4.64014l.62012-8.58,3.05957,8.58h8.98v-.42A22.55067,22.55067,0,0,0,860.30772,272.14Z" transform="translate(-225.62197 -178)"/><path fill="#2f2e41" d="M851.15781,655.88A26.46127,26.46127,0,0,0,822.838,680.99l-1.66992,29.31c1.06006.55,2.12012,1.08,3.19971,1.58.51025.24,1.02.48,1.53027.71.67969.31,1.35986.62,2.0498.91.37989.17.77.34,1.16016.5q1.88966.78,3.81006,1.5a100.54253,100.54253,0,0,0,11.46,3.5c.98.25,1.96973.47,2.96973.68.10009.02.21.04.31005.06.62012.13,1.24024.26,1.85987.38l2.12011-64.21Z" transform="translate(-225.62197 -178)"/><path fill="#2f2e41" d="M878.24791,721.63c1.55-.13,3.09-.29,4.62-.49.18-.02.37-.05.55-.08,1.12-.15,2.24-.31,3.35-.51.09-2.71.06-4.66.06-4.9l4.97-51.79-10.36-6.04-2.02-1.18-31.32-1.01-.26.22-15.04,13.04-4.85,44.61c.38.17.77.34,1.16.5q1.89.78,3.81,1.5a100.57028,100.57028,0,0,0,11.46,3.5c.98.25,1.97.47,2.97.68.1.02.21.04.31.06.62.13,1.24.26,1.86.38,1.25.24,2.52.46,3.79.65,1.15.18,2.32.34,3.49.48,1.92.24,3.86.41,5.81.54q3.36.21,6.77.21c1.62,0,3.22-.04,4.82-.11,1.18-.05,2.35-.12,3.51-.22Z" transform="translate(-225.62197 -178)"/><path fill="#2f2e41" d="M899.19785,668.32l-17.73974-10.84-.02.34-3.18994,63.81c1.5498-.13,3.08984-.29,4.61963-.49.18017-.02.37011-.05.55029-.08,1.12012-.15,2.23974-.31,3.34961-.51a101.16971,101.16971,0,0,0,17.25-4.4c.18017-.06.36035-.12.53027-.19l1.25977-35.78A13.09559,13.09559,0,0,0,899.19785,668.32Z" transform="translate(-225.62197 -178)"/><circle cx="634.638" cy="448.716" r="22.008" fill="#9f616a"/><path fill="#2f2e41" d="M852.3026,594.21907c22.16479-6.39173,28.4563,11.97906,28.4563,11.97906,10.68383,7.08808,3.99487,15.97473,3.99487,15.97473,2.6958.59882-2.69434,16.37458-4.4917,15.97535-.959-.21308-3.425,2.73059-5.5166,5.52227a11.06963,11.06963,0,0,0-2.13672.20539l4.05811-15.01288s-13.67872-2.09564-17.87256-8.68506c-4.01245-6.3042-17.22119-8.29456-20.98023-4.08362a9.50471,9.50471,0,0,0-1.34057-3.40387,6.80078,6.80078,0,0,0-1.97095-1.97607C837.826,596.59041,852.3026,594.21907,852.3026,594.21907Z" transform="translate(-225.62197 -178)"/><path d="M877.70811,721.67c-1.16016.1-2.33008.17-3.51026.22l3.08008-16.92v1.17Z" opacity=".2" transform="translate(-225.62197 -178)"/></svg>