<svg xmlns="http://www.w3.org/2000/svg" xmlns:xlink="http://www.w3.org/1999/xlink" width="839.797" height="523.444" data-name="Layer 1" viewBox="0 0 839.797 523.444"><path fill="#f0f0f0" d="M259.30182,695.092a50.79366,50.79366,0,0,0,13.58985,12.63c1.12011.71,2.27,1.38,3.43994,2h27.52978c-.32959-.66-.6499-1.33-.96-2a95.35442,95.35442,0,0,1,19.84033-109.34c-16.64013,5.14-32.02,15.16-42.08008,29.37a64.46989,64.46989,0,0,0-10.23,23,96.27579,96.27579,0,0,1,7.66993-48.41c-13.50977,10.99-24.03028,26.04-28.04,42.98C246.05182,662.272,248.96149,681.082,259.30182,695.092Z" transform="translate(-180.10152 -188.27796)"/><path fill="#fff" d="M1015.54573,469.26684H828.37712a4.35775,4.35775,0,0,1-4.35276-4.35276V349.13072a4.35775,4.35775,0,0,1,4.35276-4.35276h187.16861a4.35774,4.35774,0,0,1,4.35275,4.35276V464.91408A4.35774,4.35774,0,0,1,1015.54573,469.26684Z" transform="translate(-180.10152 -188.27796)"/><path fill="#3f3d56" d="M1015.54573,469.26684H828.37712a4.35775,4.35775,0,0,1-4.35276-4.35276V349.13072a4.35775,4.35775,0,0,1,4.35276-4.35276h187.16861a4.35774,4.35774,0,0,1,4.35275,4.35276V464.91408A4.35774,4.35774,0,0,1,1015.54573,469.26684ZM828.37712,346.51906a2.61451,2.61451,0,0,0-2.61165,2.61166V464.91408a2.61451,2.61451,0,0,0,2.61165,2.61166h187.16861a2.61451,2.61451,0,0,0,2.61165-2.61166V349.13072a2.61451,2.61451,0,0,0-2.61165-2.61166Z" transform="translate(-180.10152 -188.27796)"/><path fill="#ccc" d="M978.54728,383.44633H865.37557a3.91748,3.91748,0,1,1,0-7.835H978.54728a3.91748,3.91748,0,0,1,0,7.835Z" transform="translate(-180.10152 -188.27796)"/><path fill="#ccc" d="M978.54728,410.43343H865.37557a3.91748,3.91748,0,1,1,0-7.835H978.54728a3.91748,3.91748,0,0,1,0,7.835Z" transform="translate(-180.10152 -188.27796)"/><circle cx="788.363" cy="250.944" r="14" fill="#0bef62"/><path fill="#fff" d="M968.84939,432.6268V431.293h.39488v1.33382a4.25848,4.25848,0,0,1,1.61464.39489,2.372,2.372,0,0,1,.92139.768,1.79468,1.79468,0,0,1,.33346,1.0485,1.13131,1.13131,0,0,1-.25887.75466.801.801,0,0,1-.6362.30713.66792.66792,0,0,1-.49141-.20183.67875.67875,0,0,1-.20183-.50018.94972.94972,0,0,1,.079-.37733l.158-.33346a1.10866,1.10866,0,0,0,.079-.43876,1.03337,1.03337,0,0,0-.21061-.64483,1.27287,1.27287,0,0,0-.59671-.417,3.37919,3.37919,0,0,0-.78977-.158v4.8l.08776.05265a8.74061,8.74061,0,0,1,2.22011,1.67606,3.942,3.942,0,0,1,.67131,1.13653,3.48548,3.48548,0,0,1,.24131,1.25909,3.05619,3.05619,0,0,1-.42121,1.58831,2.85171,2.85171,0,0,1-1.16709,1.0969,4.92848,4.92848,0,0,1-1.63219.47386v1.43035h-.39488v-1.404a4.40491,4.40491,0,0,1-1.66728-.34223,3.15528,3.15528,0,0,1-1.347-.96527,2.18559,2.18559,0,0,1-.47825-1.3777,1.55743,1.55743,0,0,1,.30713-.97857.91445.91445,0,0,1,.74589-.39913.64469.64469,0,0,1,.66692.66549,1.30412,1.30412,0,0,1-.32469.72665,2.20278,2.20278,0,0,0-.24131.4028.89954.89954,0,0,0-.06582.35016,1.41757,1.41757,0,0,0,.31152.87978,1.98877,1.98877,0,0,0,.838.62587,3.08659,3.08659,0,0,0,1.18465.21032h.0702v-5.73019l-.50018-.28958q-.71079-.41229-1.08374-.68446a4.52619,4.52619,0,0,1-.6713-.59671,2.88251,2.88251,0,0,1-.781-1.98319,2.69087,2.69087,0,0,1,.33346-1.31175,2.61657,2.61657,0,0,1,.92139-.97857A3.75,3.75,0,0,1,968.84939,432.6268Zm0,.19306a2.71562,2.71562,0,0,0-.98721.21909,1.68175,1.68175,0,0,0-.734.70938,2.17061,2.17061,0,0,0-.27953,1.09463,2.22358,2.22358,0,0,0,.41059,1.305,2.6476,2.6476,0,0,0,.51109.552,9.52086,9.52086,0,0,0,.99173.64795l.08733.05265Zm.39488,11.89913a2.72113,2.72113,0,0,0,.66394-.1404,1.74956,1.74956,0,0,0,.48052-.2808,2.17254,2.17254,0,0,0,.61157-.85544,2.94766,2.94766,0,0,0,.22716-1.15408,3.62464,3.62464,0,0,0-1.98319-3.03621Z" transform="translate(-180.10152 -188.27796)"/><path fill="#fff" d="M888.04573,391.76684H700.87712a4.35775,4.35775,0,0,1-4.35276-4.35276V271.63072a4.35775,4.35775,0,0,1,4.35276-4.35276H888.04573a4.35774,4.35774,0,0,1,4.35275,4.35276V387.41408A4.35774,4.35774,0,0,1,888.04573,391.76684Z" transform="translate(-180.10152 -188.27796)"/><path fill="#3f3d56" d="M888.04573,391.76684H700.87712a4.35775,4.35775,0,0,1-4.35276-4.35276V271.63072a4.35775,4.35775,0,0,1,4.35276-4.35276H888.04573a4.35774,4.35774,0,0,1,4.35275,4.35276V387.41408A4.35774,4.35774,0,0,1,888.04573,391.76684ZM700.87712,269.01906a2.61451,2.61451,0,0,0-2.61165,2.61166V387.41408a2.61451,2.61451,0,0,0,2.61165,2.61166H888.04573a2.61451,2.61451,0,0,0,2.61165-2.61166V271.63072a2.61451,2.61451,0,0,0-2.61165-2.61166Z" transform="translate(-180.10152 -188.27796)"/><path fill="#ccc" d="M851.04728,305.94633H737.87557a3.91748,3.91748,0,1,1,0-7.835H851.04728a3.91748,3.91748,0,0,1,0,7.835Z" transform="translate(-180.10152 -188.27796)"/><path fill="#ccc" d="M851.04728,332.93343H737.87557a3.91748,3.91748,0,1,1,0-7.835H851.04728a3.91748,3.91748,0,0,1,0,7.835Z" transform="translate(-180.10152 -188.27796)"/><circle cx="660.863" cy="173.444" r="14" fill="#0bef62"/><path fill="#fff" d="M841.34939,355.1268V353.793h.39488v1.33382a4.25848,4.25848,0,0,1,1.61464.39489,2.372,2.372,0,0,1,.92139.768,1.79468,1.79468,0,0,1,.33346,1.0485,1.13131,1.13131,0,0,1-.25887.75466.801.801,0,0,1-.6362.30713.66792.66792,0,0,1-.49141-.20183.67875.67875,0,0,1-.20183-.50018.94972.94972,0,0,1,.079-.37733l.158-.33346a1.10866,1.10866,0,0,0,.079-.43876,1.03337,1.03337,0,0,0-.21061-.64483,1.27287,1.27287,0,0,0-.59671-.417,3.37919,3.37919,0,0,0-.78977-.158v4.8l.08776.05265a8.74061,8.74061,0,0,1,2.22011,1.67606,3.942,3.942,0,0,1,.67131,1.13653,3.48548,3.48548,0,0,1,.24131,1.25909,3.05619,3.05619,0,0,1-.42121,1.58831,2.85171,2.85171,0,0,1-1.16709,1.0969,4.92848,4.92848,0,0,1-1.63219.47386v1.43035h-.39488v-1.404a4.40491,4.40491,0,0,1-1.66728-.34223,3.15528,3.15528,0,0,1-1.347-.96527,2.18559,2.18559,0,0,1-.47825-1.3777,1.55743,1.55743,0,0,1,.30713-.97857.91445.91445,0,0,1,.74589-.39913.64469.64469,0,0,1,.66692.66549,1.30412,1.30412,0,0,1-.32469.72665,2.20278,2.20278,0,0,0-.24131.4028.89954.89954,0,0,0-.06582.35016,1.41757,1.41757,0,0,0,.31152.87978,1.98877,1.98877,0,0,0,.838.62587,3.08659,3.08659,0,0,0,1.18465.21032h.0702v-5.73019l-.50018-.28958q-.71079-.41229-1.08374-.68446a4.52619,4.52619,0,0,1-.6713-.59671,2.88251,2.88251,0,0,1-.781-1.98319,2.69087,2.69087,0,0,1,.33346-1.31175,2.61657,2.61657,0,0,1,.92139-.97857A3.75,3.75,0,0,1,841.34939,355.1268Zm0,.19306a2.71562,2.71562,0,0,0-.98721.21909,1.68175,1.68175,0,0,0-.734.70938,2.17061,2.17061,0,0,0-.27953,1.09463,2.22358,2.22358,0,0,0,.41059,1.305,2.6476,2.6476,0,0,0,.51109.552,9.52086,9.52086,0,0,0,.99173.64795l.08733.05265Zm.39488,11.89913a2.72113,2.72113,0,0,0,.66394-.1404,1.74956,1.74956,0,0,0,.48052-.2808,2.17254,2.17254,0,0,0,.61157-.85544,2.94766,2.94766,0,0,0,.22716-1.15408,3.62464,3.62464,0,0,0-1.98319-3.03621Z" transform="translate(-180.10152 -188.27796)"/><path fill="#ffb6b6" d="M500.04705,374.49034a11.18294,11.18294,0,0,0-11.92823,12.31914l-35.98248,16.86895,17.6119,10.78392L501.21773,396.79a11.24355,11.24355,0,0,0-1.17068-22.29968Z" transform="translate(-180.10152 -188.27796)"/><polygon fill="#ffb6b6" points="171.049 510.77 183.476 510.769 189.388 462.837 171.047 462.838 171.049 510.77"/><path fill="#2f2e41" d="M347.981,694.99057l24.47283-.001h.001a15.59684,15.59684,0,0,1,15.596,15.59575v.50681l-40.06908.00149Z" transform="translate(-180.10152 -188.27796)"/><polygon fill="#ffb6b6" points="234.459 510.77 246.886 510.769 252.798 462.837 234.457 462.838 234.459 510.77"/><path fill="#2f2e41" d="M411.391,694.99057l24.47283-.001h.001a15.59684,15.59684,0,0,1,15.596,15.59575v.50681l-40.06908.00149Z" transform="translate(-180.10152 -188.27796)"/><polygon fill="#2f2e41" points="242.76 262.159 249.067 275.738 260.438 397.176 251.599 501.554 230.926 501.554 206.532 337.03 195.074 497.764 167.18 496.638 161.825 278.718 242.76 262.159"/><path fill="#e4e4e4" d="M322.35011,338.37232l26.14948-10.63882,36.90884,2.07,32.81286,11.95777L429.16882,464.016c-28.5463,15.58821-57.46265,19.84291-86.88214,8.69662l-27.30385-79.62774Z" transform="translate(-180.10152 -188.27796)"/><path fill="#e4e4e4" d="M408.01258,344.99321l11.60412-3.232s8.777-5.70687,11.66475,11.25755,17.74674,43.35179,17.74674,43.35179l25.43689-13.55623,11.77684,25.71876-40.17082,24.3336-42.30322-42.62435Z" transform="translate(-180.10152 -188.27796)"/><path id="a80a6b0c-a21b-4eb6-b764-70793a425e46-700" fill="#ffb6b6" d="M344.36137,305.08309h0a26.60911,26.60911,0,1,1,48.69886-21.4616l.15213.352a26.61391,26.61391,0,1,1-48.86107,21.11392Z" data-name="Path 40" transform="translate(-180.10152 -188.27796)"/><path id="b51b91e7-03ed-46d5-9b2a-c48431fd2f0d-701" fill="#2f2e41" d="M380.48666,280.72968c5.53288,1.00387,14.09526,4.48722,18.84719.40069a23.29107,23.29107,0,0,0-8.623-6.30727,5.31442,5.31442,0,0,1-1.78491-1.00876c-1.62011-1.63724-.36833-4.45837-1.10968-6.672a5.71717,5.71717,0,0,0-3.93656-3.24591c-1.64929-.49349-3.3776-.57358-4.99779-1.172-3.8341-1.441-6.55991-5.56482-10.49-6.68541-3.42422-.99049-6.86978.54889-9.825,2.3453s-5.87861,3.92779-9.33592,4.26872c-2.58351.23566-4.219,4.48522-6.81269,4.60972-5.43518.2644-5.13334-3.31789-5.53535,2.392-.232,3.4073-5.10057,10.18578-5.0215,13.62274.08048,2.25207-.31795,4.4826-.2537,6.74168a17.51461,17.51461,0,0,0,4.84751,11.51147c2.47446,2.54466,5.69295,4.261,7.77591,7.16149,1.08319,1.53982,1.83464,3.33723,3.09558,4.73049s3.39672,2.23181,4.80406,1.23711,1.43356-3.14743,2.13182-4.78553a5.23317,5.23317,0,0,1,5.20088-3.166,6.12882,6.12882,0,0,1,5.0008,4.08254c-.659-3.62008-2.39634-7.012-3.05657-10.63483s.20019-7.95066,3.31979-9.36513c1.33937-.62327,3.1487-.79073,3.68711-2.22693.32959-.86507.02807-1.88717.15511-2.8228C369.25528,281.1561,376.879,280.02172,380.48666,280.72968Z" data-name="Path 72" transform="translate(-180.10152 -188.27796)"/><path fill="#ffb6b6" d="M345.42185,471.2991a11.18295,11.18295,0,0,0-14.61214-8.97379l-24.26862-31.46958-6.70925,19.531,24.07449,26.88974a11.24355,11.24355,0,0,0,21.51552-5.97733Z" transform="translate(-180.10152 -188.27796)"/><path fill="#e4e4e4" d="M330.73254,344.30787l-8.38243-5.93555s-19.17686-1.09855-21.96661,14.64645l-35.16332,57.84515,43.59811,60.14755,21.13747-22.25082-26.671-31.1678L325.678,376.47733Z" transform="translate(-180.10152 -188.27796)"/><path fill="#3f3d56" d="M534.95585,353.47372h-.43976V341.42666a6.9725,6.9725,0,0,0-6.9725-6.97251H502.02026a6.9725,6.9725,0,0,0-6.97252,6.97249v66.0911a6.97251,6.97251,0,0,0,6.9725,6.97252h25.52331a6.97251,6.97251,0,0,0,6.97253-6.97249V362.049h.43977Z" transform="translate(-180.10152 -188.27796)"/><path fill="#0bef62" d="M527.8249,336.26815h-3.33163a2.47382,2.47382,0,0,1-2.29043,3.40813h-14.622a2.47384,2.47384,0,0,1-2.29043-3.40813h-3.11175a5.207,5.207,0,0,0-5.207,5.207v65.99413a5.207,5.207,0,0,0,5.207,5.207H527.8249a5.207,5.207,0,0,0,5.207-5.207h0V341.47514A5.207,5.207,0,0,0,527.8249,336.26815Z" transform="translate(-180.10152 -188.27796)"/><path fill="#fff" d="M758.04573,312.76684H570.87712a4.35775,4.35775,0,0,1-4.35276-4.35276V192.63072a4.35775,4.35775,0,0,1,4.35276-4.35276H758.04573a4.35774,4.35774,0,0,1,4.35275,4.35276V308.41408A4.35774,4.35774,0,0,1,758.04573,312.76684Z" transform="translate(-180.10152 -188.27796)"/><path fill="#3f3d56" d="M758.04573,312.76684H570.87712a4.35775,4.35775,0,0,1-4.35276-4.35276V192.63072a4.35775,4.35775,0,0,1,4.35276-4.35276H758.04573a4.35774,4.35774,0,0,1,4.35275,4.35276V308.41408A4.35774,4.35774,0,0,1,758.04573,312.76684ZM570.87712,190.01906a2.61451,2.61451,0,0,0-2.61165,2.61166V308.41408a2.61451,2.61451,0,0,0,2.61165,2.61166H758.04573a2.61451,2.61451,0,0,0,2.61165-2.61166V192.63072a2.61451,2.61451,0,0,0-2.61165-2.61166Z" transform="translate(-180.10152 -188.27796)"/><path fill="#ccc" d="M721.04728,226.94633H607.87557a3.91748,3.91748,0,1,1,0-7.835H721.04728a3.91748,3.91748,0,0,1,0,7.835Z" transform="translate(-180.10152 -188.27796)"/><path fill="#ccc" d="M721.04728,253.93343H607.87557a3.91748,3.91748,0,1,1,0-7.835H721.04728a3.91748,3.91748,0,0,1,0,7.835Z" transform="translate(-180.10152 -188.27796)"/><circle cx="530.863" cy="94.444" r="14" fill="#0bef62"/><path fill="#fff" d="M711.34939,276.1268V274.793h.39488v1.33382a4.25848,4.25848,0,0,1,1.61464.39489,2.372,2.372,0,0,1,.92139.768,1.79468,1.79468,0,0,1,.33346,1.0485,1.13131,1.13131,0,0,1-.25887.75466.801.801,0,0,1-.6362.30713.66792.66792,0,0,1-.49141-.20183.67875.67875,0,0,1-.20183-.50018.94972.94972,0,0,1,.079-.37733l.158-.33346a1.10866,1.10866,0,0,0,.079-.43876,1.03337,1.03337,0,0,0-.21061-.64483,1.27287,1.27287,0,0,0-.59671-.417,3.37919,3.37919,0,0,0-.78977-.158v4.8l.08776.05265a8.74061,8.74061,0,0,1,2.22011,1.67606,3.942,3.942,0,0,1,.67131,1.13653,3.48548,3.48548,0,0,1,.24131,1.25909,3.05619,3.05619,0,0,1-.42121,1.58831,2.85171,2.85171,0,0,1-1.16709,1.0969,4.92848,4.92848,0,0,1-1.63219.47386v1.43035h-.39488v-1.404a4.40491,4.40491,0,0,1-1.66728-.34223,3.15528,3.15528,0,0,1-1.347-.96527,2.18559,2.18559,0,0,1-.47825-1.3777,1.55743,1.55743,0,0,1,.30713-.97857.91445.91445,0,0,1,.74589-.39913.64469.64469,0,0,1,.66692.66549,1.30412,1.30412,0,0,1-.32469.72665,2.20278,2.20278,0,0,0-.24131.4028.89954.89954,0,0,0-.06582.35016,1.41757,1.41757,0,0,0,.31152.87978,1.98877,1.98877,0,0,0,.838.62587,3.08659,3.08659,0,0,0,1.18465.21032h.0702v-5.73019l-.50018-.28958q-.71079-.41229-1.08374-.68446a4.52619,4.52619,0,0,1-.6713-.59671,2.88251,2.88251,0,0,1-.781-1.98319,2.69087,2.69087,0,0,1,.33346-1.31175,2.61657,2.61657,0,0,1,.92139-.97857A3.75,3.75,0,0,1,711.34939,276.1268Zm0,.19306a2.71562,2.71562,0,0,0-.98721.21909,1.68175,1.68175,0,0,0-.734.70938,2.17061,2.17061,0,0,0-.27953,1.09463,2.22358,2.22358,0,0,0,.41059,1.305,2.6476,2.6476,0,0,0,.51109.552,9.52086,9.52086,0,0,0,.99173.64795l.08733.05265Zm.39488,11.89913a2.72113,2.72113,0,0,0,.66394-.1404,1.74956,1.74956,0,0,0,.48052-.2808,2.17254,2.17254,0,0,0,.61157-.85544,2.94766,2.94766,0,0,0,.22716-1.15408,3.62464,3.62464,0,0,0-1.98319-3.03621Z" transform="translate(-180.10152 -188.27796)"/><path fill="#cacaca" d="M562.10152,711.722h-381a1,1,0,0,1,0-2h381a1,1,0,0,1,0,2Z" transform="translate(-180.10152 -188.27796)"/></svg>