<svg xmlns="http://www.w3.org/2000/svg" xmlns:xlink="http://www.w3.org/1999/xlink" width="590.819" height="646.936" data-name="Layer 1" viewBox="0 0 590.819 646.936"><circle cx="119.021" cy="512.164" r="14.92" fill="#f0f0f0" style="isolation:isolate"/><circle cx="91.407" cy="519.29" r="10.466" fill="#f0f0f0" style="isolation:isolate"/><circle cx="112.915" cy="50" r="12" fill="#ccc"/><circle cx="544.915" cy="190" r="12" fill="#ccc"/><rect width="20" height="20" x="111.915" y="277" fill="#ccc"/><polygon fill="#ccc" points="8.915 130 6.915 130 6.915 0 134.915 0 134.915 2 8.915 2 8.915 130"/><polygon fill="#ccc" points="590.819 130 588.819 130 588.819 2 462.819 2 462.819 0 590.819 0 590.819 130"/><polygon fill="#ccc" points="8.915 240 6.915 240 6.915 370 134.915 370 134.915 368 8.915 368 8.915 240"/><polygon fill="#ccc" points="590.819 240 588.819 240 588.819 368 462.819 368 462.819 370 590.819 370 590.819 240"/><rect width="140" height="2" x="42.915" y="61" fill="#ccc"/><rect width="2" height="18.5" x="80.915" y="43" fill="#ccc"/><rect width="2" height="18.5" x="141.915" y="43" fill="#ccc"/><rect width="140" height="2" x="420.915" y="202" fill="#ccc"/><rect width="2" height="18.5" x="458.915" y="184" fill="#ccc"/><rect width="2" height="18.5" x="519.915" y="184" fill="#ccc"/><rect width="140" height="2" x="51.915" y="296" fill="#ccc"/><rect width="2" height="18.5" x="89.915" y="278" fill="#ccc"/><rect width="2" height="18.5" x="150.915" y="278" fill="#ccc"/><ellipse cx="296.807" cy="405.436" fill="#3f3d56" rx="56" ry="13"/><rect width="54.148" height="2" x="592.324" y="663.468" fill="#cacaca" transform="translate(-351.90571 -79.04478) rotate(-4.22916)"/><rect width="2" height="22.825" x="565.398" y="649.555" fill="#cacaca" transform="translate(-590.30121 712.18978) rotate(-61.18921)"/><rect width="18" height="2" x="290.807" y="520.936" fill="#cacaca"/><polygon fill="#cacaca" points="243.805 646.004 241.809 645.868 256.809 416.868 258.805 417.004 243.805 646.004"/><polygon fill="#cacaca" points="317.808 645.985 307.808 434.985 309.806 434.887 319.806 645.887 317.808 645.985"/><rect width="2" height="230.783" x="649.898" y="542.076" fill="#cacaca" transform="translate(-356.50794 -70.71426) rotate(-4.72229)"/><polygon fill="#cacaca" points="274.807 645.96 272.807 645.912 278.807 434.912 280.807 434.96 274.807 645.96"/><polygon fill="#ffb6b6" points="265.236 513.691 251.954 521.557 215.29 474.07 234.894 462.459 265.236 513.691"/><path fill="#2f2e41" d="M580.83992,651.09122l-42.82736,25.3656-.32085-.54169a19.375,19.375,0,0,1,6.79577-26.54258l.00106-.00063,26.15755-15.49235Z" transform="translate(-304.5906 -126.53203)"/><polygon fill="#ffb6b6" points="329.378 513.691 342.66 521.557 379.324 474.07 359.721 462.459 329.378 513.691"/><path fill="#2f2e41" d="M633.14928,633.87957l26.15754,15.49235.00106.00063a19.375,19.375,0,0,1,6.79578,26.54258l-.32085.54169-42.82736-25.3656Z" transform="translate(-304.5906 -126.53203)"/><path fill="#2f2e41" d="M643.09657,459.032s-43.33516,30.52256-85.517,2.97925l-.65992,19.20056S466.56537,519.532,481.39768,549.468s46,61,46,61l17-14-19-48,51.68187-21.89452,45.05555.22679,62.82634,25.42864-30,45,26.43624,8.23909s63-58,49.5-74.5c-10.82077-13.22539-75.59448-42.878-75.59448-42.878Z" transform="translate(-304.5906 -126.53203)"/><path fill="#0bef62" d="M658.17747,347.05953l-37.50855-12.43378L611.39768,321.468h-27l-7.99951,13.366L541.6179,347.05953a7.99991,7.99991,0,0,0-5.686,9.04718L551.39768,483.468l25-2s33.68189,26.28192,54-4l1.085-15.27057,20.915,20.27057L663.8635,356.10671A7.9999,7.9999,0,0,0,658.17747,347.05953Z" transform="translate(-304.5906 -126.53203)"/><path fill="#2f2e41" d="M629.38,260.69161c-11.08984-18.7384-33.03021-19.61169-33.03021-19.61169s-21.37964-2.734-35.09454,25.80481c-12.78339,26.60052-30.42609,43.28387-2.84033,49.51086l4.98278-15.50867,3.08582,16.66327a107.9348,107.9348,0,0,0,11.80292.20172c29.54211-.95379,57.67651.27906,56.77063-10.3219C633.85282,293.33755,640.05064,278.7217,629.38,260.69161Z" transform="translate(-304.5906 -126.53203)"/><circle cx="294.307" cy="160.855" r="29" fill="#ffb8b8"/><polygon fill="#2f2e41" points="320.886 131.353 299.21 119.999 269.277 124.644 263.084 151.997 278.5 151.404 282.807 141.355 282.807 151.239 289.921 150.965 294.049 134.966 296.63 151.997 321.919 151.481 320.886 131.353"/><path d="M553.57955,374.532l22.5,87.991S565.57955,385.532,553.57955,374.532Z" opacity=".2" transform="translate(-304.5906 -126.53203)" style="isolation:isolate"/><path d="M620.71582,463.523l22.5-87.991C631.21582,386.532,620.71582,463.523,620.71582,463.523Z" opacity=".2" transform="translate(-304.5906 -126.53203)" style="isolation:isolate"/><path fill="#ffb6b6" d="M625.95551,540.393a9.377,9.377,0,0,0,3.01578-14.05864L649.39768,470.468,633.7622,462.5082l-18.53953,62.542A9.42779,9.42779,0,0,0,625.95551,540.393Z" transform="translate(-304.5906 -126.53203)"/><path fill="#0bef62" d="M645.69234,369.0349l-22.78959,99.10187a4,4,0,0,0,2.99509,4.73322l21.94756,3.16215a4,4,0,0,0,4.87482-3.32253L659.39768,369.468Z" transform="translate(-304.5906 -126.53203)"/><path fill="#ffb6b6" d="M573.83985,542.393a9.377,9.377,0,0,1-3.01577-14.05864L550.39768,472.468l15.63548-7.95977,18.53954,62.542A9.42779,9.42779,0,0,1,573.83985,542.393Z" transform="translate(-304.5906 -126.53203)"/><path fill="#0bef62" d="M554.103,371.0349l22.7896,99.10187a4,4,0,0,1-2.99509,4.73322L551.95,478.03214a4,4,0,0,1-4.87483-3.32253L538.39768,371.468Z" transform="translate(-304.5906 -126.53203)"/><path fill="#e4e4e4" d="M888.5906,773.468h-583a1,1,0,0,1,0-2h583a1,1,0,0,1,0,2Z" transform="translate(-304.5906 -126.53203)"/><path fill="#e4e4e4" d="M806.20134,669.31115l.74777-1.0657c12.83613,9.01269,22.19982,29.06012,27.831,59.58526a302.00917,302.00917,0,0,1,4.62271,43.161l-1.30224.02544C838.08532,770.21274,836.18663,690.36451,806.20134,669.31115Z" transform="translate(-304.5906 -126.53203)"/><path fill="#e4e4e4" d="M808.15471,726.92142l.74777-1.0657c13.38038,9.39421,14.19428,43.38225,14.2223,44.82438l-1.30224.02544C821.81618,770.359,820.99528,735.93666,808.15471,726.92142Z" transform="translate(-304.5906 -126.53203)"/><circle cx="494.171" cy="535.735" r="6.511" fill="#e4e4e4"/><circle cx="497.427" cy="592.383" r="6.511" fill="#e4e4e4"/><path fill="#e4e4e4" d="M831.25462,659.835a26.35787,26.35787,0,0,1-4.43136,28.30455,26.35787,26.35787,0,0,1,4.43136-28.30455Z" transform="translate(-304.5906 -126.53203)"/><path fill="#e4e4e4" d="M791.3977,683.66428a26.35793,26.35793,0,0,1,27.09944,9.29537,26.35788,26.35788,0,0,1-27.09944-9.29537Z" transform="translate(-304.5906 -126.53203)"/><path fill="#e4e4e4" d="M794.799,735.8418a18.47474,18.47474,0,0,1,18.99452,6.51531A18.47481,18.47481,0,0,1,794.799,735.8418Z" transform="translate(-304.5906 -126.53203)"/></svg>