<svg xmlns="http://www.w3.org/2000/svg" xmlns:xlink="http://www.w3.org/1999/xlink" width="860.13" height="600.068" data-name="Layer 1" viewBox="0 0 860.13 600.068"><path fill="#f2f2f2" d="M576.91958,325.26114c6.79769-11.24281,14.85268-23.24679,27.46746-26.91791,14.60878-4.25136,29.61565,4.19413,42.34493,12.52809a1233.92992,1233.92992,0,0,1,109.8124,80.90841l-.03839.43642q-40.97184-2.82549-81.94358-5.65094c-19.73477-1.361-40.14754-2.9096-57.58762-12.2454-6.61792-3.54257-13.06895-8.27474-20.56815-8.60449-9.317-.40964-17.44092,6.09739-23.82515,12.89572-37.76482,40.2144-48.69321,101.71183-91.06156,137.0432A1344.582,1344.582,0,0,1,576.91958,325.26114Z" transform="translate(-169.935 -149.96606)"/><path fill="#e4e4e4" d="M344.78474,666.35223c4.17618-5.27338,5.8826-6.50841,10.002-11.8306q50.31289-65.07231,94.58012-134.54055,30.068-47.18024,57.154-96.17242,12.89512-23.29149,25.08324-46.94861,9.4577-18.34311,18.49325-36.90561c1.72269-3.53459,3.39657-7.08539,5.06212-10.64433,3.92464-8.36916,7.77627-16.77894,11.912-25.03439,4.71258-9.40919,10.44917-19.27346,19.10305-25.595a26.06307,26.06307,0,0,1,13.57754-5.22464c7.04467-.455,13.545,2.45389,19.65532,5.63091a632.71738,632.71738,0,0,1,124.416,85.79626A647.72218,647.72218,0,0,1,844.90391,477.087c.89348,1.27569,3.00616.05688,2.10435-1.2269q-5.32635-7.53233-10.86377-14.902A651.302,651.302,0,0,0,669.86633,305.86018q-16.17426-10.48175-32.95672-19.98041c-5.639-3.19328-11.30258-6.34594-17.06337-9.30356-5.64732-2.90077-11.64378-5.50905-18.09531-5.60655-21.95488-.34125-33.32253,24.52249-41.13094,41.25274q-3.68084,7.89787-7.45094,15.74705-14.24784,29.7999-29.59269,59.0555-9.47019,18.06279-19.355,35.91433-30.76249,55.59-65.3933,108.92928c-30.58417,47.103-60.92433,88.71326-95.766,132.76109C342.10312,665.84846,343.81747,667.58731,344.78474,666.35223Z" transform="translate(-169.935 -149.96606)"/><path fill="#e4e4e4" d="M745.99327,352.60571c1.27555-1.42195,2.54316-2.8439,3.827-4.26584,10.12423-11.19685,20.98761-22.26365,34.89048-28.68275a50.61924,50.61924,0,0,1,21.2074-4.91586c7.589.0244,15.00742,2.01508,22.01956,4.80214,3.31523,1.32445,6.55746,2.82763,9.75049,4.42831,3.6485,1.83635,7.23194,3.79461,10.79871,5.76908q10.0433,5.55777,19.82592,11.60306,19.46469,12.02967,37.71017,25.89569,9.45829,7.191,18.52618,14.85327,8.43408,7.11783,16.527,14.61761c1.15374,1.06443,2.87642-.65815,1.72268-1.72258-1.42195-1.32445-2.86016-2.64076-4.29838-3.9408q-6.09405-5.50907-12.38332-10.80684Q914.64856,370.56283,902.586,361.633q-18.75768-13.89448-38.80678-25.90382-10.01891-5.99654-20.31353-11.48935c-2.07222-1.105-4.16864-2.18573-6.28926-3.20954a100.25917,100.25917,0,0,0-14.95068-6.08593,53.18632,53.18632,0,0,0-22.58056-2.21822,58.78888,58.78888,0,0,0-20.83367,7.20724c-13.65053,7.62977-24.23777,19.42784-34.54094,30.94158C743.23032,352.04505,744.94506,353.77577,745.99327,352.60571Z" transform="translate(-169.935 -149.96606)"/><path fill="#e4e4e4" d="M466.29754,468.63456l-32.71026-11.96392-16.24076-5.94014c-5.28934-1.9346-10.566-4.137-16.03389-5.52226a25.29526,25.29526,0,0,0-14.51263.18491,33.44824,33.44824,0,0,0-11.3195,7.01691,91.86115,91.86115,0,0,0-9.28437,9.915c-3.53591,4.24937-7.0196,8.54329-10.5189,12.82282q-21.6635,26.4937-43.04368,53.2174Q291.25384,555.08857,270.16,582.03886q-21.14538,27.0162-41.99992,54.25832-2.55472,3.33726-5.10506,6.67786c-.93935,1.23033-3.05743.01739-2.10482-1.23031q21.0084-27.51608,42.30965-54.80688,21.35364-27.356,43.00237-54.48,21.6483-27.12345,43.58919-54.01164,5.46614-6.69867,10.95031-13.38257c3.08407-3.75875,6.13337-7.558,9.51607-11.05652,6.20919-6.42172,13.96679-12.09679,23.25273-12.25077,5.45964-.09053,10.7434,1.64194,15.816,3.477,5.46846,1.9783,10.92381,3.99362,16.38527,5.99118l32.939,12.04759,8.23475,3.01189c1.46136.5345.83006,2.89117-.648,2.35055Z" transform="translate(-169.935 -149.96606)"/><path fill="#f2f2f2" d="M789.01537,333.74616c16.62263-8.54319,37.91023-6.86995,53.18525,3.80348a758.57646,758.57646,0,0,0-86.304,20.14293C767.6696,350.79331,776.87888,339.98374,789.01537,333.74616Z" transform="translate(-169.935 -149.96606)"/><path fill="#f2f2f2" d="M842.36423,337.52023l3.20008,2.60108c-1.08243-.91038-2.20771-1.76394-3.36369-2.57167C842.25523,337.54022,842.30963,337.52965,842.36423,337.52023Z" transform="translate(-169.935 -149.96606)"/><path fill="#f2f2f2" d="M376.71216,468.75408c3.21992-3.91948,6.70119-8.0234,11.51737-9.6154l4.4965.17734A510.03529,510.03529,0,0,1,256.87819,614.622Q316.79518,541.68809,376.71216,468.75408Z" transform="translate(-169.935 -149.96606)"/><path fill="#f2f2f2" d="M982.03949,436.52126a15.33228,15.33228,0,0,0-10.89014-4.51v-8.97a15.61968,15.61968,0,0,0-15.62988-15.63v-6.76h3.72a6,6,0,0,0,0-12h-3.72v-4.69h-1.84009v4.69h-4.43994a6,6,0,0,0,0,12h4.43994v6.76h-11.46a8.2988,8.2988,0,0,0-8.30005,8.3v16.3h-2.6499a31.13757,31.13757,0,0,0-31.1399,31.14v21.78388a33.04206,33.04206,0,0,0-23.04492,24.30792h-13.6499v-13.792H855.1596v-5.79981h5.07984a6,6,0,0,0,0-12H855.1596v-3.80755h-1.83886v3.80755h-3.0813a6,6,0,0,0,0,12h3.0813v5.82441a8.29549,8.29549,0,0,0-7.81543,8.27771v5.53918a31.14361,31.14361,0,0,0-29.42286,31.09461V667.85048h84.04712v.0008H986.5495v-220.44A15.33191,15.33191,0,0,0,982.03949,436.52126Z" transform="translate(-169.935 -149.96606)"/><path fill="#f2f2f2" d="M808.23065,432.00808v-8.96479a15.63085,15.63085,0,0,0-15.63086-15.63086h0v-8.76117h3.63965a6,6,0,0,0,0-12h-3.63965v-2.68511h-1.83887v2.68511h-4.52148a6,6,0,0,0,0,12h4.52148v8.76117H779.29473a8.30234,8.30234,0,0,0-8.30236,8.30237v16.29328h-2.64612a31.14416,31.14416,0,0,0-31.14417,31.1441V483.3315a33.02639,33.02639,0,0,0-19.66089,25.91156H700.51226v-13.792h-8.27514v-7.79981h3.00232a6,6,0,0,0,0-12h-3.00232v-1.80755h-1.839v1.80755h-5.15869a6,6,0,0,0,0,12h5.15869v7.82441a8.29559,8.29559,0,0,0-7.81543,8.27771v5.53918a31.14369,31.14369,0,0,0-29.42285,31.09461V667.85048H823.63177V447.40908A15.401,15.401,0,0,0,808.23065,432.00808Z" transform="translate(-169.935 -149.96606)"/><path fill="#cacaca" d="M1030.065,668.53394a1.18642,1.18642,0,0,1-1.19,1.19l-592.69.21-2.08.01-122.31995.04h-2.02l-104.12.04h-2.02l-32.5.01a1.19,1.19,0,0,1,0-2.38l32.84-.00995h2.02l104.09-.04h2.02l121.37-.04h2.07l103.42-.04h1.36l488.56-.18A1.18646,1.18646,0,0,1,1030.065,668.53394Z" transform="translate(-169.935 -149.96606)"/><path fill="#cacaca" d="M1030.065,748.53394a1.18642,1.18642,0,0,1-1.19,1.19l-592.69.21-2.08.01-122.31995.04h-2.02l-104.12.04h-2.02l-32.5.01a1.19,1.19,0,0,1,0-2.38l32.84-.00995h2.02l104.09-.04h2.02l121.37-.04h2.07l103.42-.04h1.36l488.56-.18A1.18646,1.18646,0,0,1,1030.065,748.53394Z" transform="translate(-169.935 -149.96606)"/><rect width="11.493" height="9.195" x="694.995" y="555.216" fill="#fff" transform="translate(1231.54929 969.66102) rotate(-180)"/><rect width="11.493" height="9.195" x="676.146" y="555.216" fill="#fff" transform="translate(1193.85129 969.66102) rotate(-180)"/><rect width="11.493" height="9.195" x="694.995" y="578.663" fill="#fff" transform="translate(1231.54929 1016.55365) rotate(-180)"/><rect width="11.493" height="9.195" x="676.146" y="578.663" fill="#fff" transform="translate(1193.85129 1016.55365) rotate(-180)"/><rect width="11.493" height="9.195" x="694.995" y="602.109" fill="#fff" transform="translate(1231.54929 1063.44629) rotate(-180)"/><rect width="11.493" height="9.195" x="676.146" y="602.109" fill="#fff" transform="translate(1193.85129 1063.44629) rotate(-180)"/><rect width="11.493" height="9.195" x="676.146" y="625.555" fill="#fff" transform="translate(1193.85129 1110.33893) rotate(-180)"/><rect width="11.493" height="9.195" x="676.146" y="649.001" fill="#fff" transform="translate(1193.85129 1157.23157) rotate(-180)"/><rect width="37.238" height="2.758" x="761.798" y="535.678" fill="#fff" transform="translate(1390.89883 924.14757) rotate(-180)"/><rect width="37.238" height="2.758" x="761.798" y="552.688" fill="#fff" transform="translate(1390.89883 958.16772) rotate(-180)"/><rect width="37.238" height="2.758" x="761.798" y="569.698" fill="#fff" transform="translate(1390.89883 992.18787) rotate(-180)"/><rect width="11.493" height="9.195" x="783.865" y="412.47" fill="#fff" transform="translate(1409.2881 684.1676) rotate(-180)"/><rect width="11.493" height="9.195" x="857.918" y="578.663" fill="#fff" transform="translate(1557.39428 1016.55365) rotate(-180)"/><rect width="11.493" height="9.195" x="839.069" y="578.663" fill="#fff" transform="translate(1519.69627 1016.55365) rotate(-180)"/><rect width="11.493" height="9.195" x="857.918" y="602.109" fill="#fff" transform="translate(1557.39428 1063.44629) rotate(-180)"/><rect width="11.493" height="9.195" x="839.069" y="602.109" fill="#fff" transform="translate(1519.69627 1063.44629) rotate(-180)"/><rect width="11.493" height="9.195" x="857.918" y="625.555" fill="#fff" transform="translate(1557.39428 1110.33893) rotate(-180)"/><rect width="11.493" height="9.195" x="839.069" y="625.555" fill="#fff" transform="translate(1519.69627 1110.33893) rotate(-180)"/><rect width="11.493" height="9.195" x="857.918" y="649.001" fill="#fff" transform="translate(1557.39428 1157.23157) rotate(-180)"/><rect width="11.493" height="9.195" x="839.069" y="649.001" fill="#fff" transform="translate(1519.69627 1157.23157) rotate(-180)"/><rect width="11.493" height="9.195" x="946.787" y="412.47" fill="#fff" transform="translate(1735.13309 684.1676) rotate(-180)"/><circle cx="586.076" cy="106.992" r="26.701" fill="#fd6584"/><path fill="#f0f0f0" d="M815.77386,244.31582a13.24763,13.24763,0,0,0-11.1792-9.29078c-.058-.00817-.113.00263-.17078-.00109a1.66422,1.66422,0,0,0-.2279-.05249c-12.21069-1.57813-26.30591,4.2619-31.3949,15.83813a12.93473,12.93473,0,0,0-10.83325-5.279,13.19324,13.19324,0,0,0-11.80029,9.51135,1.54784,1.54784,0,0,0,.68933,1.694,6.766,6.766,0,0,0,2.78967,1.416q3.3263.70467,6.67627,1.29107,6.53686,1.144,13.142,1.84973a195.419,195.419,0,0,0,26.918,1.01746c2.99267-.09326,5.87866-.19257,8.6206-1.51337a12.82692,12.82692,0,0,0,4.94532-4.31555A14.55146,14.55146,0,0,0,815.77386,244.31582Z" transform="translate(-169.935 -149.96606)"/><path fill="#f0f0f0" d="M760.27825,279.91677a13.24792,13.24792,0,0,0-11.17919-9.29071c-.05811-.00818-.11316.00262-.1709-.0011a1.6641,1.6641,0,0,0-.22779-.05249c-12.21069-1.57813-26.3059,4.26184-31.395,15.83807a12.93421,12.93421,0,0,0-10.83325-5.279,13.19324,13.19324,0,0,0-11.80029,9.51135,1.54812,1.54812,0,0,0,.68945,1.694,6.76622,6.76622,0,0,0,2.78955,1.416q3.32629.7046,6.67627,1.29108,6.53686,1.14385,13.14209,1.84973a195.42859,195.42859,0,0,0,26.918,1.01745c2.99256-.09326,5.87854-.19262,8.62061-1.51343a12.82846,12.82846,0,0,0,4.94531-4.31549A14.552,14.552,0,0,0,760.27825,279.91677Z" transform="translate(-169.935 -149.96606)"/><path fill="#2f2e41" d="M614.58708,200.20969a29.82287,29.82287,0,1,1-51.29533-20.68525l.14314-.143c.2386-.25061.4772-.50107.72773-.73974a.01167.01167,0,0,0,.01187-.01194c.31017-.28629.62034-.57258.94245-.84693a29.815,29.815,0,0,1,49.47014,22.42686Z" transform="translate(-169.935 -149.96606)"/><circle cx="407.482" cy="57.144" r="25.008" fill="#9e616a"/><path fill="#2f2e41" d="M603.97284,214.2416l-4.14356-.73194a11.55431,11.55431,0,0,1-9.30469-9.31738l-4.043,6.77588-.17675.05859c-9.63282,3.19825-19.65528,2.2417-30.63379-2.92041a85.46633,85.46633,0,0,1-9.11817-5.02734l-.21679-.13525-.01758-.2544c-.55957-8.13525,1.26562-14.93164,5.1416-19.13721a15.41711,15.41711,0,0,1,11.63379-4.84961.957.957,0,0,0,.41308-.228c.05567-.041.11133-.08155.167-.12012v-.042l.28711-.13526c.61718-.29,1.24609-.56787,1.875-.82177a28.19912,28.19912,0,0,1,29.44824,5.708c7.70312,7.354,11.23633,19.69532,8.792,30.71094Z" transform="translate(-169.935 -149.96606)"/><path fill="#2f2e41" d="M656.71937,235.54833c-8.51007-4.39247,2.43483-20.33443.23554-29.65524-2.19937-9.32081-18.037-12.3187-19.04593-21.84221s-3.38245-19.346-9.6668-26.5725c-4.01568-4.61773-9.93278-8.02669-16.02492-7.44829A14.4087,14.4087,0,0,0,599.589,167.82217c-1.73455-2.45776-6.22341-1.92509-7.33449.87051-.98788,2.48529,1.19437,5.49568,3.76252,5.71557,3.36046,4.15,7.2086,8.55427,12.47325,9.39143a5.6806,5.6806,0,0,0,4.84076-1.11733c1.23856-1.18942,1.33489-3.56739-.13434-4.45625,6.61615,2.62814,10.49509,9.78155,11.47678,16.83259.98162,7.051-.3765,14.18523-1.27148,21.24777s-1.28057,14.49205,1.4886,21.05046c3.27178,7.74885,10.80453,13.30263,19.02518,15.0837s16.97552.04034,24.4166-3.88149c7.44108-3.92211,13.64622-9.9094,18.71523-16.62187C678.3159,238.13744,666.23553,240.46022,656.71937,235.54833Z" transform="translate(-169.935 -149.96606)"/><path fill="#fd6584" d="M602.90847,213.54639s-7.408-27.65168-39.16341-34.03389c-.03575-.01179-.15509-.05956-.31017-.13106-.09538-.0597-.21472-.1194-.334-.179.35786-.20285.70378-.38167,1.06171-.56078a.01167.01167,0,0,0,.01187-.01194c.31017-.28629.62034-.57258.94245-.84693l.90663.03583S597.88627,172.77265,602.90847,213.54639Z" transform="translate(-169.935 -149.96606)"/><path fill="#9e616a" d="M553.26581,456.86675a8.94851,8.94851,0,0,0-5.07081-12.75022l-.48946-31.79644-13.65379,9.30867,2.55807,28.76732a8.99707,8.99707,0,0,0,16.656,6.47067Z" transform="translate(-169.935 -149.96606)"/><path fill="#2f2e41" d="M575.11826,242.96606l-12.50215,11.69046c-14.30993,0-5.96695,6.81312-14.43621,18.34766l0,0a44.95264,44.95264,0,0,0-8.45527,21.74746l-9.0829,28.36272-8.77665,93.91014,10.532,2.633-4.38833,13.165h31.54065l-4.333-14.04264,4.79952-4.79951-4.36068-30.74592,14.9203,2.633S622.951,282.89982,575.11826,242.96606Z" transform="translate(-169.935 -149.96606)"/><polygon fill="#ffb8b8" points="390.096 190.627 372.822 308.58 467.113 301.473 438.89 185.436 390.096 190.627"/><polygon fill="#9e616a" points="403.238 545.983 392.646 545.983 387.607 505.129 403.24 505.13 403.238 545.983"/><path fill="#2f2e41" d="M576.75946,690.72127l-3.59009-.21-11.34986-.68-1.8-.11v7.18l-15.92,10.99a4.47972,4.47972,0,0,0,2.54,8.17h19.94006l3.42994-7.1,1.35,7.1h7.51Z" transform="translate(-169.935 -149.96606)"/><polygon fill="#9e616a" points="503.345 540.714 492.993 542.959 479.408 504.102 494.685 500.788 503.345 540.714"/><path fill="#2f2e41" d="M675.67938,684.81124l-3.54993.55-11.2301,1.75-1.79993.28,1.52,7.01-13.22009,14.11a4.48467,4.48467,0,0,0,4.22009,7.45l19.48-4.23,1.85-7.66,2.82007,6.65,7.34-1.6Z" transform="translate(-169.935 -149.96606)"/><path fill="#2f2e41" d="M540.34986,513.45616c7.43336,40.8525,5.139,14.88758,5.139,14.88758s-5.575,6.499-1.85833,10.21569,0,11.13975,0,11.13975L556.9161,657.76411l2.07636,9.34365H573.527l1.03819-12.4582,6.63714-60.41234s3.71671-7.43336,1.85832-9.29175c-1.85832-1.85833,1.85839-12.998,1.85839-12.998l4.64065-88.2041,17.36879,53.99594s-2.79265,3.71671,0,6.499c2.78239,2.78232,19.76706,59.28026,19.76706,59.28026l20.5425,49.0546,1.03818,1.03819,5.19092,13.49638,13.49639-6.2291-8.01162-69.16422-.33222-1.48459-.353-1.56767s1.85839-4.64065-.92394-7.43336a7.25513,7.25513,0,0,1-1.85839-6.499,2.53487,2.53487,0,0,0,.24916-.31145,3.85424,3.85424,0,0,0,.66445-1.51577c.24915-1.16276.03117-2.79271-1.84794-4.67182a7.92776,7.92776,0,0,1-1.31851-1.8895c-2.82389-5.34668-4.2462-16.67323-4.2462-16.67323s-2.51238-89.70942-10.73478-103.41346c-.43608-.71634-12.36424-50.01365-12.821-50.294-9.28136-5.56465-75.47918,9.65432-75.47918,9.65432s-11.573,39.77795-11.7703,41.003C537.11067,453.50106,534.04808,478.80159,540.34986,513.45616Z" transform="translate(-169.935 -149.96606)"/><path fill="#0bef62" d="M627.43939,300.33126c-.06995-.52-.1499-1.04-.23-1.56-.81006-5.21,2.56006-9.67-1.80005-13.27a9.25268,9.25268,0,0,1-2.43994-3.05l-1-2.01-1.84-3.73-4.72009-9.51a9.23308,9.23308,0,0,0-3.54993-3.83l-10-5.96a9.244,9.244,0,0,1-3.57995-3.88l-.25-.51c-1.1001-2.26-3.08008-7.68-5.42005-10.03a3.41022,3.41022,0,0,0-1.96008-1.11l-9.96-.99a9.24446,9.24446,0,0,0-8.35,3.69l-.2699,1.24-1.60009,7.28-.09.02c-.47009.11-.94006.22-1.41.35-10.32007,2.82-14.63,38.92-14.63,38.92s-7.23,11.93-4.39,19.31l5.07007,11.91a1.309,1.309,0,0,1,.09.28,9.07916,9.07916,0,0,1,.47009,4.04l.00989.47.46009,32.61.03991,2.48-8.35,36.34a9.14016,9.14016,0,0,0,1.92993,6.73q.28509.36.6001.69c.2.2.3999.39.61.57a9.17061,9.17061,0,0,0,7.43,2.16l1.11988-.17,16.19006-2.43,1.89-.28,18.11-2.72,3.11-.47c.25-.03.49-.06.74-.08l16.58008-1.14a10.43606,10.43606,0,0,0,1.13989-.15,9.23391,9.23391,0,0,0,6.67-5.33,8.28144,8.28144,0,0,0,.57-1.7,9.42614,9.42614,0,0,0,.23-1.93l.19006-15.62.63-50.47a9.0781,9.0781,0,0,1,1.39-4.76C629.38946,318.71126,628.82952,309.66127,627.43939,300.33126Z" transform="translate(-169.935 -149.96606)"/><path fill="#9e616a" d="M599.98391,437.566a8.94861,8.94861,0,0,1,8.78129-10.54373l10.34425-30.07074,10.0859,13.09015L617.826,436.5905a8.99707,8.99707,0,0,1-17.84209.97549Z" transform="translate(-169.935 -149.96606)"/><path fill="#2f2e41" d="M589.58891,242.51287h0c11.31319,0,24.97181,21.91832,31.66747,31.03734l2.82123,3.84232A44.95263,44.95263,0,0,1,632.5329,299.14l3.08291,28.36271v7.30466l3.83958,39.49-2.32892,5.86522-3.24467,36.25025,0,0a10.05308,10.05308,0,0,0-7.099,12.932l.95532,2.866-32.54065-10,2.33177-7.55685a11.26333,11.26333,0,0,0-2.79824-11.2853h0l1.38724-10.40261-20.2532,15.3767S541.75617,282.44662,589.58891,242.51287Z" transform="translate(-169.935 -149.96606)"/><rect width="28.31" height="6" x="788.304" y="301.685" fill="#fff"/><rect width="28.31" height="6" x="788.304" y="319.685" fill="#fff"/><rect width="28.31" height="6" x="788.304" y="337.685" fill="#fff"/><rect width="28.31" height="6" x="788.304" y="355.685" fill="#fff"/><rect width="28.31" height="6" x="788.304" y="373.685" fill="#fff"/><rect width="28.31" height="6" x="788.304" y="391.685" fill="#fff"/><path fill="#fff" d="M600.23944,214.65126a2,2,0,1,0-3.42456,1.40162l-3.668,5.32531a1,1,0,0,0,1.64709,1.13453l4.12415-5.98768A1.99456,1.99456,0,0,0,600.23944,214.65126Z" transform="translate(-169.935 -149.96606)"/><rect width="1" height="3" x="597.239" y="215.651" fill="#2f2e41" rx=".5" transform="translate(18.72281 -419.74326) rotate(30.00003)"/></svg>