<svg xmlns="http://www.w3.org/2000/svg" xmlns:xlink="http://www.w3.org/1999/xlink" width="842" height="584.157" data-name="Layer 1" viewBox="0 0 842 584.157"><path fill="#f2f2f2" d="M1015.28477,406.24333c0-69.42426-56.31756-234.16458-125.78879-234.16458s-125.7888,164.74032-125.7888,234.16458a125.78882,125.78882,0,0,0,251.57759,0Z" transform="translate(-179 -157.92133)"/><path fill="#e6e6e6" d="M889.496,712.06616a1.034,1.034,0,0,0,1.03433-1.03363V277.6474a1.03433,1.03433,0,0,0-2.06866,0V711.03253A1.034,1.034,0,0,0,889.496,712.06616Z" transform="translate(-179 -157.92133)"/><path fill="#e6e6e6" d="M889.496,361.31549a1.03141,1.03141,0,0,0,.73143-.30282l49.787-49.75308a1.034,1.034,0,1,0-1.46286-1.46162l-49.787,49.75308a1.03363,1.03363,0,0,0,.73143,1.76444Z" transform="translate(-179 -157.92133)"/><path fill="#e6e6e6" d="M889.496,447.448a1.03363,1.03363,0,0,0,.73143-1.76444l-83.37736-83.32135a1.034,1.034,0,0,0-1.46286,1.46161l83.37736,83.32136A1.03163,1.03163,0,0,0,889.496,447.448Z" transform="translate(-179 -157.92133)"/><path fill="#f2f2f2" d="M964.326,739.143c-.17983.13879-.36883.26343-.55049.39918H809.564c-3.02172-12.23461-4.08874-24.48228.42479-35.11846,6.43061-15.156,25.46323-24.61666,40.59429-18.10806a23.102,23.102,0,0,1,9.07477,7.17522c5.91315-10.5775,16.52012-18.55262,28.76341-18.54391,15.33886.01094,28.09226,12.54634,32.25394,27.02593,6.70218-11.30486,19.94-19.20519,32.87876-15.80663C975.19539,691.85049,982.03107,725.46909,964.326,739.143Z" transform="translate(-179 -157.92133)"/><path fill="#ffb8b8" d="M571.06013,449.28621a10.05581,10.05581,0,0,1,6.57317,13.94809l25.72221,24.80619-18.12,4.06215L563.5873,467.92349a10.11027,10.11027,0,0,1,7.47283-18.63728Z" transform="translate(-179 -157.92133)"/><path fill="#0bef62" d="M607.23189,514.54126,575.5,484.77222a4.50015,4.50015,0,0,1-.12318-6.44357l6.47969-6.56222a4.50658,4.50658,0,0,1,5.93427-.41364l26.59174,20.32259,16.59043-40.2357a12.557,12.557,0,0,1,17.135-6.48879h0a12.47979,12.47979,0,0,1,6.87053,13.30728c-3.01094,18.30184-21.24889,42.49646-31.85264,55.28984a10.96289,10.96289,0,0,1-12.222,3.27972A10.934,10.934,0,0,1,607.23189,514.54126Z" transform="translate(-179 -157.92133)"/><path fill="#fff" d="M589.42585,485.66315l-23.36206-33.88526a2.00221,2.00221,0,0,1,.51147-2.78174l.93848-.647a1.99988,1.99988,0,0,1,2.78174.51172l23.36182,33.88525a1.99989,1.99989,0,0,1-.51123,2.78174l-.93848.647a2.00186,2.00186,0,0,1-2.78174-.51172Z" transform="translate(-179 -157.92133)"/><path fill="#3f3d56" d="M582.89484,485.9151l-19.38867-28.12256a5.50609,5.50609,0,0,1,1.40625-7.6499l1.97559-1.36182,25.63232,37.17823-1.97534,1.3623h-.00024a5.50415,5.50415,0,0,1-7.64991-1.40625Z" transform="translate(-179 -157.92133)"/><polygon fill="#ffb8b8" points="406.24 570.723 394.061 569.318 395.674 521.902 411.662 523.748 406.24 570.723"/><path fill="#2f2e41" d="M586.98377,740.80893l-39.26984-4.53224.0573-.4967a15.38606,15.38606,0,0,1,17.04857-13.52132l.001.00011,23.98458,2.76821Z" transform="translate(-179 -157.92133)"/><polygon fill="#ffb8b8" points="547.862 561.719 536.149 565.337 516.618 521.877 533.907 516.537 547.862 561.719"/><path fill="#2f2e41" d="M733.35722,730.07205l-37.76976,11.6665-.14758-.47772a15.38605,15.38605,0,0,1,10.15954-19.24223l.00093-.00029,23.06842-7.12539Z" transform="translate(-179 -157.92133)"/><path fill="#2f2e41" d="M571.64289,717.71442a4.9873,4.9873,0,0,1-3.3352-6.083l7.34106-84.50879a25.51732,25.51732,0,0,1,3.54541-10.90039l44.43872-73.749,39.76636,7.1455.25708.10645c19.3269,11.83691,36.48633,69.2334,53.08081,124.74023,2.58057,8.63184,5.24878,17.55762,7.85376,26.08789a5.02248,5.02248,0,0,1-2.69775,6.47559l-12.04078,5.06934a4.98513,4.98513,0,0,1-6.32812-2.21192L641.62287,596.56012a.99345.99345,0,0,0-.76977-.51563.965.965,0,0,0-.85718.332l-35.92407,40.65136-13.20191,77.46973-.05346.168a5.00363,5.00363,0,0,1-5.91236,2.84863l-12.94922.24512-.08081.001Z" transform="translate(-179 -157.92133)"/><path fill="#0bef62" d="M621.48274,550.55524l-.25171-.08008-.07593-.25293c-.18555-.61621-18.36206-62.12451-1.98267-101.33643l.01685-.03564c.47973-.9336,11.90527-22.88672,25.18188-25.0835l.35352-.05859,4.3147,8.06836c1.3562,1.35986,24.71264,25.61133,14.11206,67.29638.95166,3.418,13.84985,50.34571,6.83593,57.35938-1.57861,1.5791-4.74951,2.19629-8.75219,2.19629C647.15168,558.62848,622.79548,550.97125,621.48274,550.55524Z" transform="translate(-179 -157.92133)"/><circle cx="462.634" cy="227.157" r="31" fill="#2f2e41"/><circle cx="450.319" cy="233.449" r="24.561" fill="#ffb8b8"/><path fill="#2f2e41" d="M645.12392,415.228c-2.24092.79459-4.98824,1.49515-6.75163-.15283-1.72154-1.60886-1.40789-4.551-.39375-6.7185s2.58694-4.09633,3.06919-6.4555c.69115-3.38111-1.09579-6.89376-3.64666-9.09812s-5.76181-3.3623-8.89637-4.47657l-17.19315-6.11177c-4.25582-1.51285-8.84187-3.29-11.22343-7.2712-3.446-5.76062-.2957-13.99506,5.35681-17.35649s12.79228-2.7352,18.89074-.3716c3.37295,1.30726,6.58156,3.10864,10.06977,4.02888,6.88428,1.81615,14.71189.18688,20.7615,4.06849,5.26615,3.37892,7.70874,10.27337,7.53137,16.72431s-2.55255,12.5945-5.0579,18.4942c-1.49052,3.50994-3.08274,7.06031-5.60737,9.852s-6.17288,4.74454-9.81715,4.23088Z" transform="translate(-179 -157.92133)"/><circle cx="488.634" cy="212.157" r="20" fill="#2f2e41"/><path fill="#fff" d="M634.63386,399.07867a2,2,0,1,1,2.75,1.85169v4.39831a.75.75,0,0,1-1.5,0v-4.39831A1.99824,1.99824,0,0,1,634.63386,399.07867Z" transform="translate(-179 -157.92133)"/><path fill="#ffb8b8" d="M572.2768,470.279a10.05579,10.05579,0,0,1,11.02252,10.78239l32.75529,14.2853-15.56784,10.123-28.71826-15.11753a10.11028,10.11028,0,0,1,.50829-20.0732Z" transform="translate(-179 -157.92133)"/><path fill="#0bef62" d="M628.92463,518.83453l-40.11792-16.84228a4.50015,4.50015,0,0,1-2.36133-5.99658l3.78613-8.40918a4.50659,4.50659,0,0,1,5.418-2.45606l32.00757,9.77979,1.52612-43.49512A12.557,12.557,0,0,1,642.982,439.3609h0A12.4798,12.4798,0,0,1,654.05988,449.439c3.55689,18.20361-5.10449,47.23779-10.58422,62.9248a10.96284,10.96284,0,0,1-10.3125,7.334A10.93385,10.93385,0,0,1,628.92463,518.83453Z" transform="translate(-179 -157.92133)"/><path fill="#3f3d56" d="M456,742.07867h564a1,1,0,0,0,0-2H456a1,1,0,1,0,0,2Z" transform="translate(-179 -157.92133)"/><path fill="#f2f2f2" d="M355.63391,526.36149c0-36.13829-29.3157-121.89268-65.47845-121.89268S224.677,490.2232,224.677,526.36149a65.47846,65.47846,0,0,0,130.9569,0Z" transform="translate(-179 -157.92133)"/><path fill="#e6e6e6" d="M290.15549,681.4409a.71881.71881,0,0,0,.71907-.71858V428.43341a.71907.71907,0,0,0-1.43813,0V680.72232A.7188.7188,0,0,0,290.15549,681.4409Z" transform="translate(-179 -157.92133)"/><path fill="#e6e6e6" d="M290.15549,485.59938a.717.717,0,0,0,.50849-.21052l34.61188-34.58829a.71881.71881,0,1,0-1.017-1.01611L289.647,484.37275a.71858.71858,0,0,0,.50849,1.22663Z" transform="translate(-179 -157.92133)"/><path fill="#e6e6e6" d="M290.15549,545.47865a.71858.71858,0,0,0,.50849-1.22664l-42.96386-41.92492a.71881.71881,0,0,0-1.017,1.01611L289.647,545.26813A.71721.71721,0,0,0,290.15549,545.47865Z" transform="translate(-179 -157.92133)"/><path fill="#f2f2f2" d="M342.17724,700.26469c-.125.09648-.25641.18313-.3827.2775H234.5868c-2.10069-8.50548-2.84249-17.02.29532-24.41432,4.47055-10.5364,17.702-17.11347,28.2211-12.5887a16.06042,16.06042,0,0,1,6.30878,4.9882c4.11081-7.35347,11.48477-12.89776,19.99629-12.8917,10.66356.0076,19.52972,8.7222,22.42291,18.7884,4.65935-7.85913,13.86228-13.35143,22.85728-10.98876C349.73361,667.387,354.48576,690.7586,342.17724,700.26469Z" transform="translate(-179 -157.92133)"/><path fill="#ccc" d="M180,702.07867H401a1,1,0,0,0,0-2H180a1,1,0,0,0,0,2Z" transform="translate(-179 -157.92133)"/><path fill="#e6e6e6" d="M564.539,367.92133h-348a16.51867,16.51867,0,0,1-16.5-16.5v-177a16.51866,16.51866,0,0,1,16.5-16.5h348a16.51867,16.51867,0,0,1,16.5,16.5v177A16.51868,16.51868,0,0,1,564.539,367.92133Z" transform="translate(-179 -157.92133)"/><path fill="#fff" d="M560.539,355.92133h-340a8.50951,8.50951,0,0,1-8.5-8.5v-169a8.5095,8.5095,0,0,1,8.5-8.5h340a8.5095,8.5095,0,0,1,8.5,8.5v169A8.50951,8.50951,0,0,1,560.539,355.92133Z" transform="translate(-179 -157.92133)"/><path fill="#e6e6e6" d="M540.8487,398.5899l-38.23828-38.23779,49.02344,1.23926v32.53125a6.22,6.22,0,0,1-3.90015,5.83691,6.41013,6.41013,0,0,1-2.45776.49707A6.23144,6.23144,0,0,1,540.8487,398.5899Z" transform="translate(-179 -157.92133)"/><path fill="#ccc" d="M519.14195,255.34265h-172a8,8,0,1,1,0-16h172a8,8,0,0,1,0,16Z" transform="translate(-179 -157.92133)"/><path fill="#ccc" d="M463.142,221.34265h-116a8,8,0,1,1,0-16h116a8,8,0,0,1,0,16Z" transform="translate(-179 -157.92133)"/><circle cx="96.941" cy="72.421" r="25" fill="#0bef62"/><circle cx="287.137" cy="154.579" r="8" fill="#e6e6e6"/><circle cx="315.137" cy="154.579" r="8" fill="#e6e6e6"/><circle cx="343.137" cy="154.579" r="8" fill="#e6e6e6"/></svg>