<svg xmlns="http://www.w3.org/2000/svg" xmlns:xlink="http://www.w3.org/1999/xlink" width="731.38" height="601.755" data-name="Layer 1" viewBox="0 0 731.38 601.755"><path fill="#fff" d="M623.20351,289.12266h-253a23.02589,23.02589,0,0,1-23-23v-94a23.0262,23.0262,0,0,1,23-23h253a23.02619,23.02619,0,0,1,23,23v94A23.02588,23.02588,0,0,1,623.20351,289.12266Z" transform="translate(-234.30981 -149.12266)"/><path fill="#3f3d56" d="M623.20351,289.12266h-253a23.02589,23.02589,0,0,1-23-23v-94a23.0262,23.0262,0,0,1,23-23h253a23.02619,23.02619,0,0,1,23,23v94A23.02588,23.02588,0,0,1,623.20351,289.12266Zm-253-138a21.02359,21.02359,0,0,0-21,21v94a21.0239,21.0239,0,0,0,21,21h253a21.0239,21.0239,0,0,0,21-21v-94a21.02359,21.02359,0,0,0-21-21Z" transform="translate(-234.30981 -149.12266)"/><path fill="#fff" d="M718.9371,301.91549H584.36727a11.11481,11.11481,0,0,1-2.51953-.31934,11.24843,11.24843,0,0,1-8.6206-10.9707V244.88521a11.29752,11.29752,0,0,1,11.29-11.27978H718.9371a11.14386,11.14386,0,0,1,5.20263,1.27344,10.81246,10.81246,0,0,1,1.8042,1.17724,11.16539,11.16539,0,0,1,4.28321,8.8291v45.74024A11.30253,11.30253,0,0,1,718.9371,301.91549Z" transform="translate(-234.30981 -149.12266)"/><path fill="#e6e6e6" d="M709.91714,300.91549q9.165-22.275,19.31-44.11v24.68a119.89862,119.89862,0,0,1-15.92,19.43Z" transform="translate(-234.30981 -149.12266)"/><path fill="#e6e6e6" d="M725.31716,236.83547q-18.135,32.535-37.95,64.08h-2.3q20.145-32.04,38.61-65.15A9.82915,9.82915,0,0,1,725.31716,236.83547Z" transform="translate(-234.30981 -149.12266)"/><path fill="#e6e6e6" d="M636.59713,260.51546a407.71414,407.71414,0,0,1-26.11,40.4h-13.71q13.47007-16.41,26.96-32.82c2.58-3.15,5.38-6.45,9.25-7.73Z" transform="translate(-234.30981 -149.12266)"/><path fill="#0bef62" d="M618.37716,258.27547c-1.43005,1.49-2.80005,3.04-4.09,4.65-2.84,3.42-5.64,6.87-8.45,10.31-1.75,2.14-3.5,4.28-5.23,6.42a12.77016,12.77016,0,0,1-1.56-1.18,13.99258,13.99258,0,0,1,17.88-21.52A12.89785,12.89785,0,0,1,618.37716,258.27547Z" transform="translate(-234.30981 -149.12266)"/><path fill="#e6e6e6" d="M695.70712,267.99544l-26.28-9.61-13.05-4.77c-4.25-1.55-8.49-3.32-12.88-4.44a20.30554,20.30554,0,0,0-11.66.15,26.80773,26.80773,0,0,0-9.09,5.64q-1.74006,1.605-3.37,3.31c-1.43005,1.49-2.80005,3.04-4.09,4.65-2.84,3.42-5.64,6.87-8.45,10.31-1.75,2.14-3.5,4.28-5.23,6.42q-8.67,10.605-17.24,21.26a10.02224,10.02224,0,0,1-2.28-.29q8.94-11.1,17.96-22.15c.69-.86,1.4-1.73,2.1-2.59q4.395-5.385,8.8-10.76c2.27-2.77,4.52-5.56,6.98-8.17.22-.24.44-.47.67-.71,4.99-5.16,11.22-9.72,18.68-9.84,4.39-.07,8.63,1.32,12.71,2.79,4.39,1.59,8.77,3.21,13.16,4.82l26.46,9.68,6.62,2.42005C697.39712,266.53548,696.89712,268.43544,695.70712,267.99544Z" transform="translate(-234.30981 -149.12266)"/><path fill="#3f3d56" d="M718.9371,301.91549H584.36727a11.11481,11.11481,0,0,1-2.51953-.31934,11.24843,11.24843,0,0,1-8.6206-10.9707V244.88521a11.29752,11.29752,0,0,1,11.29-11.27978H718.9371a11.14386,11.14386,0,0,1,5.20263,1.27344,10.81246,10.81246,0,0,1,1.8042,1.17724,11.16539,11.16539,0,0,1,4.28321,8.8291v45.74024A11.30253,11.30253,0,0,1,718.9371,301.91549ZM584.51718,235.60543a9.29554,9.29554,0,0,0-9.29,9.27978v45.74024a9.25725,9.25725,0,0,0,7.09472,9.02832,9.13335,9.13335,0,0,0,2.05762.26172H718.9371a9.30086,9.30086,0,0,0,9.29-9.29V244.88521a9.18462,9.18462,0,0,0-3.52784-7.26367,8.8598,8.8598,0,0,0-1.481-.96777,9.16856,9.16856,0,0,0-4.28125-1.04834Z" transform="translate(-234.30981 -149.12266)"/><path fill="#fff" d="M451.30981,345.61085h-194a23.02588,23.02588,0,0,1-23-23v-34a23.02619,23.02619,0,0,1,23-23h194a23.02619,23.02619,0,0,1,23,23v34A23.02588,23.02588,0,0,1,451.30981,345.61085Z" transform="translate(-234.30981 -149.12266)"/><path fill="#3f3d56" d="M451.30981,345.61085h-194a23.02588,23.02588,0,0,1-23-23v-34a23.02619,23.02619,0,0,1,23-23h194a23.02619,23.02619,0,0,1,23,23v34A23.02588,23.02588,0,0,1,451.30981,345.61085Zm-194-78a21.02359,21.02359,0,0,0-21,21v34a21.0239,21.0239,0,0,0,21,21h194a21.0239,21.0239,0,0,0,21-21v-34a21.02359,21.02359,0,0,0-21-21Z" transform="translate(-234.30981 -149.12266)"/><path fill="#0bef62" d="M314.27281,326.48689h-31.1883a6.295,6.295,0,0,1-6.288-6.288V291.02277a6.295,6.295,0,0,1,6.288-6.288h31.1883a6.295,6.295,0,0,1,6.288,6.288v29.17616A6.295,6.295,0,0,1,314.27281,326.48689Z" transform="translate(-234.30981 -149.12266)"/><path fill="#e6e6e6" d="M369.904,326.48689H338.71566a6.295,6.295,0,0,1-6.288-6.288V291.02277a6.295,6.295,0,0,1,6.288-6.288H369.904a6.295,6.295,0,0,1,6.288,6.288v29.17616A6.295,6.295,0,0,1,369.904,326.48689Z" transform="translate(-234.30981 -149.12266)"/><path fill="#e6e6e6" d="M425.53512,326.48689H394.34681a6.295,6.295,0,0,1-6.288-6.288V291.02277a6.295,6.295,0,0,1,6.288-6.288h31.18831a6.295,6.295,0,0,1,6.288,6.288v29.17616A6.295,6.295,0,0,1,425.53512,326.48689Z" transform="translate(-234.30981 -149.12266)"/><path fill="#ccc" d="M509.03816,204.61085h-40a4,4,0,0,1,0-8h40a4,4,0,0,1,0,8Z" transform="translate(-234.30981 -149.12266)"/><path fill="#ccc" d="M595.03816,226.61085h-127a4,4,0,0,1,0-8h127a4,4,0,0,1,0,8Z" transform="translate(-234.30981 -149.12266)"/><circle cx="187.224" cy="62.488" r="26.819" fill="#0bef62"/><path fill="#fff" d="M713.30981,462.61085h-253a23.02588,23.02588,0,0,1-23-23v-94a23.02619,23.02619,0,0,1,23-23h253a23.02619,23.02619,0,0,1,23,23v94A23.02588,23.02588,0,0,1,713.30981,462.61085Z" transform="translate(-234.30981 -149.12266)"/><path fill="#3f3d56" d="M713.30981,462.61085h-253a23.02588,23.02588,0,0,1-23-23v-94a23.02619,23.02619,0,0,1,23-23h253a23.02619,23.02619,0,0,1,23,23v94A23.02588,23.02588,0,0,1,713.30981,462.61085Zm-253-138a21.02359,21.02359,0,0,0-21,21v94a21.0239,21.0239,0,0,0,21,21h253a21.0239,21.0239,0,0,0,21-21v-94a21.02359,21.02359,0,0,0-21-21Z" transform="translate(-234.30981 -149.12266)"/><path fill="#0bef62" d="M558.84847,359.85444H516.35182a4.05826,4.05826,0,1,1,0-8.11651h42.49665a4.05826,4.05826,0,0,1,0,8.11651Z" transform="translate(-234.30981 -149.12266)"/><path fill="#e6e6e6" d="M654.11188,376.4528H516.35182a4.05825,4.05825,0,1,1,0-8.1165H654.11188a4.05825,4.05825,0,0,1,0,8.1165Z" transform="translate(-234.30981 -149.12266)"/><path fill="#e6e6e6" d="M654.11188,395.50548H516.35182a4.05825,4.05825,0,1,1,0-8.1165H654.11188a4.05825,4.05825,0,0,1,0,8.1165Z" transform="translate(-234.30981 -149.12266)"/><path fill="#e6e6e6" d="M654.11188,414.55817H516.35182a4.05826,4.05826,0,1,1,0-8.11651H654.11188a4.05826,4.05826,0,0,1,0,8.11651Z" transform="translate(-234.30981 -149.12266)"/><path fill="#e6e6e6" d="M654.11188,433.61085H516.35182a4.05825,4.05825,0,1,1,0-8.1165H654.11188a4.05825,4.05825,0,0,1,0,8.1165Z" transform="translate(-234.30981 -149.12266)"/><polygon fill="#ffb6b6" points="598.507 584.918 584.621 584.917 578.014 531.353 598.51 531.354 598.507 584.918"/><path fill="#2f2e41" d="M833.30587,748.52667l-42.70332-.00161V747.985A16.62223,16.62223,0,0,1,807.22387,731.364h.001l7.8003-5.91772,14.55365,5.91862,3.72772.00013Z" transform="translate(-234.30981 -149.12266)"/><polygon fill="#ffb6b6" points="695.84 559.374 684.481 567.36 648.267 527.345 665.033 515.556 695.84 559.374"/><path fill="#2f2e41" d="M938.88322,720.06512l-34.9327,24.56175-.31064-.44177a16.62222,16.62222,0,0,1,4.03594-23.15683l.00084-.0006,2.97685-9.32751,15.30945-3.52981,3.04939-2.14409Z" transform="translate(-234.30981 -149.12266)"/><path fill="#2f2e41" d="M888.14464,467.56377l1.15381,2.465c7.58446,16.20317,9.5237,34.316,6.57629,51.962a2.94355,2.94355,0,0,0,.11755,2.09368c1.82792,2.144-1.03991,11.45884-2.68377,16.66l-1.48165,9.1975s2.45684,8.54206-1.27491,7.91428,1.82525,8.48365-1.73438,10.76624l-9.234,57.32155,38.52491,63.49476L903.84,710.128,846.766,636.64531l-.71343-66.34845-8.56109,53.50681-.71342,84.18406-25.95789-2.75935-9.5104-81.61753,9.07159-112.87368,14.26849-48.93978Z" transform="translate(-234.30981 -149.12266)"/><path fill="#ffb6b6" d="M727.38341,447.96766a7.74427,7.74427,0,0,1,10.77619-.74019,7.42985,7.42985,0,0,1,.85424.88247l25.43912-9.09873,9.15854,11.28393-36.196,8.69647a7.72281,7.72281,0,0,1-9.41777-.44719,7.39069,7.39069,0,0,1-.74927-10.42514Q727.31488,448.04256,727.38341,447.96766Z" transform="translate(-234.30981 -149.12266)"/><path fill="#0bef62" d="M870.30981,320.61085l-21,1L839.2677,338.95927l-14.26848,4.28054L812.871,373.20363l7.4388,93.40722s1.49108,5.64973-1.25446,4.82486-1.62644,6.25555-1.62644,6.25555l-10.1191,38.91959,92-8-5.10844-41.23523s7.10241.2292,2.10844-4.76477-7.42261-3.40309-2.62525-9.3071,5.51078-10.18455,5.51078-10.18455l2.14027-29.25039,3.52846-41.16536a39.55463,39.55463,0,0,0-14.94323-34.45759l0,0Z" transform="translate(-234.30981 -149.12266)"/><path fill="#ffb6b6" d="M919.87316,524.51321a7.74427,7.74427,0,0,0-1.918-10.62994,7.43,7.43,0,0,0-1.0646-.61246l2.60044-26.89189-13.18124-6.12054.42055,37.22371a7.72279,7.72279,0,0,0,2.737,9.02235,7.39069,7.39069,0,0,0,10.29177-1.82327Q919.8173,524.598,919.87316,524.51321Z" transform="translate(-234.30981 -149.12266)"/><path fill="#0bef62" d="M899.98266,349.90962s30.24085,72.03781,29.32715,99.70123l-10,51-14-1,1-46c5.10834-5.22256-16.27087-34.71918-23.318-55.47778Z" transform="translate(-234.30981 -149.12266)"/><path fill="#0bef62" d="M826.42607,342.52639s-37.54185,68.35894-52.07994,88.46459l-11.03632,8.61987v14l25.66149.56643s38.16819-31.74738,36.74134-47.44271S826.42607,342.52639,826.42607,342.52639Z" transform="translate(-234.30981 -149.12266)"/><circle cx="625.11" cy="140.039" r="26.632" fill="#ffb6b6"/><path fill="#2f2e41" d="M869.71049,313.61085c-7.6423-.25074-8.33652-2.26936-15.97882-2.5201-2.43339-.07984-5.30489-.41335-6.48134-2.545-.83791-1.51819-.45234-3.43.28508-4.99943a45.6583,45.6583,0,0,0,2.35431-4.63127,8.08891,8.08891,0,0,0-8.01463-10.66433c-2.32567.1005-4.50985,1.19416-6.82909,1.394-3.18069.27414-10.214-10.22767-8.7496-13.06447,1.42546-2.76135,4.29416-4.8447,4.745-7.91939.2949-2.011-.53521-4.00913-.64864-6.03845-.16818-3.00895,7.45914,3.77557,6.06227,1.10521-3.42655-6.55054,28.86321-14.67148,34.17919-6.46633,1.98678,3.06661,5.52756,2.85744,8.68347,4.69913,2.06843,1.20706,7.29142,5.37134,8.4788,7.96687a20.20813,20.20813,0,0,1,1.51247,8.36143c.04777,13.31425-1.98065,25.56131-12.72,33.43136" transform="translate(-234.30981 -149.12266)"/><path fill="#f2f2f2" d="M745.25183,742.97955a48.67532,48.67532,0,0,1-39.25924-14.64528c-6.59053-6.94854-11.11322-15.89234-15.48708-24.54163-1.2732-2.51693-2.58928-5.11971-3.9282-7.61425a15.53413,15.53413,0,0,1,1.61174-17.33178,15.27245,15.27245,0,0,1,16.303-5.20878l.63822.18437,5.74416,22.4141c.85694-3.34323,2.69631-10.87591,3.85784-18.25611l.09758-.61814.572.25474a78.13223,78.13223,0,0,1,16.78623,10.11536,80.52866,80.52866,0,0,1,30.11215,60.64308l.0152.697Z" transform="translate(-234.30981 -149.12266)"/><path fill="#cacaca" d="M964.4995,750.57l-278.75.30733a1.19068,1.19068,0,0,1,0-2.38137l278.75-.30733a1.19069,1.19069,0,1,1,0,2.38137Z" transform="translate(-234.30981 -149.12266)"/></svg>