<svg xmlns="http://www.w3.org/2000/svg" xmlns:xlink="http://www.w3.org/1999/xlink" width="1048.901" height="583.739" data-name="Layer 1" viewBox="0 0 1048.901 583.739"><path fill="#f2f2f2" d="M1124.45042,528.38779c0-48.26367-39.15191-162.791-87.44824-162.791s-87.44824,114.5273-87.44824,162.791a87.44826,87.44826,0,0,0,174.89648,0Z" transform="translate(-75.54958 -158.13048)"/><path fill="#ccc" d="M1037.00221,740.99552a.71879.71879,0,0,0,.71906-.71858V438.988a.71907.71907,0,0,0-1.43813,0v301.2889A.7188.7188,0,0,0,1037.00221,740.99552Z" transform="translate(-75.54958 -158.13048)"/><path fill="#ccc" d="M1037.00221,497.154a.717.717,0,0,0,.50849-.21052l34.61187-34.58829a.71881.71881,0,0,0-1.017-1.01612l-34.61187,34.58829a.71858.71858,0,0,0,.50849,1.22664Z" transform="translate(-75.54958 -158.13048)"/><path fill="#ccc" d="M1037.00221,557.03327a.71858.71858,0,0,0,.50849-1.22663l-57.96386-57.92493a.71881.71881,0,0,0-1.017,1.01612l57.96386,57.92492A.71717.71717,0,0,0,1037.00221,557.03327Z" transform="translate(-75.54958 -158.13048)"/><path fill="#ccc" d="M1113.30341,741.86952h-286a1,1,0,0,1,0-2h286a1,1,0,0,1,0,2Z" transform="translate(-75.54958 -158.13048)"/><polygon fill="#ffb8b8" points="835.838 570.965 823.578 570.964 817.746 523.676 835.84 523.677 835.838 570.965"/><path fill="#2f2e41" d="M814.821,567.46107h23.64385a0,0,0,0,1,0,0v14.88687a0,0,0,0,1,0,0H799.93413a0,0,0,0,1,0,0v0A14.88687,14.88687,0,0,1,814.821,567.46107Z"/><polygon fill="#ffb8b8" points="924.793 557.077 913.642 562.171 888.688 521.581 905.147 514.064 924.793 557.077"/><path fill="#2f2e41" d="M982.46709,718.26118H1006.111a0,0,0,0,1,0,0v14.88687a0,0,0,0,1,0,0H967.58023a0,0,0,0,1,0,0v0A14.88686,14.88686,0,0,1,982.46709,718.26118Z" transform="translate(-287.8524 317.46519) rotate(-24.54855)"/><path fill="#2f2e41" d="M910.60615,716.62608H898.89424a4.51685,4.51685,0,0,1-4.48828-4.17382l-6.387-170.5586a4.49979,4.49979,0,0,1,4.9253-4.80469l67.73486,7.19336a4.50132,4.50132,0,0,1,4.06225,4.39356l1.41944,75.23535a3.49186,3.49186,0,0,0,.23389,1.19336l27.78515,72.05273a4.49893,4.49893,0,0,1-2.64306,5.84082l-11.86841,4.37305a4.50111,4.50111,0,0,1-5.55738-2.16406L939.97847,638.838a4.47471,4.47471,0,0,1-.4043-1.14258l-5.83081-28.09375a3.49992,3.49992,0,0,0-6.90405.3125L915.0771,712.6378A4.499,4.499,0,0,1,910.60615,716.62608Z" transform="translate(-75.54958 -158.13048)"/><circle cx="840.888" cy="225.842" r="24.561" fill="#ffb8b8"/><path fill="#0bef62" d="M933.37112,557.45692c-21.72558.001-38.73657-9.04394-44.8955-12.83056h.00024a4.46981,4.46981,0,0,1-2.11694-4.13819l5.97241-85.37256a37.011,37.011,0,0,1,16.88086-28.65234,35.6298,35.6298,0,0,1,31.79517-3.78906,25.09307,25.09307,0,0,1,6.467,3.35058c13.23071,9.8545,19.60766,24.69385,17.4956,40.71241-4.38013,33.21875.58179,78.02929,1.16187,83.02929l.042.36035-.32959.15137A77.0429,77.0429,0,0,1,933.37112,557.45692Z" transform="translate(-75.54958 -158.13048)"/><path fill="#ffb8b8" d="M964.64013,569.6517a10.05578,10.05578,0,0,0,.80113-15.3985l14.41159-32.69992-18.30864,3.10281L950.66563,555.2328a10.11027,10.11027,0,0,0,13.9745,14.4189Z" transform="translate(-75.54958 -158.13048)"/><path fill="#0bef62" d="M966.0185,549.45226a4.48614,4.48614,0,0,1-3.312-1.46l-5.37256-5.86132a4.52264,4.52264,0,0,1-.99829-4.31543l12.30493-41.64746-18.72216-39.31641a8.33317,8.33317,0,0,1-.56958-5.5459A8.30928,8.30928,0,0,1,964.73628,449.34l25.30932,41.06738a11.451,11.451,0,0,1,.6897,10.73047l-20.60986,45.665a4.48864,4.48864,0,0,1-3.38965,2.5918A4.56843,4.56843,0,0,1,966.0185,549.45226Z" transform="translate(-75.54958 -158.13048)"/><path fill="#2f2e41" d="M936.67427,405.62608c-2.54689.43668-4.64263-3.10848-4.95957-5.60212s.59189-4.88066.691-7.35814-1.0692-5.48812-3.64216-6.22268c-2.69745-.7701-5.198,1.39369-7.95937,1.13348-3.84789-.36258-5.77979-4.86573-6.24594-8.50854s-.83239-7.95674-4.16483-10.03411c-3.32214-2.07094-7.43185-.56415-11.24915-.49969-6.4517.10895-13.01929-4.81094-14.52695-10.88235a3.65951,3.65951,0,0,0,4.1745-1.67179,3.70376,3.70376,0,0,0-1.1144-4.37823l7.31314,3.58106c-.99948-2.03412.51-4.35112,2.58767-5.12143s4.49481-.42436,6.78761-.06815c11.45045,1.77894,24.71315.90215,32.30847,9.63269,5.2609,6.04722,9.5914,17.55439,9,25S936.67427,405.62608,936.67427,405.62608Z" transform="translate(-75.54958 -158.13048)"/><path fill="#ffb8b8" d="M806.44119,447.4965a10.05572,10.05572,0,0,1,14.4529,5.373l35.73392-.25747-10.11107,15.57562-32.3834-2.14342a10.11027,10.11027,0,0,1-7.69235-18.54775Z" transform="translate(-75.54958 -158.13048)"/><path fill="#0bef62" d="M825.035,464.473a4.48619,4.48619,0,0,1,.75394-3.54013l4.64267-6.45486a4.52261,4.52261,0,0,1,4.0212-1.85727l41.79938-1.75122,36.15489-21.04045a8.33323,8.33323,0,0,1,5.31324-1.68847,8.30928,8.30928,0,0,1,5.06216,14.66331l-35.04375,33.15158a11.451,11.451,0,0,1-10.36439,2.86325L828.46623,467.9534a4.48859,4.48859,0,0,1-3.22852-2.78994A4.56821,4.56821,0,0,1,825.035,464.473Z" transform="translate(-75.54958 -158.13048)"/><path fill="#00c58e" d="M652.33008,239.21756l-13.68891,23.7037-46.8148-81.08641L448.11279,430.72375h97.3037a23.70371,23.70371,0,0,0,23.7037,23.70371H448.1128a23.70371,23.70371,0,0,1-20.52346-35.55558L571.30292,169.983a23.7037,23.7037,0,0,1,41.05679,0Z" transform="translate(-75.54958 -158.13048)"/><path fill="#2f495e" d="M756.0733,418.87188,666.019,262.92126l-13.6889-23.7037-13.68888,23.7037L548.59675,418.87188a23.70372,23.70372,0,0,0,20.52347,35.55558h166.4a23.70369,23.70369,0,0,0,20.53333-35.55555h.01974ZM569.12019,430.72372,652.33009,286.625,735.5202,430.72375h-166.4Z" transform="translate(-75.54958 -158.13048)"/><path fill="#108775" d="M820.45846,442.57559A23.70021,23.70021,0,0,1,799.935,454.42743H735.5202a23.7037,23.7037,0,0,0,23.70371-23.70371h40.66174L684.50784,230.89164,666.019,262.92128l-13.68887-23.7037,11.65431-20.17779a23.70369,23.70369,0,0,1,41.05678,0L820.45846,418.87188A23.70371,23.70371,0,0,1,820.45846,442.57559Z" transform="translate(-75.54958 -158.13048)"/><path fill="#f2f2f2" d="M352.25223,739.86952a37,37,0,0,1,74,0" transform="translate(-75.54958 -158.13048)"/><path fill="#f2f2f2" d="M328.87537,512.77486,120.2303,565.78455a10.19754,10.19754,0,0,1-12.38056-7.36419L77.42413,438.6632a7.47088,7.47088,0,0,1,5.39493-9.07028L296.6187,375.27366a7.60008,7.60008,0,0,1,9.227,5.48853l30.39384,119.63212A10.19753,10.19753,0,0,1,328.87537,512.77486Z" transform="translate(-75.54958 -158.13048)"/><path fill="#fff" d="M127.29532,553.48,316.794,505.33467a9.87735,9.87735,0,0,0,7.141-12.00539l-23.341-91.87162a9.87735,9.87735,0,0,0-12.00539-7.141L99.09,442.462a9.87733,9.87733,0,0,0-7.141,12.00539l23.341,91.87161A9.87734,9.87734,0,0,0,127.29532,553.48Z" transform="translate(-75.54958 -158.13048)"/><path fill="#e6e6e6" d="M305.533,380.10735,77.1421,438.13367l-1.27695-5.02616A10.23154,10.23154,0,0,1,83.2577,420.688l208.5743-52.9917a10.23148,10.23148,0,0,1,12.42406,7.38486Z" transform="translate(-75.54958 -158.13048)"/><circle cx="17.707" cy="267.979" r="2.644" fill="#fff"/><circle cx="27.435" cy="265.508" r="2.644" fill="#fff"/><circle cx="37.163" cy="263.036" r="2.644" fill="#fff"/><path fill="#e6e6e6" d="M298.06791,474.24879,127.61905,517.55431a4.93867,4.93867,0,1,1-2.43218-9.57321l170.44886-43.30552a4.93867,4.93867,0,0,1,2.43218,9.57321Z" transform="translate(-75.54958 -158.13048)"/><path fill="#ccc" d="M298.288,492.66432l-50.18541,12.75127a4.93867,4.93867,0,1,1-2.43218-9.57321l50.18541-12.75127a4.93867,4.93867,0,1,1,2.43218,9.57321Z" transform="translate(-75.54958 -158.13048)"/><path fill="#e6e6e6" d="M290.11473,430.40929l-108.223,27.49636a4.93867,4.93867,0,1,1-2.43218-9.57321l108.223-27.49636a4.93867,4.93867,0,1,1,2.43217,9.57321Z" transform="translate(-75.54958 -158.13048)"/><path fill="#e6e6e6" d="M294.52306,447.76074l-108.223,27.49636a4.93867,4.93867,0,1,1-2.43218-9.57321l108.223-27.49636a4.93867,4.93867,0,0,1,2.43218,9.57321Z" transform="translate(-75.54958 -158.13048)"/><path fill="#e6e6e6" d="M169.59843,488.736,122.3307,500.74488a4.01722,4.01722,0,0,1-4.87719-2.901L108.18083,461.346a4.01723,4.01723,0,0,1,2.901-4.87719L158.3496,444.4599a4.01723,4.01723,0,0,1,4.87719,2.901l9.27268,36.49786A4.01722,4.01722,0,0,1,169.59843,488.736Z" transform="translate(-75.54958 -158.13048)"/><path fill="#ffb8b8" d="M189.37085,545.6738a9.12981,9.12981,0,1,0,15.79-9.17,9.82585,9.82585,0,0,0-.85986-1.22l7.68018-54.74.23-1.64,1.56006-11.17.23-1.61-.8501.04-14.87988.68-3.99024.18-.5,10.19-2.83008,57.29A9.1175,9.1175,0,0,0,189.37085,545.6738Z" transform="translate(-75.54958 -158.13048)"/><path fill="#0bef62" d="M212.167,479.402l-18.89453-1.7334a3.72978,3.72978,0,0,1-3.36426-4.03711l3.50464-39.292a14.32608,14.32608,0,1,1,28.44287,3.35742l-5.66553,38.54a3.72358,3.72358,0,0,1-3.67847,3.18067C212.3977,479.41764,212.28247,479.41275,212.167,479.402Z" transform="translate(-75.54958 -158.13048)"/><path fill="#0bef62" d="M197.84758,447.65656a26.316,26.316,0,0,1,9.67854-30.28775c7.125-4.875,16.875-6.625,27.375,5.875,21,25,26.5,52.5,26.5,52.5l-43,7S203.77627,464.869,197.84758,447.65656Z" transform="translate(-75.54958 -158.13048)"/><polygon fill="#ffb8b8" points="191.843 571.133 204.103 571.132 209.935 523.844 191.841 523.845 191.843 571.133"/><path fill="#2f2e41" d="M264.76568,725.75945H303.2964a0,0,0,0,1,0,0v14.88687a0,0,0,0,1,0,0H279.65254a14.88686,14.88686,0,0,1-14.88686-14.88686v0A0,0,0,0,1,264.76568,725.75945Z" transform="translate(492.54597 1308.26233) rotate(179.99738)"/><polygon fill="#ffb8b8" points="91.049 560.44 102.689 564.288 123.069 521.22 105.889 515.541 91.049 560.44"/><path fill="#2f2e41" d="M161.89418,720.09033H200.4249a0,0,0,0,1,0,0v14.88687a0,0,0,0,1,0,0H176.781a14.88686,14.88686,0,0,1-14.88686-14.88686v0A0,0,0,0,1,161.89418,720.09033Z" transform="translate(49.2955 1317.03478) rotate(-161.70982)"/><circle cx="149.289" cy="222.279" r="24.561" fill="#ffb8b8"/><path fill="#2f2e41" d="M246.343,716.0983l-11.38549-75.14453a3.49991,3.49991,0,0,0-6.86207-.29981l-17.33789,71.61231a4.5328,4.5328,0,0,1-5.08789,3.38476l-47.82495-7.68652a4.50024,4.50024,0,0,1-3.59253-5.75L216.613,496.61881a3.50212,3.50212,0,0,0,.061-1.80176L214.59765,485.82a4.4835,4.4835,0,0,1,2.32666-5.01367c8.4917-4.333,29.99512-13.34082,46.2312-3.47364a4.55065,4.55065,0,0,1,2.07935,2.92676l48.71606,228.96582a4.50012,4.50012,0,0,1-4,5.41895l-58.75708,5.26172q-.20324.01758-.40332.01757A4.50808,4.50808,0,0,1,246.343,716.0983Z" transform="translate(-75.54958 -158.13048)"/><path fill="#2f2e41" d="M208.552,363.05617a18.58048,18.58048,0,0,0,4.85539-4.21967,6.30247,6.30247,0,0,0,.96956-6.09723c-1.24089-2.73755-4.92847-3.60465-7.78555-2.67135s-5.06451,3.17168-7.1527,5.33348c-1.83939,1.90423-3.73126,3.89176-4.60379,6.39138s-.4243,5.66844,1.74585,7.185c2.12971,1.48826,5.19168.879,7.24-.71933s3.31632-3.97014,4.52532-6.2699Z" transform="translate(-75.54958 -158.13048)"/><path fill="#2f2e41" d="M200.23354,356.058c-.13617-6.92044-8.02447-11.88254-14.83677-10.6563s-12.0488,7.03479-14.67,13.44108c-5.5381,13.53545-1.38067,28.97939,3.95549,42.59572s11.93966,27.43895,11.16133,42.04283a43.92467,43.92467,0,0,1-25.51472,37.00452c7.68836,3.48494,16.87823-.11522,23.33889-5.548,14.348-12.06535,19.88632-33.54559,13.16093-51.04435-3.31714-8.63087-9.163-16.01456-13.72691-24.05606s-7.91253-17.5181-5.55622-26.45919,12.38408-16.18268,20.9572-12.719Z" transform="translate(-75.54958 -158.13048)"/><path fill="#2f2e41" d="M226.311,391.30817c-2.14085-3.61833-4.30247-8.36835-.388-11.53093a8.06391,8.06391,0,0,1,6.05042-1.59983c4.41236.53194,9.21712.7511,13.48758-.85188a12.64406,12.64406,0,0,0,7.33451-6.59056c2.2048-5.22385-.55609-11.57176-5.16523-14.8741a17.39824,17.39824,0,0,0-19.25782-.34059c-5.96977-2.63654-13.21315-1.46425-18.63662,2.16555s-9.13469,9.44272-11.15082,15.64954a30.20628,30.20628,0,0,0-.92286,16.6146,24.69215,24.69215,0,0,0,15.31694,16.87877,8.89166,8.89166,0,0,0,8.78224-1.30311s3.3852-2.955,4.44445-6.51421C227.0194,396.27768,227.45488,393.2414,226.311,391.30817Z" transform="translate(-75.54958 -158.13048)"/><path fill="#ccc" d="M551.30341,741.86952h-421a1,1,0,1,1,0-2h421a1,1,0,0,1,0,2Z" transform="translate(-75.54958 -158.13048)"/><path fill="#ffb8b8" d="M299.17317,413.22384a10.527,10.527,0,0,0-.2393,1.64013l-42.95744,24.782L245.535,433.635l-11.13116,14.57228,17.45034,12.43754a8,8,0,0,0,9.59819-.23383l44.29652-34.94583a10.4971,10.4971,0,1,0-6.57573-12.24133Z" transform="translate(-75.54958 -158.13048)"/><path fill="#0bef62" d="M254.54031,440.8197l-13.88374,17.994a4.5,4.5,0,0,1-6.80392.37267l-15.71732-16.32121A12.49742,12.49742,0,0,1,233.462,423.121l19.713,11.02279a4.5,4.5,0,0,1,1.36538,6.67592Z" transform="translate(-75.54958 -158.13048)"/><path fill="#ccc" d="M389.25223,741.86952a1,1,0,0,1-1-1v-19.5a1,1,0,0,1,2,0v19.5A1.00005,1.00005,0,0,1,389.25223,741.86952Z" transform="translate(-75.54958 -158.13048)"/><path fill="#ccc" d="M389.25174,733.16884a.99549.99549,0,0,1-.65088-.24121L376.601,722.62831a1,1,0,1,1,1.30262-1.51758l12,10.29932a1,1,0,0,1-.65186,1.75879Z" transform="translate(-75.54958 -158.13048)"/><path fill="#f2f2f2" d="M439.25223,739.86952a37,37,0,0,1,74,0" transform="translate(-75.54958 -158.13048)"/><path fill="#ccc" d="M476.25223,741.86952a1,1,0,0,1-1-1v-19.5a1,1,0,0,1,2,0v19.5A1.00005,1.00005,0,0,1,476.25223,741.86952Z" transform="translate(-75.54958 -158.13048)"/><path fill="#ccc" d="M476.25174,733.16884a.99549.99549,0,0,1-.65088-.24121l-12-10.29932a1,1,0,0,1,1.30274-1.51758l12,10.29932a1,1,0,0,1-.65186,1.75879Z" transform="translate(-75.54958 -158.13048)"/></svg>