<svg xmlns="http://www.w3.org/2000/svg" xmlns:xlink="http://www.w3.org/1999/xlink" width="1027.992" height="529.556" data-name="Layer 1" viewBox="0 0 1027.992 529.556"><title>online_transactions</title><rect width="343.72" height="234.17" x="305.992" y="295.386" fill="#0bef62"/><path fill="#3f3d56" d="M754.88605,453.21778h-338.24a4.11628,4.11628,0,0,0-4.11005,4.11v228.69a4.10986,4.10986,0,0,0,4.11005,4.11h338.24a4.10984,4.10984,0,0,0,4.11-4.11v-228.69A4.11626,4.11626,0,0,0,754.88605,453.21778Zm1.37,232.8a1.36568,1.36568,0,0,1-1.37,1.37h-338.24a1.36569,1.36569,0,0,1-1.37-1.37v-228.69a1.37207,1.37207,0,0,1,1.37-1.37h338.24a1.37206,1.37206,0,0,1,1.37,1.37Z" transform="translate(-86.00397 -185.22222)"/><rect width="154.743" height="17.802" x="344.335" y="429.587" fill="#3f3d56" rx="2"/><path fill="#3f3d56" d="M726.126,599.74775h-49.29a4.10991,4.10991,0,0,0-4.11005,4.11v38.34a4.10986,4.10986,0,0,0,4.11005,4.11h49.29a4.1098,4.1098,0,0,0,4.11-4.11v-38.34A4.10985,4.10985,0,0,0,726.126,599.74775Zm1.37,42.45a1.37206,1.37206,0,0,1-1.37,1.37h-49.29a1.37212,1.37212,0,0,1-1.37006-1.37v-38.34a1.36574,1.36574,0,0,1,1.37006-1.37h49.29a1.36568,1.36568,0,0,1,1.37,1.37Z" transform="translate(-86.00397 -185.22222)"/><rect width="33.603" height="6.952" x="598.676" y="423.372" fill="#3f3d56" rx="2"/><rect width="33.603" height="6.952" x="598.676" y="434.328" fill="#3f3d56" rx="2"/><rect width="33.603" height="6.952" x="598.676" y="445.283" fill="#3f3d56" rx="2"/><rect width="71.209" height="30.127" x="348.444" y="284.431" fill="#3f3d56" rx="2"/><path fill="#0bef62" d="M475.52961,484.71625c0,5.29411-2.45241,9.58583-5.47761,9.58583s-5.47761-4.29172-5.47761-9.58583,5.47761-9.58582,5.47761-9.58582S475.52961,479.42215,475.52961,484.71625Z" transform="translate(-86.00397 -185.22222)"/><polygon fill="#3f3d56" points="901.992 161.837 899.992 161.837 899.992 385.451 672.992 385.451 672.992 387.451 901.992 387.451 901.992 161.837"/><polygon fill="#3f3d56" points="305.992 387.451 76.992 387.451 76.992 161.837 78.992 161.837 78.992 385.451 305.992 385.451 305.992 387.451"/><path fill="#3f3d56" d="M1113.35519,223.03181h-1.28168v-2.24294h.96126a.64087.64087,0,0,0,.64084-.64084V208.6129a.64085.64085,0,0,0-.64084-.64084h-.96126v-6.551a13.95586,13.95586,0,0,0-13.956-13.95591h-1.42421v-1.60211a.64085.64085,0,0,0-.64084-.64084h-11.53513a.64085.64085,0,0,0-.64084.64084v1.60211H875.46088a13.95586,13.95586,0,0,0-13.956,13.95591v296.9942a13.9559,13.9559,0,0,0,13.956,13.956h222.65667a13.9559,13.9559,0,0,0,13.956-13.956V235.84861h1.28168a.64087.64087,0,0,0,.64084-.64084V223.67265A.64085.64085,0,0,0,1113.35519,223.03181Z" transform="translate(-86.00397 -185.22222)"/><rect width="229.423" height="304.406" x="787.035" y="11.372" fill="#d0cde1" rx="1.905"/><rect width="39.357" height="11.663" x="875.401" y="160.558" fill="#3f3d56" rx="2"/><rect width="134.517" height="4.998" x="827.821" y="69.754" fill="#3f3d56" rx="2"/><rect width="134.517" height="4.998" x="827.821" y="85.582" fill="#3f3d56" rx="2"/><rect width="134.517" height="4.998" x="827.821" y="101.41" fill="#3f3d56" rx="2"/><rect width="134.517" height="4.998" x="827.821" y="117.239" fill="#3f3d56" rx="2"/><rect width="134.517" height="4.998" x="827.821" y="133.067" fill="#3f3d56" rx="2"/><circle cx="890.317" cy="261.978" r="41.78" fill="#0bef62"/><path fill="#3f3d56" d="M988.63566,479.42627a52.38194,52.38194,0,1,1,52.38193-52.38194A52.44121,52.44121,0,0,1,988.63566,479.42627Zm0-102.85908a50.47714,50.47714,0,1,0,50.47714,50.47714A50.53392,50.53392,0,0,0,988.63566,376.56719Z" transform="translate(-86.00397 -185.22222)"/><path fill="#3f3d56" d="M241.496,273.13387h-1.71341V226.19551a27.16665,27.16665,0,0,0-27.16673-27.16667H113.1707A27.16664,27.16664,0,0,0,86.004,226.19551V483.703a27.16664,27.16664,0,0,0,27.16673,27.16667h99.44519A27.16665,27.16665,0,0,0,239.78262,483.703V306.54539H241.496Z" transform="translate(-86.00397 -185.22222)"/><path fill="#d0cde1" d="M233.99737,227.79218V484.92413a20.28849,20.28849,0,0,1-20.28483,20.29192H113.78728a20.28842,20.28842,0,0,1-20.28475-20.29192V227.79218a20.28688,20.28688,0,0,1,20.28475-20.28471h12.12326a9.63757,9.63757,0,0,0,8.925,13.27583h56.97157a9.63747,9.63747,0,0,0,8.925-13.27583h12.98047A20.287,20.287,0,0,1,233.99737,227.79218Z" transform="translate(-86.00397 -185.22222)"/><rect width="26.768" height="7.933" x="64.362" y="173.773" fill="#3f3d56" rx="2"/><rect width="91.492" height="3.4" x="32" y="112.012" fill="#3f3d56" rx="1.7"/><rect width="91.492" height="3.4" x="32" y="122.778" fill="#3f3d56" rx="1.7"/><rect width="91.492" height="3.4" x="32" y="133.544" fill="#3f3d56" rx="1.7"/><rect width="91.492" height="3.4" x="32" y="144.309" fill="#3f3d56" rx="1.7"/><rect width="91.492" height="3.4" x="32" y="155.075" fill="#3f3d56" rx="1.7"/><circle cx="69.875" cy="256.355" r="28.813" fill="#0bef62"/><path fill="#3f3d56" d="M164.37142,463.80112A36.12462,36.12462,0,1,1,200.496,427.67651,36.16549,36.16549,0,0,1,164.37142,463.80112Zm0-70.9356a34.811,34.811,0,1,0,34.811,34.811A34.85016,34.85016,0,0,0,164.37142,392.86552Z" transform="translate(-86.00397 -185.22222)"/><rect width="28" height="28" x="147.505" y="375.19" fill="#d0cde1"/><path fill="#3f3d56" d="M278.50853,572.41192h-34v-34h34Zm-32.52174-1.47826h31.04348V539.89018H245.98679Z" transform="translate(-86.00397 -185.22222)"/><rect width="28" height="28" x="774.505" y="375.19" fill="#d0cde1"/><path fill="#3f3d56" d="M905.50853,572.41192h-34v-34h34Zm-32.52174-1.47826h31.04348V539.89018H872.98679Z" transform="translate(-86.00397 -185.22222)"/></svg>