<svg xmlns="http://www.w3.org/2000/svg" xmlns:xlink="http://www.w3.org/1999/xlink" width="742.417" height="712.574" viewBox="0 0 742.417 712.574"><g><polygon fill="#ffb6b6" points="596.195 702.752 586.165 702.751 581.393 664.061 596.197 664.062 596.195 702.752"/><path fill="#2f2e41" d="M561.82916,702.52448h0c-.31232,.526-.47711,2.22369-.47711,2.83539h0c0,1.88019,1.52417,3.40442,3.40442,3.40442h31.06354c1.28265,0,2.32251-1.03979,2.32251-2.32251v-1.29327s1.53668-3.88696-1.62708-8.67786c0,0-3.93213,3.75134-9.80774-2.12427l-1.73267-3.13885-12.54211,9.17267-6.9519,.85571c-1.52094,.18719-2.86938-.02905-3.65173,1.28857h-.00012Z"/></g><g><polygon fill="#ffb6b6" points="634.195 702.752 624.165 702.751 619.393 664.061 634.197 664.062 634.195 702.752"/><path fill="#2f2e41" d="M599.82916,702.52448h0c-.31232,.526-.47711,2.22369-.47711,2.83539h0c0,1.88019,1.52417,3.40442,3.40442,3.40442h31.06354c1.28265,0,2.32251-1.03979,2.32251-2.32251v-1.29327s1.53668-3.88696-1.62708-8.67786c0,0-3.93213,3.75134-9.80774-2.12427l-1.73267-3.13885-12.54211,9.17267-6.9519,.85571c-1.52094,.18719-2.86938-.02905-3.65173,1.28857h-.00012Z"/></g><path fill="#2f2e41" d="M576.86249,470.55524l-.22186,214.85828h26.27661l12.41089-158.88239,.35437,158.88232,24.28571-.28381,18.80011-182.76996s2.53088-19.0827-5.44366-28.83609c-7.97461-9.75339-76.46216-2.96841-76.46216-2.96841v.00006Z"/><path fill="#ffb6b6" d="M576.27777,495.0127c.53528,6.64636-2.45947,12.31039-6.68903,12.65103-4.22949,.34061-8.0921-4.77115-8.62732-11.41754-.23431-2.90933,.20795-5.63037,1.13391-7.79916l-1.91473-28.19101,13.24841-.61679,.48138,27.85629c1.26111,1.99265,2.13306,4.60785,2.36737,7.51718Z"/><path id="b-779" fill="#3f3d56" d="M429.91394,168.89198h0V61.91498C429.91394,27.72028,402.19366,0,367.99896,0H141.349c-34.1947-.00056-61.91547,27.71928-61.91602,61.91399V648.79797c0,34.1947,27.72028,61.91498,61.91498,61.91498h226.64801c34.1947,0,61.91498-27.72028,61.91498-61.91498V245.03999h.00031c2.15378,0,3.89978-1.74594,3.89987-3.8997l.00269-68.34828c.00009-2.1539-1.74597-3.90002-3.89987-3.90002Z"/><path id="c-780" fill="#fff" d="M418.28699,56.767V651.94196c-36.18384-2.2226-72.00699,39.26556-46.94202,46.95203H140.04498c-25.93588,.00391-46.9653-21.01611-46.97302-46.95203V56.767c.00772-25.93494,21.03607-46.95432,46.97101-46.951h17.05798c-4.64526,11.42361,32.84558,15.14026,35.71967,15.1439h118.45941c12.33197-.01561,42.08359-12.48153,41.00095-15.14389h19.05499c25.92499,.00443,46.94159,21.01704,46.95099,46.94201l.00006,.00899h-.00003Z"/><path id="d-781" fill="#e6e6e6" d="M359.88098,472.57599H154.34399c-2.1011-.0022-3.8038-1.70496-3.806-3.80603v-50.98395c.00275-2.10089,1.70514-3.80328,3.806-3.80603h205.53699c2.10089,.00275,3.80328,1.70514,3.80603,3.80603v50.98499c-.0033,2.10046-1.70557,3.80225-3.80603,3.80499Zm-205.53699-57.07397c-1.26096,.0011-2.2829,1.02301-2.284,2.284v50.98499c.0011,1.26099,1.02304,2.2829,2.284,2.284h205.53699c1.26099-.0011,2.2829-1.02301,2.284-2.284v-50.98499c-.0011-1.26099-1.02301-2.2829-2.284-2.284H154.34399Z"/><path id="e-782" fill="#e6e6e6" d="M359.88098,570.83496H154.34399c-2.1011-.0022-3.8038-1.70496-3.806-3.80603v-50.98395c.00275-2.10089,1.70514-3.80328,3.806-3.80603h205.53699c2.10089,.00275,3.80328,1.70514,3.80603,3.80603v50.98499c-.00275,2.10089-1.70514,3.80328-3.80603,3.80603v-.00104Zm-205.53699-57.07397c-1.26096,.0011-2.2829,1.02301-2.284,2.284v50.98499c.0011,1.26099,1.02304,2.2829,2.284,2.284h205.53699c1.26099-.0011,2.2829-1.02301,2.284-2.284v-50.98499c-.0011-1.26099-1.02301-2.2829-2.284-2.284H154.34399Z"/><path id="f-783" fill="#e6e6e6" d="M740.47894,712.57404H1.93799c-1.07098,0-1.93799-.46802-1.93799-1.04498s.86798-1.04498,1.93799-1.04498H740.47906c1.06995,0,1.93799,.46802,1.93799,1.04498s-.86707,1.04498-1.93811,1.04498Z"/><path id="g-784" fill="#2f2e41" d="M165.23792,262.38995c.23102-.25699,.46198-.5,.70001-.74899,5.79999-6.10001,8.84932-9.716,15.9283-9.716,1.31329,0,7.10362,.05966,8.3037,.17899,4.9707,.48734,8.94604,1.98532,11.92603,4.49399,4.39996,3.70398,6.60571,9.58432,6.617,17.64099,0,.44601,.026,1.27701,.06702,2.38,.26202,6.42801,4.67194,13.255,5.52795,15.57401,1.39001,3.776-.85596,15.871-2.65594,18.33801-1.04602,1.44101-1.25694-2.17139-4.47197-1.49438-.59003,.12799-3.05904,4.90039-3.72603,4.9924-3.44714,.457-6.92303,.6629-10.40002,.616-.45599,0-.91302,0-1.39001-.01001h-.005c-1.64697-.01001-3.40601-.05701-5.27301-.12799-4.9574-.10141-9.89532-.65268-14.75299-1.647h-.005c-.64099-.14401-1.27197-.30801-1.888-.48199l-.11298-.03101-.05103-.10001c-.87891-1.78867-1.38-3.7392-1.47198-5.73001-.94012,1.26822-1.63287,2.70224-2.04199,4.22699l-.07703,.293-1.55592-5.04153c-2.1687-.93274-2.77043,2.48642-4.16905,.58453-1.33783-1.98343-2.14014-4.27902-2.32898-6.664-.70105-6.47696,1.96198-31.56595,7.30695-37.52597Z"/><path id="h-785" fill="#2f2e41" d="M163.50897,470.703h30.742l5.15503-25.48901,1.672,25.48901h30.55701c.01501-18.89099-7.77307-65.43201-6.84106-65.823s-.47498-1.63098-.47498-1.63098l-4.98401-17.11401-.46698-1.61102h-35.58405c-2.04779,1.92365-3.93665,4.00977-5.64801,6.23798-.58002,.73901-1.185,1.539-1.80603,2.40002-.43103,.60999-.87701,1.25201-1.323,1.92401-3.96509,5.90265-6.92889,12.41919-8.77197,19.28699v.005c-.31262,1.17468-.58966,2.37671-.83099,3.60602v.005c-.21503,1.09302-.40503,2.20001-.55402,3.33398-.11298,.82599-.21002,1.66199-.28198,2.508-.42773,4.6889-.27795,9.4126,.44598,14.065l-1.00494,32.80701Z"/><circle id="i" cx="189.828" cy="279.359" r="17.946" fill="#ffb6b6"/><path id="j-786" fill="#2f2e41" d="M178.03595,257.05496h17.56897c2.12518-.49466,4.31543-.64893,6.48901-.457,2.67114,.20364,5.2229,1.19046,7.336,2.83701,3.14398,2.52399,4.87799,6.54599,4.87799,11.32599-.00867,1.52841,.30524,3.53992,0,5.03757l-2.13586-3.52075-.5647,3.52075c-1.62067,.41531-1.2014,.49707-2.82939,.8204-.39001,.077-.78497,.15399-1.17999,.22601-2.13397,.39499-4.16896,1.15045-4.16896,1.15045l-2.42302-.27844c-1.51392-1.39224-1.76802-4.83057-2.57698-6.72156-.15822,.55173-.35326,1.52411-.5432,2.57672-.48915,2.71085-2.85522,4.69629-5.60983,4.69791l-.04697-.00003c-6.74042-.00491-6.73792-5.22263-13.28229-6.83646-.43103-.10001,3.9693,30.40472,3.54431,30.29169l-13.47942-8.66534,1.74042-28.72092c.00439-4.021,3.26294-7.27957,7.28394-7.28403l-.00002,.00003h-.00002Z"/><path id="k-787" fill="#2f2e41" d="M159.61806,255.46278c-3.23535,6.61418-.88226,8.10045,5.73195,11.33577,6.61414,3.23535,14.98479,6.99454,18.22009,.38034,3.23534-6.61414-2.43085-12.01862-9.04503-15.25394,1.41176-5.48187-8.04625-7.9939-12.63669,.25577,1.57729,1.31821-2.0545,4.90002-1.27341,6.80148-1.61182-1.30127,1.18201-3.79285-.87411-3.54083-.04059,.00656-.07899,.01331-.12282,.02138l.00002,.00003Z"/><path id="l-788" fill="#e6e6e6" d="M359.88098,570.83496H154.34399c-2.1011-.0022-3.8038-1.70496-3.806-3.80603v-50.98395c.00275-2.10089,1.70514-3.80328,3.806-3.80603h205.53699c2.10089,.00275,3.80328,1.70514,3.80603,3.80603v50.98499c-.00275,2.10089-1.70514,3.80328-3.80603,3.80603v-.00104Zm-205.53699-57.07397c-1.26096,.0011-2.2829,1.02301-2.284,2.284v50.98499c.0011,1.26099,1.02304,2.2829,2.284,2.284h205.53699c1.26099-.0011,2.2829-1.02301,2.284-2.284v-50.98499c-.0011-1.26099-1.02301-2.2829-2.284-2.284H154.34399Z"/><path id="m-789" fill="#e6e6e6" d="M194.25873,530.87897c-1.47156,0-2.66449,1.19293-2.66449,2.66449s1.19293,2.66449,2.66449,2.66449h125.60498c1.47076,.05634,2.70874-1.09027,2.76508-2.56097,.0564-1.47076-1.09021-2.70874-2.56097-2.76514-.039-.00146-.07806-.00214-.11713-.00189h-125.69196v-.00098h0Z"/><path id="n-790" fill="#e6e6e6" d="M194.25873,546.86499c-1.47156,0-2.66449,1.19293-2.66449,2.66449s1.19293,2.66449,2.66449,2.66449h125.60498c1.47076,.05634,2.70874-1.09021,2.76508-2.56097,.0564-1.47076-1.09021-2.70874-2.56097-2.76514-.039-.00146-.07806-.00214-.11713-.00189h-125.69196v-.00098h0Z"/><path id="o-791" fill="#e6e6e6" d="M359.88098,173.019H154.34399c-2.1011-.0022-3.8038-1.70496-3.806-3.80603v-50.98395c.00275-2.10089,1.70514-3.80328,3.806-3.80603h205.53699c2.10089,.00275,3.80328,1.70514,3.80603,3.80603v50.98499c-.00275,2.10089-1.70514,3.80328-3.80603,3.80603v-.00104Zm-205.53699-57.07397c-1.26096,.0011-2.2829,1.02301-2.284,2.284v50.98499c.0011,1.26099,1.02304,2.2829,2.284,2.284h205.53699c1.26099-.0011,2.2829-1.02301,2.284-2.284v-50.98499c-.0011-1.26099-1.02301-2.2829-2.284-2.284H154.34399Z"/><path id="p-792" fill="#e6e6e6" d="M217.90797,133.06299c-1.47156,0-2.66449,1.19293-2.66449,2.66449s1.19293,2.66449,2.66449,2.66449h125.60497c1.47076,.05634,2.70874-1.09027,2.76508-2.56097,.0564-1.47076-1.09021-2.70874-2.56097-2.76514-.039-.00146-.07806-.00214-.11713-.00189h-125.69196v-.00098h.00002Z"/><path id="q-793" fill="#e6e6e6" d="M217.90797,149.04898c-1.47156,0-2.66449,1.19293-2.66449,2.66449s1.19293,2.66449,2.66449,2.66449h125.60497c1.47076,.05634,2.70874-1.09021,2.76508-2.56097,.0564-1.47076-1.09021-2.70874-2.56097-2.76514-.039-.00146-.07806-.00214-.11713-.00189h-125.69196v-.00098h.00002Z"/><circle id="r" cx="180.987" cy="143.72" r="15.986" fill="#e6e6e6"/><path id="s-794" fill="#e6e6e6" d="M634.44806,333.95099l-28.20001-1.939-8.43799,13.29999-20.32098,8.26199v65.539c2.11432,6.34552,3.20721,12.98657,3.23798,19.67499-.078,13.05701-3.43298,28.43799-2.27197,31.80698,11.35999,32.94299,73.83698,0,73.83698,0l-1.13599-35.215,1.54199-79.58401-12.76703-10.18301-5.48297-11.66193Z"/><path id="t-795" fill="#e6e6e6" d="M582.09094,351.82996l-.33197,.056c-6.27917,1.06305-11.62976,5.1553-14.29999,10.93701-3.43402,7.427-8.22595,115.07101-8.22595,115.07101,0,0,12.80902-.97198,19.18402,2.07501,0,0,2.87799-15.853,1.15399-18.61002s1.505-30.328,1.505-30.328c7.00891-18.32602,4.24286-48.487,1.01489-79.20102Z"/><path fill="#ffb6b6" d="M672.01117,493.69528c-.0238,6.66785-3.48285,12.06088-7.72601,12.04575s-7.66364-5.43274-7.63983-12.10059c.01044-2.91873,.6792-5.59314,1.78369-7.67667l.45526-28.25229,13.25348,.496-1.85553,27.79861c1.0896,2.09137,1.73932,4.77045,1.72888,7.68918h.00006Z"/><path id="u-796" fill="#e6e6e6" d="M646.83807,353.776l.33502,.039c6.32281,.746,11.87091,4.56226,14.82898,10.20001,3.79999,7.24399,13.71289,99.46399,13.39594,101.147s.62299,13.36902,.62299,13.36902c0,0-12.84198-.32397-19.05499,3.03998l-5.12592-48.74301-5.00201-79.052Z"/><g><path fill="#3f3d56" d="M77.6101,181.99539c-1.64951,0-2.99089,1.34137-2.99089,2.99089v23.92709c0,1.64951,1.34137,2.99089,2.99089,2.99089s2.99089-1.34137,2.99089-2.99089v-23.92709c0-1.64951-1.34137-2.99089-2.99089-2.99089Z"/><path fill="#3f3d56" d="M77.6101,253.77666c-1.64951,0-2.99089,1.34137-2.99089,2.99089v46.35873c0,1.64951,1.34137,2.99088,2.99089,2.99088s2.99089-1.34137,2.99089-2.99088v-46.35873c0-1.64951-1.34137-2.99089-2.99089-2.99089Z"/><path fill="#3f3d56" d="M77.6101,319.57614c-1.64951,0-2.99089,1.34137-2.99089,2.99088v46.35873c0,1.64951,1.34137,2.99088,2.99089,2.99088s2.99089-1.34137,2.99089-2.99088v-46.35873c0-1.64951-1.34137-2.99088-2.99089-2.99088Z"/></g><circle cx="282.09" cy="266.799" r="10" fill="#e6e6e6"/><path fill="#0bef62" d="M326.23044,265.16855c-.40002-.69-1.12-1.10999-1.92004-1.10999-.79999,0-1.51996,.41998-1.91998,1.10999l-4.29999,9.63c-1.70535-11.21536-8.03928-20.92841-15.97998-30.12-.59003-1.01001-1.63-1.61005-2.80005-1.61005-1.16998,0-2.20996,.60004-2.79999,1.61005-3.75565,16.81213-14.04922,33.03299-27.63742,48.9559-1.18375,2.95111,.98926,6.16409,4.16895,6.16409h64.2388c4.06079,0,6.93851-3.9639,5.68085-7.82501-2.37128-10.86325-7.32584-20.17264-16.73114-26.80499Z"/><path fill="#e6e6e6" d="M306.6904,218.79854c-31.42999,0-57,25.57001-57,56.99998,0,12.73999,4.20001,24.51996,11.30005,34.01996,10.39996,13.94,27.00995,22.98004,45.69995,22.98004,19.21002,0,36.23004-9.54999,46.56-24.15002,6.57001-9.28998,10.44-20.63,10.44-32.84998,0-31.42999-25.56995-57-57-57v.00002Zm45.45001,87.92998c-9.90997,14.52002-26.58997,24.07001-45.45001,24.07001-18.34998,0-34.62-9.03003-44.60999-22.87-6.53998-9.04004-10.39001-20.15002-10.39001-32.13,0-30.33002,24.67004-55,55-55,30.32001,0,55,24.66998,55,55,0,11.45996-3.51996,22.10999-9.54999,30.92999Z"/><g><path fill="#ffb6b6" d="M249.49721,294.88617h0c2.6105-3.8829,6.72978-5.68393,9.20073-4.02271s2.35782,6.15558-.25266,10.03848c-1.1427,1.69968-2.57455,3.00034-4.03065,3.78641l-11.26781,16.31421-7.54321-5.45071,11.90848-15.50409c.17841-1.64508,.8425-3.46194,1.98518-5.16162h0l-.00006,.00003Z"/><path fill="#0bef62" d="M247.20001,316.67999l-30.84003,35.41998-2.83997,3.26001-13.21002-4.77997-20.38-7.39001h-.01001l-15.23999-5.52002c.16003-1.34998,.38-2.69,.66998-4.01996,.31-1.46002,.69-2.91003,1.15002-4.34003,1.38-4.32001,3.40997-8.42999,6.03003-12.16998,.97998,.39996,1.95996,.88,2.94995,1.42999l22.72003,9.83997,12.64001,5.47003,5.16998-5.03998,22.27002-21.72003,2.07996,2.22998,.01001,.01001,6.21002,6.66003,.01001,.01001,.60999,.64996Z"/></g><path fill="#0bef62" d="M223.96997,392.40997l-51.63995-2.22998c.76996-1.58997-.40002-3.23999-.01001-4.63,.34998-1.20996,2.31-2.17999,2.37-3.31,.35999-6.12-.57001-16.08002-7.59003-26.77002-1.44995-2.21997-2.15997-5.12-2.48999-8.34998-.32996-3.17999-.29999-6.33997,.07001-9.45001,.16003-1.34998,.38-2.69,.66998-4.01996,.31-1.46002,.69-2.91003,1.15002-4.34003,1.38-4.32001,3.40997-8.42999,6.03003-12.16998,.16998-.26001,.34998-.51001,.52997-.76001,.97003-1.34003,2.01001-2.63,3.13-3.87,1.28998-1.42999,2.67999-2.79004,4.15002-4.07001l2.22998-1.92999,20.73999-2.82001,10.84998,21.48999,1.85004,3.66003,2,3.95996c-1.15002,5.39001-1.66003,10.17999-1.73999,14.54999-.03003,1.64001,0,3.22003,.08997,4.75,.13,2.39001,.37,4.66003,.71002,6.84003,.82001,5.34998,2.13,10.21002,3.35999,15.13,.65002,2.57001,1.27002,5.14996,1.78003,7.83002,.23999,1.25995,2.76996,3.73999,3.13,4.88,.48999,1.52997-2.11005,4.33997-1.37006,5.62994Z"/><g><path fill="#ffb6b6" d="M262.96259,349.30612h0c4.32156-1.79321,8.74994-1.01755,9.89108,1.73254s-1.43707,6.43314-5.75864,8.22638c-1.89172,.78494-3.80386,1.07758-5.45181,.92792l-18.40704,7.36871-3.27399-8.71155,18.49323-6.33945c1.05789-1.2724,2.61548-2.41953,4.50714-3.2045h0l.00003-.00006Z"/><path fill="#0bef62" d="M166.5,329.31c-.46001,1.42999-.84,2.88-1.14999,4.34l34.2,46.17001,20.88-5.75,28.58-7.87-.14999-.89001-1.5-9-.5-3.01001-29.79001,5.64001-7.87,1.48999-13.31-20.47h-.00999l-7.69-11.82999c-3.64-7.04999-9.17-11.10999-15.13-11.75l-6.56,12.92999h-.00002Z"/></g><circle cx="359.881" cy="471.055" r="6.04" fill="#e6e6e6"/><circle id="v" cx="621.33" cy="305.945" r="21.995" fill="#ffb6b6"/><path id="w-797" fill="#2f2e41" d="M636.63552,324.77175c3.05902-2.39401,3.35602-6.957,5.966-9.83398,4.36401-4.80899,6.41498-9.98401,4.12903-15.68201-2.02197-5.04001-1.59198-11.23599-5.948-14.48001,2.13898-.77399-5.26202,.00101-2.979-3.03s-2.039-1.83401-1.75299-3.07501-3.60425-3.5141-6.13196-1.03867c-.38007,.37222-.71228,.79031-.98901,1.24466-2.573-3.85501-9.6084-5.36111-13.5484-2.9151-3.86603,2.39999-1.40375,5.8013-5.56079,5.08731-1.95398-.336-6.17151-.60751-7.50653,.85849-1.25415,1.58356,2.70367,4.81339,.69269,4.62231-1.94897-.36801-6.94,6.026-6.94,6.026l-1.85101-2.26999c-2.94098,1.91699-1.97498,6.918,.98499,8.79999,1.11303,.70768,3.68705,2.47267,4.98066,2.63335,1.0473,.13008,1.91803-4.88784,3-5,1.13566-.11773,1.14701,3.28079,2.23632,3.01366,4.10449-1.00558,8.34216-1.35559,12.55603-1.03696,6.43701,.909,10.91998,8.60001,8.53601,14.65201,2.47302-2.42801,7.04797-.41299,8.32898,2.80701s-2.23224,4.46851-3.18219,7.80151"/></svg>