<svg xmlns="http://www.w3.org/2000/svg" xmlns:xlink="http://www.w3.org/1999/xlink" width="1139.171" height="654.543" data-name="Layer 1" viewBox="0 0 1139.171 654.543"><title>progressive_app</title><circle cx="246.827" cy="521.765" r="59.243" fill="#f2f2f2"/><circle cx="256.46" cy="513.095" r="59.243" fill="#0bef62"/><rect width="733" height="2" x="304.171" y="447.543" fill="#3f3d56"/><path fill="#3f3d56" d="M714.20735,141.38055H454.03775v-5.36232h-117.971v5.36232H74.82467a17.5985,17.5985,0,0,0-17.59852,17.59851V515.23125a17.59856,17.59856,0,0,0,17.59852,17.59858H714.20735a17.59856,17.59856,0,0,0,17.59852-17.59858V158.97906A17.5985,17.5985,0,0,0,714.20735,141.38055Z" transform="translate(-30.41456 -122.72838)"/><rect width="627.391" height="353.913" x="50.406" y="49.754" fill="#0bef62"/><circle cx="363.565" cy="33.667" r="6.435" fill="#0bef62"/><polygon points="498.374 403.667 50.406 403.667 50.406 49.754 498.374 403.667" opacity=".1"/><circle cx="148.574" cy="316.876" r="60.307" fill="#f2f2f2"/><rect width="58.605" height="12.246" x="509.953" y="240.622" fill="#3f3d56"/><rect width="200.307" height="5.248" x="439.102" y="145.279" fill="#3f3d56"/><rect width="200.307" height="5.248" x="439.102" y="161.898" fill="#3f3d56"/><rect width="200.307" height="5.248" x="439.102" y="178.518" fill="#3f3d56"/><rect width="200.307" height="5.248" x="439.102" y="195.137" fill="#3f3d56"/><rect width="200.307" height="5.248" x="439.102" y="211.756" fill="#3f3d56"/><rect width="24.492" height="24.492" x="614.917" y="56.934" fill="#f2f2f2"/><path fill="#3f3d56" d="M681.1947,215.52507h-29.74v-29.74h29.74Zm-28.44691-1.293h27.15387V187.07816H652.74779Z" transform="translate(-30.41456 -122.72838)"/><path fill="#3f3d56" d="M749.42165,519.96024H688.19234v-4.41153a.87468.87468,0,0,0-.87471-.87471h-20.9929a.87468.87468,0,0,0-.87471.87471v4.41153H652.32945v-4.41153a.87467.87467,0,0,0-.8747-.87471H630.46184a.87468.87468,0,0,0-.8747.87471v4.41153H616.46657v-4.41153a.87468.87468,0,0,0-.8747-.87471H594.599a.87468.87468,0,0,0-.87471.87471v4.41153H580.60369v-4.41153a.87468.87468,0,0,0-.87471-.87471H558.73607a.87468.87468,0,0,0-.8747.87471v4.41153H544.7408v-4.41153a.87468.87468,0,0,0-.8747-.87471H522.87319a.87467.87467,0,0,0-.8747.87471v4.41153H508.87792v-4.41153a.87468.87468,0,0,0-.87471-.87471h-20.9929a.87468.87468,0,0,0-.87471.87471v4.41153H473.015v-4.41153a.87468.87468,0,0,0-.8747-.87471H307.69588a.87468.87468,0,0,0-.8747.87471v4.41153H293.70061v-4.41153a.87468.87468,0,0,0-.8747-.87471H271.833a.87467.87467,0,0,0-.8747.87471v4.41153H257.83773v-4.41153a.87468.87468,0,0,0-.87471-.87471h-20.9929a.87468.87468,0,0,0-.87471.87471v4.41153H221.97484v-4.41153a.87467.87467,0,0,0-.8747-.87471H200.10723a.87468.87468,0,0,0-.8747.87471v4.41153H186.112v-4.41153a.87468.87468,0,0,0-.8747-.87471H164.24435a.87468.87468,0,0,0-.87471.87471v4.41153H150.24908v-4.41153a.87468.87468,0,0,0-.87471-.87471H128.38146a.87468.87468,0,0,0-.8747.87471v4.41153H114.38619v-4.41153a.87468.87468,0,0,0-.8747-.87471H92.51858a.87467.87467,0,0,0-.8747.87471v4.41153H51.40747a20.99293,20.99293,0,0,0-20.99291,20.99291v9.4925A20.99291,20.99291,0,0,0,51.40747,571.4385H749.42165a20.9929,20.9929,0,0,0,20.99291-20.99285v-9.4925A20.99292,20.99292,0,0,0,749.42165,519.96024Z" transform="translate(-30.41456 -122.72838)"/><path fill="#3f3d56" d="M193.58593,477.27162a76,76,0,1,1,76-76A76.08614,76.08614,0,0,1,193.58593,477.27162Zm0-150a74,74,0,1,0,74,74A74.08385,74.08385,0,0,0,193.58593,327.27162Z" transform="translate(-30.41456 -122.72838)"/><rect width="255" height="2" x="586.171" y="32.543" fill="#3f3d56"/><rect width="733" height="2" x="406.171" y="560.543" fill="#3f3d56"/><rect width="255" height="2" x="192.672" y="652.543" fill="#3f3d56"/><rect width="28" height="28" x="471" y="550" fill="#0bef62"/><path fill="#3f3d56" d="M546.41456,684.72838h-34v-34h34Zm-32.52174-1.47826H544.9363V652.20664H513.89282Z" transform="translate(-30.41456 -122.72838)"/><rect width="28" height="28" x="796" y="22" fill="#0bef62"/><path fill="#3f3d56" d="M871.41456,156.72838h-34v-34h34Zm-32.52174-1.47826H869.9363V124.20664H838.89282Z" transform="translate(-30.41456 -122.72838)"/><rect width="28" height="28" x="1078" y="550" fill="#0bef62"/><path fill="#3f3d56" d="M1153.41456,684.72838h-34v-34h34Zm-32.52174-1.47826h31.04348V652.20664h-31.04348Z" transform="translate(-30.41456 -122.72838)"/><path fill="#3f3d56" d="M1087.58593,354.6866h-2.37862V289.525a37.71374,37.71374,0,0,0-37.71385-37.71377H909.44A37.71373,37.71373,0,0,0,871.72613,289.525V647.00639A37.71374,37.71374,0,0,0,909.44,684.72017h138.05348a37.71374,37.71374,0,0,0,37.71385-37.71378V401.06969h2.37862Z" transform="translate(-30.41456 -122.72838)"/><path fill="#0bef62" d="M1077.176,291.74159v356.96a28.16523,28.16523,0,0,1-28.16016,28.17H910.296a28.16511,28.16511,0,0,1-28.16-28.17v-356.96a28.163,28.163,0,0,1,28.16-28.16h16.83a13.3792,13.3792,0,0,0,12.39,18.43h79.09a13.37908,13.37908,0,0,0,12.38995-18.43h18.02A28.16308,28.16308,0,0,1,1077.176,291.74159Z" transform="translate(-30.41456 -122.72838)"/><rect width="41.324" height="12.246" x="928.58" y="376.218" fill="#3f3d56"/><rect width="141.24" height="5.248" x="878.621" y="280.875" fill="#3f3d56"/><rect width="141.24" height="5.248" x="878.621" y="297.494" fill="#3f3d56"/><rect width="141.24" height="5.248" x="878.621" y="314.114" fill="#3f3d56"/><rect width="141.24" height="5.248" x="878.621" y="330.733" fill="#3f3d56"/><rect width="141.24" height="5.248" x="878.621" y="347.352" fill="#3f3d56"/><rect width="24.492" height="24.492" x="929.684" y="211.179" fill="#f2f2f2"/><path fill="#3f3d56" d="M969.47386,340.03163v29.74h29.74v-29.74Zm28.45,28.45h-27.16v-27.16h27.16Z" transform="translate(-30.41456 -122.72838)"/><path d="M1077.176,610.58162v38.12a28.16523,28.16523,0,0,1-28.16016,28.17H910.296a28.16511,28.16511,0,0,1-28.16-28.17v-192.21l116.87,92.33,2,1.58,21.74,17.17,2.03,1.61Z" opacity=".1" transform="translate(-30.41456 -122.72838)"/><circle cx="937.241" cy="498.707" r="43.868" fill="#f2f2f2"/><path fill="#3f3d56" d="M350.58593,777.27162a87,87,0,1,1,87-87A87.09858,87.09858,0,0,1,350.58593,777.27162Zm0-172a85,85,0,1,0,85,85A85.09629,85.09629,0,0,0,350.58593,605.27162Z" transform="translate(-30.41456 -122.72838)"/><path fill="#3f3d56" d="M980.58593,655.27162a55,55,0,1,1,55-55A55.06223,55.06223,0,0,1,980.58593,655.27162Zm0-108a53,53,0,1,0,53,53A53.05963,53.05963,0,0,0,980.58593,547.27162Z" transform="translate(-30.41456 -122.72838)"/></svg>