<svg xmlns="http://www.w3.org/2000/svg" xmlns:xlink="http://www.w3.org/1999/xlink" width="936.268" height="604" data-name="Layer 1" viewBox="0 0 936.268 604"><path fill="#ccc" d="M572.86616,243h-88a5,5,0,0,1,0-10h88a5,5,0,0,1,0,10Z" transform="translate(-131.86616 -148)"/><path fill="#ccc" d="M640.86616,278h-156a5,5,0,0,1,0-10h156a5,5,0,0,1,0,10Z" transform="translate(-131.86616 -148)"/><path fill="#ccc" d="M601.86616,313h-117a5,5,0,0,1,0-10h117a5,5,0,0,1,0,10Z" transform="translate(-131.86616 -148)"/><path fill="#ccc" d="M640.86616,348h-156a5,5,0,0,1,0-10h156a5,5,0,0,1,0,10Z" transform="translate(-131.86616 -148)"/><circle cx="149.304" cy="140.545" r="89.47" fill="#30ad29"/><path fill="#3f3d56" d="M286.17,204.12441h-10v-10h10Zm-8-2h6v-6h-6Z" transform="translate(-131.86616 -148)"/><rect width="53" height="2" x="152.539" y="50.124" fill="#3f3d56"/><circle cx="205.539" cy="51.124" r="2.083" fill="#3f3d56"/><rect width="52" height="2" x="93.539" y="50.124" fill="#3f3d56"/><circle cx="93.539" cy="51.124" r="2.083" fill="#3f3d56"/><path fill="#3f3d56" d="M375.4054,293.31h-10v-10h10Zm-8-2h6v-6h-6Z" transform="translate(-131.86616 -148)"/><rect width="2" height="52" x="237.539" y="144.545" fill="#3f3d56"/><circle cx="238.539" cy="196.545" r="2.083" fill="#3f3d56"/><rect width="2" height="52" x="237.539" y="84.545" fill="#3f3d56"/><circle cx="238.539" cy="84.545" r="2.083" fill="#3f3d56"/><path fill="#3f3d56" d="M196.4054,293.31h-10v-10h10Zm-8-2h6v-6h-6Z" transform="translate(-131.86616 -148)"/><rect width="2" height="52" x="58.539" y="144.545" fill="#3f3d56"/><circle cx="59.539" cy="196.545" r="2.083" fill="#3f3d56"/><rect width="2" height="54" x="58.539" y="82.545" fill="#3f3d56"/><circle cx="59.539" cy="84.545" r="2.083" fill="#3f3d56"/><path fill="#3f3d56" d="M286.17,383.1244h-10v-10h10Zm-8-2h6v-6h-6Z" transform="translate(-131.86616 -148)"/><rect width="53" height="2" x="153.539" y="229.124" fill="#3f3d56"/><circle cx="205.539" cy="230.124" r="2.083" fill="#3f3d56"/><rect width="52" height="2" x="93.539" y="229.124" fill="#3f3d56"/><circle cx="93.539" cy="230.124" r="2.083" fill="#3f3d56"/><path fill="#3f3d56" d="M693.86616,453h-545a17.01909,17.01909,0,0,1-17-17V165a17.01909,17.01909,0,0,1,17-17h545a17.01917,17.01917,0,0,1,17,17V436A17.01917,17.01917,0,0,1,693.86616,453Zm-545-303a15.017,15.017,0,0,0-15,15V436a15.017,15.017,0,0,0,15,15h545a15.017,15.017,0,0,0,15-15V165a15.017,15.017,0,0,0-15-15Z" transform="translate(-131.86616 -148)"/><circle cx="330" cy="90" r="5" fill="#ccc"/><circle cx="330" cy="125" r="5" fill="#ccc"/><circle cx="330" cy="160" r="5" fill="#ccc"/><circle cx="330" cy="195" r="5" fill="#ccc"/><path fill="#ff6584" d="M569.92366,387.02766h-30.537a3.7649,3.7649,0,0,1-3.76071-3.76071V347.23126a3.7649,3.7649,0,0,1,3.76071-3.76072h30.537a3.7649,3.7649,0,0,1,3.76071,3.76072V383.267A3.7649,3.7649,0,0,1,569.92366,387.02766Z" transform="translate(-131.86616 -148)"/><path fill="#f2f2f2" d="M888.672,750.5498l-3.39014.83c1.52979.22,3.06006.43,4.58985.62h56.54q6.36035-.81,12.6499-2a197.13582,197.13582,0,0,0,70.96-28.11c13.27-8.63,25.92041-19.24,32.79-33.49,9.33008-19.35,6.07031-43.85-7.25-60.7a60.77248,60.77248,0,0,0-17.58985-15c-1.00976-.58-2.02978-1.13-3.06982-1.65a66.06033,66.06033,0,0,0-36.49023-6.68c-21.3501,2.33-41.04981,15.37-52.41993,33.59-12.56982,20.12-14.98,44.74-17.08007,68.37-3.81006-12.26-18.10987-19.75-30.65967-17.04-12.54,2.7-22.22022,14.41-23.78028,27.15-1.52978,12.46,4.12989,25.25,13.56006,33.56C888.24181,750.1798,888.45177,750.3698,888.672,750.5498Z" transform="translate(-131.86616 -148)"/><path fill="#fff" d="M932.2716,751.99981h2.83008a2.05915,2.05915,0,0,0,.62988-.85c.16016-.38.31006-.77.48047-1.15a345.30409,345.30409,0,0,1,101.08984-135.82,1.61383,1.61383,0,0,0,.66992-1.48,2.17771,2.17771,0,0,0-3.52-1.37,345.76934,345.76934,0,0,0-48.25,47.92,347.37524,347.37524,0,0,0-54.33007,90.75c-.00977.03-.02.05-.02979.08A1.55714,1.55714,0,0,0,932.2716,751.99981Z" transform="translate(-131.86616 -148)"/><path fill="#ffb8b8" d="M833.13936,530.03467a11.39823,11.39823,0,0,1,11.3855-11.38526c.11035,0,.21875.00586.32739.0127l35.20825-28.06445-25.23145-25.23145A11.12934,11.12934,0,1,1,870.56831,449.627l40.55493,40.55469L855.904,530.34082a11.38437,11.38437,0,0,1-22.76465-.30615Z" transform="translate(-131.86616 -148)"/><polygon fill="#ffb8b8" points="659.944 590.049 648.037 585.604 659.517 537.561 677.09 544.122 659.944 590.049"/><path fill="#2f2e41" d="M769.13633,728.12719h25.05836a0,0,0,0,1,0,0v15.43338a0,0,0,0,1,0,0H754.24947a0,0,0,0,1,0,0V743.014A14.88686,14.88686,0,0,1,769.13633,728.12719Z" transform="translate(174.39008 -372.30924) rotate(20.47187)"/><polygon fill="#ffb8b8" points="767.066 590.229 754.356 590.229 748.31 541.205 767.069 541.206 767.066 590.229"/><path fill="#2f2e41" d="M744.73127,586.59729h25.05836a0,0,0,0,1,0,0v15.43338a0,0,0,0,1,0,0H729.84441a0,0,0,0,1,0,0v-.54652A14.88686,14.88686,0,0,1,744.73127,586.59729Z"/><path fill="#2f2e41" d="M882.09322,719.59131a4.49341,4.49341,0,0,1-1.363-3.5083c2.26782-37.44043-17.46558-105.49512-23.56763-125.46143a3.41784,3.41784,0,0,0-2.365-2.32715,3.5465,3.5465,0,0,0-3.31592.74561c-32.96142,28.71191-42.79834,109.71582-44.43579,125.6626a4.49391,4.49391,0,0,1-5.03345,3.998L785.561,716.64453a4.50022,4.50022,0,0,1-3.84009-5.4165l43.136-199.44092.02612-.12012.07861-.09472c10.43091-12.51758,40.65308-7.64356,41.93482-7.43018l.13305.022.10376.08643c38.81031,32.18408,36.84327,181.36621,36.05494,210.94482a4.50054,4.50054,0,0,1-4.07154,4.353l-13.47314,1.28271q-.21534.02052-.42969.02051A4.48767,4.48767,0,0,1,882.09322,719.59131Z" transform="translate(-131.86616 -148)"/><circle cx="727.419" cy="251.287" r="24.561" fill="#ffb8b8"/><path fill="#30ad29" d="M883.40151,445.54289s-22.80763-26.95447-41.46843-5.18355v0a74.11256,74.11256,0,0,0-17.80945,50.43223l.70374,23.69256,43.02349-6.73862Z" transform="translate(-131.86616 -148)"/><path fill="#2f2e41" d="M855.30381,403.536,844.7515,391.10437c-2.71945-3.20377-5.56392-6.69336-5.94852-10.87806-.4216-4.58723,2.36858-9.04613,6.18309-11.62875s8.49855-3.55453,13.09129-3.91115c8.5182-.66142,17.4817.74628,24.48419,5.64142s11.5838,13.73263,9.87639,22.10413c-1.3444,6.59167-6.29828,12.90609-4.37281,19.352,2.1068,7.053,10.74665,9.21692,17.80071,11.32015,11.8404,3.5303,23.1464,10.48021,29.35159,21.16448s6.17809,25.4167-2.09358,34.59479c-5.35613,5.94307-13.43444,8.94842-21.42216,9.40066s-15.93817-1.42893-23.51357-4.00215c-6.97658-2.36983-13.87792-5.41792-19.37047-10.32921s-9.44929-11.93945-9.278-19.30556c.16321-7.01989,3.92356-13.41447,5.46828-20.26424a33.25514,33.25514,0,0,0-10.39525-31.73" transform="translate(-131.86616 -148)"/><path fill="#30ad29" d="M829.22366,625.3348h-30.537a3.76489,3.76489,0,0,1-3.76071-3.76071V585.5384a3.7649,3.7649,0,0,1,3.76071-3.76072h30.537a3.7649,3.7649,0,0,1,3.76071,3.76072v36.03569A3.76489,3.76489,0,0,1,829.22366,625.3348Z" transform="translate(-131.86616 -148)"/><path fill="#ffb8b8" d="M820.17329,594.5127a11.11651,11.11651,0,0,1,2.20386-14.50586l16.71436-131.69336a11.68181,11.68181,0,0,1,11.56543-10.19239l.15576.001A11.65978,11.65978,0,0,1,862.13325,451.855l-23.501,130.06152.00464.00635a11.16929,11.16929,0,0,1-4.38941,16.77686,10.879,10.879,0,0,1-4.5271.97363A11.32315,11.32315,0,0,1,820.17329,594.5127Z" transform="translate(-131.86616 -148)"/><path fill="#3f3d56" d="M986.28742,752h-257a1,1,0,0,1,0-2h257a1,1,0,1,1,0,2Z" transform="translate(-131.86616 -148)"/></svg>