<svg xmlns="http://www.w3.org/2000/svg" xmlns:xlink="http://www.w3.org/1999/xlink" width="974" height="729.151" data-name="Layer 1" viewBox="0 0 974 729.151"><path fill="#e6e6e6" d="M892.5203,258.37159h-3.99877V148.82627a63.40186,63.40186,0,0,0-63.4018-63.40193H593.033a63.40186,63.40186,0,0,0-63.402,63.4017v600.9744a63.40188,63.40188,0,0,0,63.4018,63.40191H825.11943a63.40185,63.40185,0,0,0,63.402-63.40167V336.34783h3.99878Z" transform="translate(-113 -85.42434)"/><path fill="#fff" d="M875.02671,149.26864v600.09a47.35072,47.35072,0,0,1-47.35,47.35h-233.2a47.35085,47.35085,0,0,1-47.35-47.35v-600.09a47.35089,47.35089,0,0,1,47.35-47.35h28.29a22.50661,22.50661,0,0,0,20.83,30.99h132.96a22.50674,22.50674,0,0,0,20.83-30.99h30.29A47.35087,47.35087,0,0,1,875.02671,149.26864Z" transform="translate(-113 -85.42434)"/><path fill="#0bef62" d="M261.41962,683.78611a7.51529,7.51529,0,0,1-4.93371-1.84277l-11.12073-9.70069a7.51847,7.51847,0,0,1-.72949-10.584l80.86157-92.71143a5.95651,5.95651,0,0,1,.51489-.53613A7.495,7.495,0,0,1,336.0738,568.23l11.12878,9.69873a7.49627,7.49627,0,0,1,2.55017,5.14209l.00025.00244a7.48954,7.48954,0,0,1-1.83228,5.44092l-80.85,92.71a7.49872,7.49872,0,0,1-5.65113,2.562Z" transform="translate(-113 -85.42434)"/><path fill="#0bef62" d="M409.9737,587.33543a7.77161,7.77161,0,0,1-2.29773-.352,7.47762,7.47762,0,0,1-4.386-3.708l-6.76087-13.12061a7.47122,7.47122,0,0,1,1.7063-9.05615,7.10541,7.10541,0,0,1,1.51807-1.04687L509.0948,503.68113a7.5161,7.5161,0,0,1,10.103,3.22461l6.7605,13.12109a7.51683,7.51683,0,0,1-3.22656,10.10352L413.39326,586.5A7.44227,7.44227,0,0,1,409.9737,587.33543Z" transform="translate(-113 -85.42434)"/><path fill="#2f2e41" d="M408.004,590.5156a7.58375,7.58375,0,0,1-6.72718-4.146l-6.61975-13.18994a7.46786,7.46786,0,0,1-.57825-5.15479c.02942-.13281.073-.27783.11573-.418l.03955-.13183c.11706-.34424.23242-.83545.366-1.40479l.07752-.33008c.48914-2.12158,1.09875-4.76513,2.322-5.86621a2.18531,2.18531,0,0,1,.51135-.356L445.51484,530.418a7.51394,7.51394,0,0,1,5.79626-.457,7.53724,7.53724,0,0,1,4.33985,3.751l12.12231,24.98438a7.50864,7.50864,0,0,1-3.34717,10.05713l-53.15844,20.98779A7.19924,7.19924,0,0,1,408.004,590.5156Z" transform="translate(-113 -85.42434)"/><circle cx="259.056" cy="382.329" r="53.519" fill="#0bef62"/><path fill="#0bef62" d="M358.62409,814.09568H343.86384a7.50836,7.50836,0,0,1-7.5-7.5V681.58543a7.50835,7.50835,0,0,1,7.5-7.5h14.76025a7.31327,7.31327,0,0,1,2.71448.51562,7.44255,7.44255,0,0,1,4.76367,6.63672,1.96788,1.96788,0,0,1,.02185.34766V806.59568A7.50836,7.50836,0,0,1,358.62409,814.09568Z" transform="translate(-113 -85.42434)"/><path fill="#0bef62" d="M440.89362,737.45567a4.09594,4.09594,0,0,0-.22949-.34,6.95791,6.95791,0,0,0-.76025-1.35l-25.16016-35.2-20.73-28.99H358.65388l2.5,3.49,4.45019,6.23,13.78955,19.28,29.5503,41.33-27.39014,55.02c-1.12012,2.24.79,5.46,4.24023,7.18l13.21,6.58a9.71156,9.71156,0,0,0,4.23,1.06c1.85986,0,3.40966-.69,4.06-2l34.04981-68.4A3.96261,3.96261,0,0,0,440.89362,737.45567Z" transform="translate(-113 -85.42434)"/><path fill="#2f2e41" d="M320.555,623.186a7.51589,7.51589,0,0,1-5.23193-2.15381l-20.02674-19.20654a7.42678,7.42678,0,0,1-2.15771-4.28125,6.47368,6.47368,0,0,1-.08484-1.01855,6.81482,6.81482,0,0,1,.08728-1.15479,7.3824,7.3824,0,0,1,2.07752-4.16748l42.58825-36.81641c1.154-1.18994,4.08106-.94287,6.66321-.72558l.38977.03223a14.03263,14.03263,0,0,0,1.43237.082c.17664.01855.38184.00927.5708.019a7.5469,7.5469,0,0,1,4.7616,2.144l10.51013,10.36084a7.50884,7.50884,0,0,1,.07544,10.60694l-36.23034,43.98681A7.47879,7.47879,0,0,1,320.555,623.186Z" transform="translate(-113 -85.42434)"/><path fill="#2f2e41" d="M369.93157,489.58944l-.05567-2c3.72071-.10352,7.001-.33692,9.46582-2.1377a6.148,6.148,0,0,0,2.38135-4.52832,3.51434,3.51434,0,0,0-1.15283-2.89453c-1.63623-1.38184-4.269-.93457-6.188-.05469l-1.65478.75879,3.17334-23.19043,1.98144.27149L375.183,475.54061c2.60742-.7666,5.02344-.43653,6.67822.96094a5.471,5.471,0,0,1,1.86036,4.49218,8.13267,8.13267,0,0,1-3.2002,6.07324C377.35442,489.38143,373.2387,489.49666,369.93157,489.58944Z" transform="translate(-113 -85.42434)"/><rect width="10.771" height="2" x="274.682" y="372.091" fill="#2f2e41"/><rect width="10.771" height="2" x="240.682" y="372.091" fill="#2f2e41"/><path fill="#2f2e41" d="M420.63386,701.07566h-95c-3.6449,0-6.5-5.854-6.5-13.32764V594.07566a54.03129,54.03129,0,0,1,37.72143-51.49756,9.37271,9.37271,0,0,1-.22143-2.00244,9.51081,9.51081,0,0,1,9.5-9.5h14a9.51081,9.51081,0,0,1,9.5,9.5,9.37226,9.37226,0,0,1-.22205,2.00635,53.64212,53.64212,0,0,1,14.81018,7.335c.93152.65088,1.85,1.34473,2.72791,2.06152a53.8652,53.8652,0,0,1,17.0249,23.8794c.55151,1.52392,1.04065,3.10351,1.45313,4.69238l.00024.001a54.36215,54.36215,0,0,1,1.70569,13.52441V687.748c0,7.28711-2.75647,13.09815-6.29077,13.30225A.74093.74093,0,0,1,420.63386,701.07566Z" transform="translate(-113 -85.42434)"/><path fill="#2f2e41" d="M367.63386,735.07566h-38a6.50744,6.50744,0,0,1-6.5-6.5v-30a6.50745,6.50745,0,0,1,6.5-6.5h38a6.50745,6.50745,0,0,1,6.5,6.5v30A6.50745,6.50745,0,0,1,367.63386,735.07566Z" transform="translate(-113 -85.42434)"/><path fill="#2f2e41" d="M391.05488,735.75437a6.51165,6.51165,0,0,1-6.1001-4.23633l-10.44873-28.12158a6.50839,6.50839,0,0,1,3.82922-8.35742L413.956,681.80418a6.50874,6.50874,0,0,1,8.35694,3.8291l10.44873,28.12158a6.5084,6.5084,0,0,1-3.82923,8.35742l-35.62073,13.23487A6.46763,6.46763,0,0,1,391.05488,735.75437Z" transform="translate(-113 -85.42434)"/><path fill="#2f2e41" d="M346.89435,442.44027c9.91839-5.73223,21.94644-1.3346,32.19176,1.06974,10.94683,2.569,22.51918,3.12532,32.83714-2.06537,8.58721-4.32,15.406-12.83719,16.22356-22.59612.76422-9.12233-4.37434-18.84218-13.06376-22.26423-8.85308-3.4865-20.12256,1.07524-23.3512,10.1596l2.74163-.35832c-10.61071-13.93-23.69-28.30433-41.94082-31.01671-8.18843-1.21694-16.92771-.11031-23.92438,4.56555-6.558,4.38272-10.782,11.15072-13.27239,18.52025-2.88951,8.55074-3.64548,17.70636-4.16835,26.66117-.11261,1.92863,2.88777,1.92212,3,0,.8211-14.06251,2.15348-31.02359,13.65087-40.84843,5.968-5.09982,13.9374-6.87543,21.63176-6.2593,8.17324.65448,15.75114,4.04232,22.321,8.8355,7.87309,5.744,14.24265,13.35086,20.11189,21.05612a1.52455,1.52455,0,0,0,2.74163-.35832c2.59161-7.29194,11.68642-10.69306,18.76372-8.38828,8.00378,2.60649,12.42963,11.68309,11.7584,19.6954-.76869,9.17565-7.79108,16.89287-15.91012,20.56589-9.78113,4.42494-20.49777,3.34368-30.61981.90075-10.75128-2.5948-22.89452-6.44245-33.23669-.4653a1.50112,1.50112,0,0,0,1.51416,2.59041Z" transform="translate(-113 -85.42434)"/><path fill="#f2f2f2" d="M606.90746,157.57548a32,32,0,0,0-.00024,64h.00024a32,32,0,0,0,0-64Z" transform="translate(-113 -85.42434)"/><path fill="#f2f2f2" d="M839.246,216.57566h-168a8,8,0,1,1,0-16h168a8,8,0,1,1,0,16Z" transform="translate(-113 -85.42434)"/><path fill="#f2f2f2" d="M724.246,182.57566h-53a8,8,0,1,1,0-16h53a8,8,0,0,1,0,16Z" transform="translate(-113 -85.42434)"/><path fill="#f2f2f2" d="M606.90746,291.57548a32,32,0,0,0-.00024,64h.00024a32,32,0,0,0,0-64Z" transform="translate(-113 -85.42434)"/><path fill="#f2f2f2" d="M839.246,350.57566h-168a8,8,0,1,1,0-16h168a8,8,0,0,1,0,16Z" transform="translate(-113 -85.42434)"/><path fill="#f2f2f2" d="M724.246,316.57566h-53a8,8,0,1,1,0-16h53a8,8,0,0,1,0,16Z" transform="translate(-113 -85.42434)"/><path fill="#f2f2f2" d="M606.90746,559.57548a32,32,0,0,0-.00024,64h.00024a32,32,0,0,0,0-64Z" transform="translate(-113 -85.42434)"/><path fill="#f2f2f2" d="M839.246,618.57566h-168a8,8,0,1,1,0-16h168a8,8,0,0,1,0,16Z" transform="translate(-113 -85.42434)"/><path fill="#f2f2f2" d="M724.246,584.57566h-53a8,8,0,1,1,0-16h53a8,8,0,0,1,0,16Z" transform="translate(-113 -85.42434)"/><path fill="#f2f2f2" d="M606.90746,693.57548a32,32,0,0,0-.00024,64h.00024a32,32,0,0,0,0-64Z" transform="translate(-113 -85.42434)"/><path fill="#f2f2f2" d="M839.246,752.57566h-168a8,8,0,1,1,0-16h168a8,8,0,0,1,0,16Z" transform="translate(-113 -85.42434)"/><path fill="#f2f2f2" d="M724.246,718.57566h-53a8,8,0,1,1,0-16h53a8,8,0,0,1,0,16Z" transform="translate(-113 -85.42434)"/><path fill="#fff" d="M904.07672,534.57566h-386a16.51866,16.51866,0,0,1-16.5-16.5v-124a16.51867,16.51867,0,0,1,16.5-16.5h386a16.51868,16.51868,0,0,1,16.5,16.5v124A16.51867,16.51867,0,0,1,904.07672,534.57566Z" transform="translate(-113 -85.42434)"/><path fill="#0bef62" d="M606.90746,424.07566a32,32,0,0,0-.00024,64h.00024a32,32,0,0,0,0-64Z" transform="translate(-113 -85.42434)"/><path fill="#ccc" d="M839.246,483.07585h-168a8,8,0,1,1,0-16h168a8,8,0,0,1,0,16Z" transform="translate(-113 -85.42434)"/><path fill="#ccc" d="M724.246,449.07585h-53a8,8,0,1,1,0-16h53a8,8,0,0,1,0,16Z" transform="translate(-113 -85.42434)"/><path fill="#3f3d56" d="M904.07672,534.57566h-386a16.51866,16.51866,0,0,1-16.5-16.5v-124a16.51867,16.51867,0,0,1,16.5-16.5h386a16.51868,16.51868,0,0,1,16.5,16.5v124A16.51867,16.51867,0,0,1,904.07672,534.57566Zm-386-156a15.51753,15.51753,0,0,0-15.5,15.5v124a15.51752,15.51752,0,0,0,15.5,15.5h386a15.51752,15.51752,0,0,0,15.5-15.5v-124a15.51753,15.51753,0,0,0-15.5-15.5Z" transform="translate(-113 -85.42434)"/><path id="a4f85a93-5584-48fc-9a4d-d7e2ab78dfd5-699" fill="#fff" d="M603.87114,469.36547a3.88355,3.88355,0,0,1-2.33638-.77648l-.04179-.03134-8.8-6.73174a3.91067,3.91067,0,0,1,4.75866-6.20713l5.7,4.371,13.46928-17.57217a3.909,3.909,0,0,1,5.48062-.72392l.00114.00085-.08359.11607.08585-.11607a3.91374,3.91374,0,0,1,.72307,5.48173L606.9851,467.83575a3.91138,3.91138,0,0,1-3.11052,1.52508Z" data-name="Path 395" transform="translate(-113 -85.42434)"/><path fill="#ccc" d="M1086,814.57566H114a1,1,0,0,1,0-2h972a1,1,0,0,1,0,2Z" transform="translate(-113 -85.42434)"/></svg>