<svg xmlns="http://www.w3.org/2000/svg" xmlns:xlink="http://www.w3.org/1999/xlink" width="879.125" height="631.485" data-name="Layer 1" viewBox="0 0 879.125 631.485"><rect id="b93b1ef9-49b5-4354-905b-d9dddde45a10" width="644.725" height="412.91" x=".275" y=".365" fill="#e6e6e6" data-name="Rectangle 338"/><rect id="ef7485f9-8ecd-46d9-949e-abdd8aa9e360" width="607.853" height="336.693" x="18.711" y="52.154" fill="#fff" data-name="Rectangle 339"/><rect id="b4c2a7ec-beab-40bc-b587-23a202562f78" width="644.725" height="27.39" fill="#0bef62" data-name="Rectangle 340"/><circle id="bd6d3ebf-cb6f-4fcb-b7cd-ad5a287d3324" cx="20.355" cy="14.004" r="5.077" fill="#fff" data-name="Ellipse 513"/><circle id="efb1158e-7a7d-4adb-9063-fc7dc50c76d5" cx="39.624" cy="14.004" r="5.077" fill="#fff" data-name="Ellipse 514"/><circle id="b51f9e19-f36b-4f29-afd5-008bb0fc20dd" cx="58.893" cy="14.004" r="5.077" fill="#fff" data-name="Ellipse 515"/><rect id="b636d421-4358-445b-b124-1d058e78c733" width="118.887" height="128.982" x="93.5" y="79.848" fill="#e6e6e6" data-name="Rectangle 341"/><rect id="ab9c902d-64a9-4a2b-a9ec-6dc7022c80f6" width="118.887" height="128.982" x="263.193" y="79.848" fill="#e6e6e6" data-name="Rectangle 342"/><rect id="f4a232af-026e-479b-8040-5c62e5965d9e" width="118.887" height="128.982" x="432.885" y="79.848" fill="#e6e6e6" data-name="Rectangle 343"/><rect id="ada16aa4-f84d-4851-87ee-a2852d96226a" width="118.887" height="128.982" x="93.5" y="232.176" fill="#e6e6e6" data-name="Rectangle 344"/><rect id="ebfcbe07-3b81-4d69-a4f5-6a8318d20e8d" width="118.887" height="128.982" x="263.193" y="232.176" fill="#e6e6e6" data-name="Rectangle 345"/><rect id="ead16b6d-d132-49a9-a42f-1f570e523a46" width="118.887" height="128.982" x="432.885" y="232.176" fill="#e6e6e6" data-name="Rectangle 346"/><path id="ab8ff6e3-f37e-4992-8347-ee905fdba816-1004" fill="#fff" d="M452.3655,399.58275l21.722-8.588,2.526,42.939s4.546,13.134,3.031,18.186c0,0,1.01,8.588-1.516,9.093s-9.6,1.516-10.1,1.01-.505-2.021-.505-2.021-5.052,3.536-5.557,7.577c0,0-21.217,6.567-21.722.505s10.608-11.114,10.608-11.114l8.588-13.134Z" data-name="Path 2643" transform="translate(-160.43749 -134.25774)"/><path id="e647835b-1773-4993-9de9-376235a5ef39-1005" fill="#fff" d="M498.33749,399.58275l21.719-8.588,2.526,42.939s4.546,13.134,3.031,18.186c0,0,1.01,8.588-1.516,9.093s-9.6,1.516-10.1,1.01-.505-2.021-.505-2.021-5.052,3.536-5.557,7.577c0,0-21.217,6.567-21.722.505s10.608-11.114,10.608-11.114l8.588-13.134Z" data-name="Path 2644" transform="translate(-160.43749 -134.25774)"/><path id="ee50e840-b8e9-4cc0-9b2e-64e12816c6e5-1006" fill="#3f3d56" d="M500.4595,233.76773s-4.625,12.924.734,18.752l-4.468,15.353s15.874,47.622,11.339,54.274c0,0-16.932,8.466-50.8-3.024l13.757-53.367-1.965-22.526,2.721-10.583,6.047-.6s-3.628,13.606,3.024,15.723,13.141-15.383,13.141-15.383Z" data-name="Path 2645" transform="translate(-160.43749 -134.25774)"/><path id="b668efb4-5504-4326-941b-9be143c4d030-1007" fill="#fff" d="M286.85848,317.19475l5.837,2.388,27.858-36.613,8.755,42.98,5.837-1.061c3.744-37.055,6.8-74.85,3.051-92.726l-21.623-.929-9.816,31.311-4.776,21.225Z" data-name="Path 2646" transform="translate(-160.43749 -134.25774)"/><path id="b699d661-049e-451c-8a7e-64343ac1c335-1008" fill="#fff" d="M641.11547,231.86974s-7.966,11.074-7.577,15.543,5.44,77.327,5.44,77.327l11.852.583-3.5-52.458,2.914-14.183,7.189,66.058,14.572.389-13.017-85.681-2.526-7.577Z" data-name="Path 2647" transform="translate(-160.43749 -134.25774)"/><path id="a4f25674-ecb7-42aa-ae9a-d508200b11eb-1009" fill="#3f3d56" d="M686.1375,410.27574c-2.115-2.538-5.751-3.91-9.242-4.652.1-.317-10.618-2.532-10.8-2.076l-4.041-3.219-12.417,6.447-6.977-4.75-3.241,1.15c.132-.572-10.061,1.194-10.061,1.194-1.947.07-4.434.192-7.218.406-9.749.75-10.5,26-10.5,26a39.85013,39.85013,0,0,1,14.113-2.955l2.635,30.2c13.553-1.162,27.767.19,42.5,3.5l6.909-23.74,16.089-6.257S691.1375,416.27474,686.1375,410.27574Z" data-name="Path 2648" transform="translate(-160.43749 -134.25774)"/><path id="b6d7fb25-d94e-4ba0-9382-3f72a4c565e4-1010" fill="#fff" d="M340.8785,395.89473c-1.743-2.091-4.738-3.222-7.615-3.833.086-.262-8.749-2.086-8.9-1.71l-3.33-2.652-10.229,5.312-5.749-3.913-2.67.948c.109-.471-8.29.983-8.29.983-1.6.058-3.654.158-5.947.335-8.033.618-8.651,21.421-8.651,21.421a32.837,32.837,0,0,1,11.629-2.435l2.171,60.914c11.167-.958,22.879.157,35.015,2.884l5.692-55.59,13.257-5.155S344.99749,400.83974,340.8785,395.89473Z" data-name="Path 2649" transform="translate(-160.43749 -134.25774)"/><path id="abb48a01-b3b6-4bc9-9e6f-5cc93133d8eb-1011" fill="#2f2e41" d="M909.8875,412.10872h57v-30.5a28.5,28.5,0,1,0-57,0Z" data-name="Path 2682" transform="translate(-160.43749 -134.25774)"/><path id="f1b40e10-dbea-4491-93e9-bf21ee1afe95-1012" fill="#ffb6b6" d="M884.4425,751.45272h-12.259l-5.833-47.292h18.094Z" data-name="Path 2683" transform="translate(-160.43749 -134.25774)"/><path id="f19e2682-d3fb-40a9-8809-be7b68a78ac9-1013" fill="#2f2e41" d="M887.56951,747.44972h-24.145a15.387,15.387,0,0,0-15.386,15.385v.5h39.531Z" data-name="Path 2684" transform="translate(-160.43749 -134.25774)"/><path id="b3618d44-3857-42e4-aed2-10e127155f21-1014" fill="#ffb6b6" d="M1030.99651,735.09173l-10.676,6.027-28.328-38.311,15.757-8.895Z" data-name="Path 2685" transform="translate(-160.43749 -134.25774)"/><path id="a172411a-a77d-4e4f-ac70-c8342021cfb1-1015" fill="#2f2e41" d="M1031.7515,730.06874l-21.025,11.866h0a15.387,15.387,0,0,0-5.834,20.963l.246.435,34.424-19.433Z" data-name="Path 2686" transform="translate(-160.43749 -134.25774)"/><path id="bd1532c7-07e2-44c0-82ff-fc8e0d37942d-1016" fill="#2f2e41" d="M952.64249,538.78172l.946,4.73s2.838,2.838,1.419,4.257-.946,8.042-.946,8.042c.794,12.076,16.573,79.936,19.395,93.189,0,0,21.76,14.191,38.789,42.1s17.5,35.005,17.5,35.005l-18.918,8.043-47.3-57.238s-13.245-8.042-17.976-15.137-34.064-80.418-34.064-80.418l-16.56,76.63306s.946,27.909-3.311,45.885a192.52229,192.52229,0,0,0-4.73,34.532l-22.233-2.365s1.419-67.172,3.784-74.268c0,0-9.934-81.836,9.934-114.476l16.012-42.687,15.682-6.036Z" data-name="Path 2687" transform="translate(-160.43749 -134.25774)"/><path id="e2a54528-859f-4f0e-9aca-6130773a8d3b-1017" fill="#ffb8b8" d="M938.68153,360.56471c-29.847.51-29.842,44.907,0,45.412C968.52653,405.46672,968.5225,361.06972,938.68153,360.56471Z" data-name="Path 2688" transform="translate(-160.43749 -134.25774)"/><path id="aeace49c-5333-476f-965d-52da8fac2318-1018" fill="#2f2e41" d="M915.71052,382.09273h5.073l1.381-3.454-.691,3.454h27.745l-.9-7.227,6.744,7.227h6.727v-3.916a23.038,23.038,0,1,0-46.076-.03259v.03259Z" data-name="Path 2689" transform="translate(-160.43749 -134.25774)"/><path id="aa5a3aa9-e50b-4b43-b42d-0c1415925835-1019" fill="#3f3d56" d="M907.9035,419.23473l56.4.457-11.916,120.917s-65.959-3.481-66-23.614l6.179-17.891Z" data-name="Path 2690" transform="translate(-160.43749 -134.25774)"/><path id="aca4d347-909c-4b66-b72e-6bb1477aee43-1020" fill="#ffb6b6" d="M966.7275,552.29772a9.377,9.377,0,0,1,2.7-14.122l-2.451-21.287,12.573-4.645,3.039,30.111a9.428,9.428,0,0,1-15.861,9.943Z" data-name="Path 2693" transform="translate(-160.43749 -134.25774)"/><path id="eab38d24-ad2d-4cbe-aaaa-db975580c866-1021" fill="#3f3d56" d="M956.8875,430.10872l7.421-10.373s5.079-1.127,11.079,5.873,9.5,94.5,9.5,94.5l-22,5-13-62Z" data-name="Path 2694" transform="translate(-160.43749 -134.25774)"/><polygon fill="#fff" points="672.135 390.739 673.771 468.476 724.096 495.071 815.744 478.705 817.995 397.899 759.896 377.441 672.135 390.739"/><path fill="#cacaca" d="M884.40233,630.16805,833.4151,603.22344l-1.66142-78.9158,88.65793-13.43306.18894.06631L979.252,531.593l-2.28476,82.04559ZM835.002,602.244l49.66249,26.24458,90.73236-16.20225,2.2157-79.56639L920.256,512.52345,833.39038,525.685Z" transform="translate(-160.43749 -134.25774)"/><polygon fill="#cacaca" points="722.973 411.816 722.776 411.738 671.838 391.485 672.431 389.992 723.173 410.166 817.885 397.103 818.105 398.695 722.973 411.816"/><rect width="1.607" height="84.086" x="883.218" y="545.246" fill="#cacaca" transform="translate(-167.5157 -123.4613) rotate(-0.69695)"/><polygon fill="#cacaca" points="716.536 407.792 698.174 400.348 786.569 386.263 804.931 393.706 716.536 407.792"/><rect width="1.607" height="23.186" x="842.417" y="541.277" fill="#cacaca" transform="translate(-158.47692 974.46083) rotate(-66.70554)"/><rect width="1.607" height="23.186" x="852.06" y="567.797" fill="#0bef62" transform="translate(-177.00517 999.35088) rotate(-66.70554)"/><polygon fill="#fff" points="392.135 498.739 393.771 576.476 444.096 603.071 535.744 586.705 537.995 505.899 479.896 485.441 392.135 498.739"/><path fill="#cacaca" d="M604.40233,738.16805,553.4151,711.22344l-1.66142-78.9158,88.65793-13.43306.18894.06631L699.252,639.593l-2.28476,82.04559ZM555.002,710.244l49.66249,26.24458,90.73236-16.20225,2.2157-79.56639L640.256,620.52345,553.39038,633.685Z" transform="translate(-160.43749 -134.25774)"/><polygon fill="#cacaca" points="442.973 519.816 442.776 519.738 391.838 499.485 392.431 497.992 443.173 518.166 537.885 505.103 538.105 506.695 442.973 519.816"/><rect width="1.607" height="84.086" x="603.218" y="653.246" fill="#cacaca" transform="translate(-168.8501 -126.85915) rotate(-0.69695)"/><polygon fill="#cacaca" points="432.088 513.962 418.174 508.348 506.569 494.263 520.482 499.877 432.088 513.962"/><rect width="1.607" height="23.186" x="562.417" y="649.277" fill="#cacaca" transform="translate(-426.94537 782.57581) rotate(-66.70554)"/><rect width="1.607" height="23.186" x="572.06" y="675.797" fill="#0bef62" transform="translate(-445.47361 807.46587) rotate(-66.70554)"/><polygon fill="#0bef62" points="479.563 509.397 481.463 599.638 539.882 630.51 646.271 611.512 648.883 517.709 581.44 493.961 479.563 509.397"/><path fill="#3f3d56" d="M700.16688,765.74226l-59.18795-31.27835-1.92864-91.60849,102.91755-15.59363.21933.077L810.272,651.3125l-2.65223,95.24168ZM642.821,733.327l57.65013,30.46571,105.32563-18.80819,2.57206-92.36374-66.58163-23.44486-100.837,15.2784Z" transform="translate(-160.43749 -134.25774)"/><polygon fill="#3f3d56" points="538.578 533.865 538.35 533.774 479.218 510.264 479.907 508.53 538.81 531.949 648.755 516.785 649.01 518.633 538.578 533.865"/><rect width="1.866" height="97.61" x="698.792" y="667.161" fill="#3f3d56" transform="translate(-169.09453 -125.69351) rotate(-0.69695)"/><polygon fill="#3f3d56" points="526.888 527.112 509.79 520.553 612.402 504.202 629.501 510.761 526.888 527.112"/><rect width="1.866" height="26.916" x="651.428" y="662.554" fill="#3f3d56" transform="translate(-386.96327 873.60414) rotate(-66.70554)"/><rect width="1.866" height="26.916" x="662.623" y="693.339" fill="#fff" transform="translate(-408.47156 902.49747) rotate(-66.70554)"/><path id="af1e2e82-f248-43bd-a869-489ddf745161-1022" fill="#ffb6b6" d="M861.10549,537.85072a9.377,9.377,0,0,0,3.673-13.9l11.422-18.13-9.324-9.628-15.771,25.829a9.428,9.428,0,0,0,10,15.83Z" data-name="Path 2691" transform="translate(-160.43749 -134.25774)"/><path id="ed6195a6-5e50-4e12-8380-54bfefa6b2ae-1023" fill="#3f3d56" d="M916.57052,424.00072l-8.183-5.392s-6.315,1.416-13.031,14.334-33.8,70.672-33.8,70.672l11.133,11.3,29.7-45.309Z" data-name="Path 2692" transform="translate(-160.43749 -134.25774)"/></svg>